<svg width="375" height="812" viewBox="0 0 375 812" fill="none" xmlns="http://www.w3.org/2000/svg">
<g clip-path="url(#clip0_345_12853)">
<rect width="375" height="812" fill="url(#paint0_linear_345_12853)"/>
<g filter="url(#filter0_iif_345_12853)">
<path d="M-262.351 649.8L-226.084 655.964C-78.2637 681.085 70.687 618.053 155.574 494.455V494.455C229.302 387.104 352.327 324.33 482.517 327.632L486.378 327.73" stroke="#8C84FB" stroke-opacity="0.8" stroke-width="53.6275"/>
</g>
<g style="mix-blend-mode:color-dodge" opacity="0.2" filter="url(#filter1_f_345_12853)">
<path d="M-262.351 649.8L-226.084 655.964C-78.2637 681.085 70.687 618.053 155.574 494.455V494.455C229.302 387.104 352.327 324.33 482.517 327.632L486.378 327.73" stroke="#DACEFD" stroke-width="6"/>
</g>
<g opacity="0.62992" filter="url(#filter2_f_345_12853)">
<path d="M247.192 425.903L248.849 425.07L248.625 423.229L249.458 424.886L251.299 424.663L249.643 425.496L249.866 427.336L249.033 425.68L247.192 425.903Z" fill="white"/>
</g>
<g opacity="0.152704" filter="url(#filter3_f_345_12853)">
<path d="M222.136 359.654L223.61 358.529L223.05 356.762L224.175 358.236L225.943 357.676L224.469 358.801L225.028 360.569L223.904 359.095L222.136 359.654Z" fill="white"/>
</g>
<g opacity="0.556583" filter="url(#filter4_f_345_12853)">
<path d="M318.198 378.286L316.383 377.906L315.411 379.485L315.792 377.67L314.213 376.698L316.027 377.078L316.999 375.499L316.619 377.314L318.198 378.286Z" fill="white"/>
</g>
<g opacity="0.245719" filter="url(#filter5_f_345_12853)">
<path d="M102.219 407.787L103.243 409.332L105.044 408.891L103.499 409.916L103.94 411.717L102.915 410.171L101.114 410.612L102.66 409.588L102.219 407.787Z" fill="white"/>
</g>
<g opacity="0.510533" filter="url(#filter6_f_345_12853)">
<path d="M220.162 488.228L221.027 486.588L219.777 485.219L221.417 486.084L222.786 484.834L221.921 486.474L223.171 487.843L221.531 486.978L220.162 488.228Z" fill="white"/>
</g>
<g opacity="0.449485" filter="url(#filter7_f_345_12853)">
<path d="M186.936 353.371L185.377 354.375L185.794 356.181L184.79 354.622L182.984 355.04L184.542 354.036L184.125 352.229L185.129 353.788L186.936 353.371Z" fill="white"/>
</g>
<g opacity="0.670848" filter="url(#filter8_f_345_12853)">
<path d="M89.8029 493.96L91.3989 494.904L92.8272 493.722L91.8835 495.318L93.0658 496.746L91.4698 495.802L90.0416 496.985L90.9853 495.389L89.8029 493.96Z" fill="white"/>
</g>
<g opacity="0.125897" filter="url(#filter9_f_345_12853)">
<path d="M314.915 403.264L314.527 405.077L316.101 406.056L314.288 405.668L313.309 407.243L313.697 405.43L312.123 404.451L313.936 404.839L314.915 403.264Z" fill="white"/>
</g>
<g opacity="0.452967" filter="url(#filter10_f_345_12853)">
<path d="M214.402 359.486L213.865 357.711L212.014 357.615L213.789 357.079L213.885 355.227L214.421 357.002L216.273 357.098L214.498 357.634L214.402 359.486Z" fill="white"/>
</g>
<g opacity="0.530854" filter="url(#filter11_f_345_12853)">
<path d="M361.982 442.165L360.659 443.463L361.432 445.148L360.134 443.824L358.449 444.598L359.773 443.3L358.999 441.615L360.297 442.938L361.982 442.165Z" fill="white"/>
</g>
<g opacity="0.988091" filter="url(#filter12_f_345_12853)">
<path d="M184.523 564.807L183.017 563.726L181.49 564.778L182.571 563.271L181.519 561.744L183.026 562.825L184.553 561.774L183.472 563.28L184.523 564.807Z" fill="white"/>
</g>
<g opacity="0.0105304" filter="url(#filter13_f_345_12853)">
<path d="M120.735 652.996L120.737 654.851L122.483 655.476L120.629 655.478L120.004 657.224L120.001 655.37L118.256 654.745L120.11 654.742L120.735 652.996Z" fill="white"/>
</g>
<g opacity="0.453668" filter="url(#filter14_f_345_12853)">
<path d="M299.571 528.209L297.735 528.465L297.354 530.28L297.098 528.443L295.284 528.063L297.12 527.806L297.501 525.992L297.757 527.828L299.571 528.209Z" fill="white"/>
</g>
<g opacity="0.629134" filter="url(#filter15_f_345_12853)">
<path d="M77.5904 452.955L75.9266 453.774L76.1336 455.616L75.3152 453.953L73.4726 454.16L75.1364 453.341L74.9294 451.499L75.7478 453.162L77.5904 452.955Z" fill="white"/>
</g>
<g opacity="0.65706" filter="url(#filter16_f_345_12853)">
<path d="M155.341 610.793L156.57 609.404L155.679 607.778L157.067 609.007L158.694 608.116L157.465 609.505L158.356 611.131L156.967 609.902L155.341 610.793Z" fill="white"/>
</g>
<g opacity="0.203056" filter="url(#filter17_f_345_12853)">
<path d="M146.791 627.142L147.291 625.356L145.78 624.282L147.565 624.782L148.64 623.271L148.14 625.056L149.651 626.131L147.866 625.631L146.791 627.142Z" fill="white"/>
</g>
<g opacity="0.773962" filter="url(#filter18_f_345_12853)">
<path d="M88.8941 589.583L87.2762 590.489L87.5806 592.318L86.6751 590.7L84.8461 591.004L86.464 590.099L86.1596 588.27L87.0652 589.888L88.8941 589.583Z" fill="white"/>
</g>
<g opacity="0.85875" filter="url(#filter19_f_345_12853)">
<path d="M98.2692 366.266L98.9707 364.55L97.5931 363.309L99.3094 364.01L100.55 362.633L99.8489 364.349L101.227 365.59L99.5102 364.889L98.2692 366.266Z" fill="white"/>
</g>
<g opacity="0.195966" filter="url(#filter20_f_345_12853)">
<path d="M211.448 498.783L212.652 497.373L211.733 495.763L213.143 496.966L214.753 496.047L213.549 497.457L214.469 499.067L213.058 497.863L211.448 498.783Z" fill="white"/>
</g>
<g opacity="0.067763" filter="url(#filter21_f_345_12853)">
<path d="M72.1935 652.912L73.8033 651.992L73.4827 650.166L74.4025 651.776L76.2287 651.455L74.6189 652.375L74.9395 654.201L74.0197 652.591L72.1935 652.912Z" fill="white"/>
</g>
<g opacity="0.0669681" filter="url(#filter22_f_345_12853)">
<path d="M344.548 421.056L346.351 420.623L346.553 418.78L346.987 420.583L348.83 420.785L347.027 421.219L346.824 423.062L346.391 421.259L344.548 421.056Z" fill="white"/>
</g>
<g opacity="0.01" filter="url(#filter23_f_345_12853)">
<path d="M97.5353 592.006L99.2649 591.338L99.2216 589.484L99.8898 591.214L101.743 591.17L100.014 591.838L100.057 593.692L99.389 591.963L97.5353 592.006Z" fill="white"/>
</g>
<g opacity="0.437286" filter="url(#filter24_f_345_12853)">
<path d="M151.866 633.02L153.238 634.267L154.876 633.398L153.629 634.77L154.498 636.408L153.126 635.161L151.488 636.03L152.735 634.658L151.866 633.02Z" fill="white"/>
</g>
<g opacity="0.0579462" filter="url(#filter25_f_345_12853)">
<path d="M128.222 577.504L128.71 579.292L130.559 579.438L128.77 579.926L128.625 581.775L128.136 579.986L126.288 579.841L128.076 579.352L128.222 577.504Z" fill="white"/>
</g>
<g opacity="0.725187" filter="url(#filter26_f_345_12853)">
<path d="M202.358 460.92L203.28 459.312L202.079 457.899L203.688 458.822L205.1 457.62L204.178 459.229L205.379 460.641L203.77 459.719L202.358 460.92Z" fill="white"/>
</g>
<g opacity="0.500737" filter="url(#filter27_f_345_12853)">
<path d="M342.902 393.373L344.452 392.355L344.019 390.553L345.037 392.102L346.839 391.669L345.29 392.687L345.723 394.49L344.705 392.94L342.902 393.373Z" fill="white"/>
</g>
<g opacity="0.44025" filter="url(#filter28_f_345_12853)">
<path d="M82.3869 649.423L80.7852 650.357L81.122 652.18L80.1879 650.578L78.3646 650.915L79.9663 649.981L79.6295 648.158L80.5636 649.76L82.3869 649.423Z" fill="white"/>
</g>
<g opacity="0.0761755" filter="url(#filter29_f_345_12853)">
<path d="M283.458 362.481L281.794 363.299L282.001 365.142L281.182 363.478L279.34 363.685L281.004 362.867L280.797 361.024L281.615 362.688L283.458 362.481Z" fill="white"/>
</g>
<g opacity="0.260074" filter="url(#filter30_f_345_12853)">
<path d="M185.137 387.253L184.987 385.405L183.197 384.921L185.045 384.771L185.53 382.981L185.68 384.829L187.47 385.314L185.622 385.464L185.137 387.253Z" fill="white"/>
</g>
<g opacity="0.721962" filter="url(#filter31_f_345_12853)">
<path d="M313.47 362.738L315.273 362.305L315.475 360.462L315.908 362.264L317.751 362.467L315.949 362.9L315.746 364.743L315.313 362.94L313.47 362.738Z" fill="white"/>
</g>
<g opacity="0.742711" filter="url(#filter32_f_345_12853)">
<path d="M371.929 310.013L372.74 311.68L374.583 311.481L372.916 312.292L373.115 314.136L372.304 312.468L370.46 312.667L372.127 311.856L371.929 310.013Z" fill="white"/>
</g>
<g opacity="0.881065" filter="url(#filter33_f_345_12853)">
<path d="M348.17 421.246L347.938 419.406L346.129 419.002L347.968 418.77L348.373 416.961L348.605 418.8L350.414 419.205L348.574 419.437L348.17 421.246Z" fill="white"/>
</g>
<g opacity="0.974196" filter="url(#filter34_f_345_12853)">
<path d="M33.1999 567.881L32.8761 569.707L34.4843 570.63L32.6587 570.306L31.736 571.914L32.0599 570.088L30.4516 569.166L32.2772 569.49L33.1999 567.881Z" fill="white"/>
</g>
<g opacity="0.480992" filter="url(#filter35_f_345_12853)">
<path d="M233.104 411.438L231.692 412.64L232.345 414.375L231.143 412.963L229.408 413.615L230.82 412.414L230.167 410.678L231.369 412.091L233.104 411.438Z" fill="white"/>
</g>
<g opacity="0.250052" filter="url(#filter36_f_345_12853)">
<path d="M155.597 424.175L155.124 422.382L153.277 422.221L155.07 421.748L155.231 419.901L155.704 421.693L157.551 421.855L155.759 422.328L155.597 424.175Z" fill="white"/>
</g>
<g opacity="0.687632" filter="url(#filter37_f_345_12853)">
<path d="M193.113 536.387L192.816 534.557L190.994 534.216L192.824 533.92L193.164 532.097L193.461 533.927L195.283 534.268L193.453 534.564L193.113 536.387Z" fill="white"/>
</g>
<g opacity="0.924909" filter="url(#filter38_f_345_12853)">
<path d="M252.392 341.956L250.538 341.934L249.889 343.671L249.911 341.817L248.174 341.169L250.028 341.191L250.676 339.454L250.654 341.308L252.392 341.956Z" fill="white"/>
</g>
<g opacity="0.960968" filter="url(#filter39_f_345_12853)">
<path d="M292.301 403.233L292.151 401.385L290.361 400.901L292.21 400.751L292.694 398.961L292.844 400.809L294.634 401.294L292.786 401.444L292.301 403.233Z" fill="white"/>
</g>
<g opacity="0.82363" filter="url(#filter40_f_345_12853)">
<path d="M231.399 368.813L230.806 370.569L232.257 371.723L230.501 371.129L229.348 372.581L229.941 370.824L228.49 369.671L230.246 370.265L231.399 368.813Z" fill="white"/>
</g>
<g opacity="0.300281" filter="url(#filter41_f_345_12853)">
<path d="M186.171 575.534L186.812 573.794L185.391 572.602L187.131 573.243L188.323 571.822L187.682 573.562L189.103 574.753L187.363 574.113L186.171 575.534Z" fill="white"/>
</g>
<g opacity="0.830366" filter="url(#filter42_f_345_12853)">
<path d="M282.616 516.303L281.446 514.864L279.697 515.478L281.135 514.309L280.521 512.559L281.691 513.997L283.441 513.383L282.002 514.553L282.616 516.303Z" fill="white"/>
</g>
<g opacity="0.915025" filter="url(#filter43_f_345_12853)">
<path d="M107.074 441.728L105.473 442.662L105.809 444.486L104.875 442.884L103.052 443.221L104.654 442.287L104.317 440.464L105.251 442.065L107.074 441.728Z" fill="white"/>
</g>
<g opacity="0.568229" filter="url(#filter44_f_345_12853)">
<path d="M65.3326 568.753L67.1844 568.66L67.7239 566.886L67.8167 568.738L69.5906 569.277L67.7388 569.37L67.1993 571.144L67.1065 569.292L65.3326 568.753Z" fill="white"/>
</g>
<g opacity="0.405558" filter="url(#filter45_f_345_12853)">
<path d="M74.0172 611.353L73.0245 612.919L74.1621 614.383L72.5961 613.391L71.1319 614.528L72.1246 612.962L70.987 611.498L72.553 612.491L74.0172 611.353Z" fill="white"/>
</g>
<g opacity="0.523745" filter="url(#filter46_f_345_12853)">
<path d="M264.422 524.908L262.639 524.4L261.558 525.906L262.065 524.123L260.559 523.041L262.343 523.549L263.424 522.043L262.916 523.826L264.422 524.908Z" fill="white"/>
</g>
</g>
<defs>
<filter id="filter0_iif_345_12853" x="-331.197" y="236.341" width="882.608" height="516.242" filterUnits="userSpaceOnUse" color-interpolation-filters="sRGB">
<feFlood flood-opacity="0" result="BackgroundImageFix"/>
<feBlend mode="normal" in="SourceGraphic" in2="BackgroundImageFix" result="shape"/>
<feColorMatrix in="SourceAlpha" type="matrix" values="0 0 0 0 0 0 0 0 0 0 0 0 0 0 0 0 0 0 127 0" result="hardAlpha"/>
<feOffset dy="2.1451"/>
<feGaussianBlur stdDeviation="22.7917"/>
<feComposite in2="hardAlpha" operator="arithmetic" k2="-1" k3="1"/>
<feColorMatrix type="matrix" values="0 0 0 0 0.208333 0 0 0 0 0 0 0 0 0 1 0 0 0 1 0"/>
<feBlend mode="color-burn" in2="shape" result="effect1_innerShadow_345_12853"/>
<feColorMatrix in="SourceAlpha" type="matrix" values="0 0 0 0 0 0 0 0 0 0 0 0 0 0 0 0 0 0 127 0" result="hardAlpha"/>
<feOffset/>
<feGaussianBlur stdDeviation="9.38482"/>
<feComposite in2="hardAlpha" operator="arithmetic" k2="-1" k3="1"/>
<feColorMatrix type="matrix" values="0 0 0 0 1 0 0 0 0 0 0 0 0 0 0.84 0 0 0 1 0"/>
<feBlend mode="color-dodge" in2="effect1_innerShadow_345_12853" result="effect2_innerShadow_345_12853"/>
<feGaussianBlur stdDeviation="32.1765" result="effect3_foregroundBlur_345_12853"/>
</filter>
<filter id="filter1_f_345_12853" x="-286.984" y="300.375" width="797.569" height="388.173" filterUnits="userSpaceOnUse" color-interpolation-filters="sRGB">
<feFlood flood-opacity="0" result="BackgroundImageFix"/>
<feBlend mode="normal" in="SourceGraphic" in2="BackgroundImageFix" result="shape"/>
<feGaussianBlur stdDeviation="12.0662" result="effect1_foregroundBlur_345_12853"/>
</filter>
<filter id="filter2_f_345_12853" x="246.655" y="422.693" width="5.18193" height="5.17948" filterUnits="userSpaceOnUse" color-interpolation-filters="sRGB">
<feFlood flood-opacity="0" result="BackgroundImageFix"/>
<feBlend mode="normal" in="SourceGraphic" in2="BackgroundImageFix" result="shape"/>
<feGaussianBlur stdDeviation="0.268138" result="effect1_foregroundBlur_345_12853"/>
</filter>
<filter id="filter3_f_345_12853" x="221.6" y="356.225" width="4.87724" height="4.87919" filterUnits="userSpaceOnUse" color-interpolation-filters="sRGB">
<feFlood flood-opacity="0" result="BackgroundImageFix"/>
<feBlend mode="normal" in="SourceGraphic" in2="BackgroundImageFix" result="shape"/>
<feGaussianBlur stdDeviation="0.268138" result="effect1_foregroundBlur_345_12853"/>
</filter>
<filter id="filter4_f_345_12853" x="313.675" y="374.963" width="5.06083" height="5.0579" filterUnits="userSpaceOnUse" color-interpolation-filters="sRGB">
<feFlood flood-opacity="0" result="BackgroundImageFix"/>
<feBlend mode="normal" in="SourceGraphic" in2="BackgroundImageFix" result="shape"/>
<feGaussianBlur stdDeviation="0.268138" result="effect1_foregroundBlur_345_12853"/>
</filter>
<filter id="filter5_f_345_12853" x="100.577" y="407.251" width="5.00224" height="5.00224" filterUnits="userSpaceOnUse" color-interpolation-filters="sRGB">
<feFlood flood-opacity="0" result="BackgroundImageFix"/>
<feBlend mode="normal" in="SourceGraphic" in2="BackgroundImageFix" result="shape"/>
<feGaussianBlur stdDeviation="0.268138" result="effect1_foregroundBlur_345_12853"/>
</filter>
<filter id="filter6_f_345_12853" x="219.241" y="484.297" width="4.46708" height="4.46757" filterUnits="userSpaceOnUse" color-interpolation-filters="sRGB">
<feFlood flood-opacity="0" result="BackgroundImageFix"/>
<feBlend mode="normal" in="SourceGraphic" in2="BackgroundImageFix" result="shape"/>
<feGaussianBlur stdDeviation="0.268138" result="effect1_foregroundBlur_345_12853"/>
</filter>
<filter id="filter7_f_345_12853" x="182.448" y="351.693" width="5.02568" height="5.0247" filterUnits="userSpaceOnUse" color-interpolation-filters="sRGB">
<feFlood flood-opacity="0" result="BackgroundImageFix"/>
<feBlend mode="normal" in="SourceGraphic" in2="BackgroundImageFix" result="shape"/>
<feGaussianBlur stdDeviation="0.268138" result="effect1_foregroundBlur_345_12853"/>
</filter>
<filter id="filter8_f_345_12853" x="89.2684" y="493.185" width="4.33427" height="4.33525" filterUnits="userSpaceOnUse" color-interpolation-filters="sRGB">
<feFlood flood-opacity="0" result="BackgroundImageFix"/>
<feBlend mode="normal" in="SourceGraphic" in2="BackgroundImageFix" result="shape"/>
<feGaussianBlur stdDeviation="0.268138" result="effect1_foregroundBlur_345_12853"/>
</filter>
<filter id="filter9_f_345_12853" x="311.585" y="402.728" width="5.05302" height="5.05107" filterUnits="userSpaceOnUse" color-interpolation-filters="sRGB">
<feFlood flood-opacity="0" result="BackgroundImageFix"/>
<feBlend mode="normal" in="SourceGraphic" in2="BackgroundImageFix" result="shape"/>
<feGaussianBlur stdDeviation="0.268138" result="effect1_foregroundBlur_345_12853"/>
</filter>
<filter id="filter10_f_345_12853" x="211.479" y="354.691" width="5.33036" height="5.33134" filterUnits="userSpaceOnUse" color-interpolation-filters="sRGB">
<feFlood flood-opacity="0" result="BackgroundImageFix"/>
<feBlend mode="normal" in="SourceGraphic" in2="BackgroundImageFix" result="shape"/>
<feGaussianBlur stdDeviation="0.268138" result="effect1_foregroundBlur_345_12853"/>
</filter>
<filter id="filter11_f_345_12853" x="357.913" y="441.078" width="4.6038" height="4.60575" filterUnits="userSpaceOnUse" color-interpolation-filters="sRGB">
<feFlood flood-opacity="0" result="BackgroundImageFix"/>
<feBlend mode="normal" in="SourceGraphic" in2="BackgroundImageFix" result="shape"/>
<feGaussianBlur stdDeviation="0.268138" result="effect1_foregroundBlur_345_12853"/>
</filter>
<filter id="filter12_f_345_12853" x="180.952" y="561.208" width="4.13505" height="4.13554" filterUnits="userSpaceOnUse" color-interpolation-filters="sRGB">
<feFlood flood-opacity="0" result="BackgroundImageFix"/>
<feBlend mode="normal" in="SourceGraphic" in2="BackgroundImageFix" result="shape"/>
<feGaussianBlur stdDeviation="0.268138" result="effect1_foregroundBlur_345_12853"/>
</filter>
<filter id="filter13_f_345_12853" x="117.718" y="652.46" width="5.30302" height="5.2996" filterUnits="userSpaceOnUse" color-interpolation-filters="sRGB">
<feFlood flood-opacity="0" result="BackgroundImageFix"/>
<feBlend mode="normal" in="SourceGraphic" in2="BackgroundImageFix" result="shape"/>
<feGaussianBlur stdDeviation="0.268138" result="effect1_foregroundBlur_345_12853"/>
</filter>
<filter id="filter14_f_345_12853" x="294.749" y="525.455" width="5.35771" height="5.36015" filterUnits="userSpaceOnUse" color-interpolation-filters="sRGB">
<feFlood flood-opacity="0" result="BackgroundImageFix"/>
<feBlend mode="normal" in="SourceGraphic" in2="BackgroundImageFix" result="shape"/>
<feGaussianBlur stdDeviation="0.268138" result="effect1_foregroundBlur_345_12853"/>
</filter>
<filter id="filter15_f_345_12853" x="72.9364" y="450.962" width="5.18974" height="5.19023" filterUnits="userSpaceOnUse" color-interpolation-filters="sRGB">
<feFlood flood-opacity="0" result="BackgroundImageFix"/>
<feBlend mode="normal" in="SourceGraphic" in2="BackgroundImageFix" result="shape"/>
<feGaussianBlur stdDeviation="0.268138" result="effect1_foregroundBlur_345_12853"/>
</filter>
<filter id="filter16_f_345_12853" x="154.804" y="607.242" width="4.42802" height="4.42509" filterUnits="userSpaceOnUse" color-interpolation-filters="sRGB">
<feFlood flood-opacity="0" result="BackgroundImageFix"/>
<feBlend mode="normal" in="SourceGraphic" in2="BackgroundImageFix" result="shape"/>
<feGaussianBlur stdDeviation="0.268138" result="effect1_foregroundBlur_345_12853"/>
</filter>
<filter id="filter17_f_345_12853" x="145.245" y="622.734" width="4.94364" height="4.94413" filterUnits="userSpaceOnUse" color-interpolation-filters="sRGB">
<feFlood flood-opacity="0" result="BackgroundImageFix"/>
<feBlend mode="normal" in="SourceGraphic" in2="BackgroundImageFix" result="shape"/>
<feGaussianBlur stdDeviation="0.268138" result="effect1_foregroundBlur_345_12853"/>
</filter>
<filter id="filter18_f_345_12853" x="84.3114" y="587.733" width="5.11943" height="5.1204" filterUnits="userSpaceOnUse" color-interpolation-filters="sRGB">
<feFlood flood-opacity="0" result="BackgroundImageFix"/>
<feBlend mode="normal" in="SourceGraphic" in2="BackgroundImageFix" result="shape"/>
<feGaussianBlur stdDeviation="0.268138" result="effect1_foregroundBlur_345_12853"/>
</filter>
<filter id="filter19_f_345_12853" x="97.0575" y="362.097" width="4.70536" height="4.70585" filterUnits="userSpaceOnUse" color-interpolation-filters="sRGB">
<feFlood flood-opacity="0" result="BackgroundImageFix"/>
<feBlend mode="normal" in="SourceGraphic" in2="BackgroundImageFix" result="shape"/>
<feGaussianBlur stdDeviation="0.268138" result="effect1_foregroundBlur_345_12853"/>
</filter>
<filter id="filter20_f_345_12853" x="210.913" y="495.226" width="4.37724" height="4.37675" filterUnits="userSpaceOnUse" color-interpolation-filters="sRGB">
<feFlood flood-opacity="0" result="BackgroundImageFix"/>
<feBlend mode="normal" in="SourceGraphic" in2="BackgroundImageFix" result="shape"/>
<feGaussianBlur stdDeviation="0.268138" result="effect1_foregroundBlur_345_12853"/>
</filter>
<filter id="filter21_f_345_12853" x="71.659" y="649.63" width="5.10771" height="5.10771" filterUnits="userSpaceOnUse" color-interpolation-filters="sRGB">
<feFlood flood-opacity="0" result="BackgroundImageFix"/>
<feBlend mode="normal" in="SourceGraphic" in2="BackgroundImageFix" result="shape"/>
<feGaussianBlur stdDeviation="0.268138" result="effect1_foregroundBlur_345_12853"/>
</filter>
<filter id="filter22_f_345_12853" x="344.011" y="418.244" width="5.3538" height="5.35429" filterUnits="userSpaceOnUse" color-interpolation-filters="sRGB">
<feFlood flood-opacity="0" result="BackgroundImageFix"/>
<feBlend mode="normal" in="SourceGraphic" in2="BackgroundImageFix" result="shape"/>
<feGaussianBlur stdDeviation="0.268138" result="effect1_foregroundBlur_345_12853"/>
</filter>
<filter id="filter23_f_345_12853" x="96.9989" y="588.948" width="5.27958" height="5.28056" filterUnits="userSpaceOnUse" color-interpolation-filters="sRGB">
<feFlood flood-opacity="0" result="BackgroundImageFix"/>
<feBlend mode="normal" in="SourceGraphic" in2="BackgroundImageFix" result="shape"/>
<feGaussianBlur stdDeviation="0.268138" result="effect1_foregroundBlur_345_12853"/>
</filter>
<filter id="filter24_f_345_12853" x="150.952" y="632.484" width="4.45927" height="4.46025" filterUnits="userSpaceOnUse" color-interpolation-filters="sRGB">
<feFlood flood-opacity="0" result="BackgroundImageFix"/>
<feBlend mode="normal" in="SourceGraphic" in2="BackgroundImageFix" result="shape"/>
<feGaussianBlur stdDeviation="0.268138" result="effect1_foregroundBlur_345_12853"/>
</filter>
<filter id="filter25_f_345_12853" x="125.753" y="576.968" width="5.34208" height="5.34355" filterUnits="userSpaceOnUse" color-interpolation-filters="sRGB">
<feFlood flood-opacity="0" result="BackgroundImageFix"/>
<feBlend mode="normal" in="SourceGraphic" in2="BackgroundImageFix" result="shape"/>
<feGaussianBlur stdDeviation="0.268138" result="effect1_foregroundBlur_345_12853"/>
</filter>
<filter id="filter26_f_345_12853" x="201.542" y="457.084" width="4.37333" height="4.37187" filterUnits="userSpaceOnUse" color-interpolation-filters="sRGB">
<feFlood flood-opacity="0" result="BackgroundImageFix"/>
<feBlend mode="normal" in="SourceGraphic" in2="BackgroundImageFix" result="shape"/>
<feGaussianBlur stdDeviation="0.268138" result="effect1_foregroundBlur_345_12853"/>
</filter>
<filter id="filter27_f_345_12853" x="342.366" y="390.016" width="5.01005" height="5.00956" filterUnits="userSpaceOnUse" color-interpolation-filters="sRGB">
<feFlood flood-opacity="0" result="BackgroundImageFix"/>
<feBlend mode="normal" in="SourceGraphic" in2="BackgroundImageFix" result="shape"/>
<feGaussianBlur stdDeviation="0.268138" result="effect1_foregroundBlur_345_12853"/>
</filter>
<filter id="filter28_f_345_12853" x="77.827" y="647.621" width="5.09599" height="5.09501" filterUnits="userSpaceOnUse" color-interpolation-filters="sRGB">
<feFlood flood-opacity="0" result="BackgroundImageFix"/>
<feBlend mode="normal" in="SourceGraphic" in2="BackgroundImageFix" result="shape"/>
<feGaussianBlur stdDeviation="0.268138" result="effect1_foregroundBlur_345_12853"/>
</filter>
<filter id="filter29_f_345_12853" x="278.804" y="360.488" width="5.18974" height="5.19023" filterUnits="userSpaceOnUse" color-interpolation-filters="sRGB">
<feFlood flood-opacity="0" result="BackgroundImageFix"/>
<feBlend mode="normal" in="SourceGraphic" in2="BackgroundImageFix" result="shape"/>
<feGaussianBlur stdDeviation="0.268138" result="effect1_foregroundBlur_345_12853"/>
</filter>
<filter id="filter30_f_345_12853" x="182.663" y="382.445" width="5.34208" height="5.34452" filterUnits="userSpaceOnUse" color-interpolation-filters="sRGB">
<feFlood flood-opacity="0" result="BackgroundImageFix"/>
<feBlend mode="normal" in="SourceGraphic" in2="BackgroundImageFix" result="shape"/>
<feGaussianBlur stdDeviation="0.268138" result="effect1_foregroundBlur_345_12853"/>
</filter>
<filter id="filter31_f_345_12853" x="312.932" y="359.925" width="5.3538" height="5.35429" filterUnits="userSpaceOnUse" color-interpolation-filters="sRGB">
<feFlood flood-opacity="0" result="BackgroundImageFix"/>
<feBlend mode="normal" in="SourceGraphic" in2="BackgroundImageFix" result="shape"/>
<feGaussianBlur stdDeviation="0.268138" result="effect1_foregroundBlur_345_12853"/>
</filter>
<filter id="filter32_f_345_12853" x="369.925" y="309.476" width="5.19364" height="5.1956" filterUnits="userSpaceOnUse" color-interpolation-filters="sRGB">
<feFlood flood-opacity="0" result="BackgroundImageFix"/>
<feBlend mode="normal" in="SourceGraphic" in2="BackgroundImageFix" result="shape"/>
<feGaussianBlur stdDeviation="0.268138" result="effect1_foregroundBlur_345_12853"/>
</filter>
<filter id="filter33_f_345_12853" x="345.593" y="416.424" width="5.35771" height="5.3582" filterUnits="userSpaceOnUse" color-interpolation-filters="sRGB">
<feFlood flood-opacity="0" result="BackgroundImageFix"/>
<feBlend mode="normal" in="SourceGraphic" in2="BackgroundImageFix" result="shape"/>
<feGaussianBlur stdDeviation="0.268138" result="effect1_foregroundBlur_345_12853"/>
</filter>
<filter id="filter34_f_345_12853" x="29.9168" y="567.345" width="5.1038" height="5.10527" filterUnits="userSpaceOnUse" color-interpolation-filters="sRGB">
<feFlood flood-opacity="0" result="BackgroundImageFix"/>
<feBlend mode="normal" in="SourceGraphic" in2="BackgroundImageFix" result="shape"/>
<feGaussianBlur stdDeviation="0.268138" result="effect1_foregroundBlur_345_12853"/>
</filter>
<filter id="filter35_f_345_12853" x="228.87" y="410.142" width="4.77177" height="4.76884" filterUnits="userSpaceOnUse" color-interpolation-filters="sRGB">
<feFlood flood-opacity="0" result="BackgroundImageFix"/>
<feBlend mode="normal" in="SourceGraphic" in2="BackgroundImageFix" result="shape"/>
<feGaussianBlur stdDeviation="0.268138" result="effect1_foregroundBlur_345_12853"/>
</filter>
<filter id="filter36_f_345_12853" x="152.741" y="419.364" width="5.34599" height="5.34745" filterUnits="userSpaceOnUse" color-interpolation-filters="sRGB">
<feFlood flood-opacity="0" result="BackgroundImageFix"/>
<feBlend mode="normal" in="SourceGraphic" in2="BackgroundImageFix" result="shape"/>
<feGaussianBlur stdDeviation="0.268138" result="effect1_foregroundBlur_345_12853"/>
</filter>
<filter id="filter37_f_345_12853" x="190.456" y="531.561" width="5.36552" height="5.3621" filterUnits="userSpaceOnUse" color-interpolation-filters="sRGB">
<feFlood flood-opacity="0" result="BackgroundImageFix"/>
<feBlend mode="normal" in="SourceGraphic" in2="BackgroundImageFix" result="shape"/>
<feGaussianBlur stdDeviation="0.268138" result="effect1_foregroundBlur_345_12853"/>
</filter>
<filter id="filter38_f_345_12853" x="247.64" y="338.917" width="5.28739" height="5.28984" filterUnits="userSpaceOnUse" color-interpolation-filters="sRGB">
<feFlood flood-opacity="0" result="BackgroundImageFix"/>
<feBlend mode="normal" in="SourceGraphic" in2="BackgroundImageFix" result="shape"/>
<feGaussianBlur stdDeviation="0.268138" result="effect1_foregroundBlur_345_12853"/>
</filter>
<filter id="filter39_f_345_12853" x="289.827" y="398.425" width="5.34208" height="5.34452" filterUnits="userSpaceOnUse" color-interpolation-filters="sRGB">
<feFlood flood-opacity="0" result="BackgroundImageFix"/>
<feBlend mode="normal" in="SourceGraphic" in2="BackgroundImageFix" result="shape"/>
<feGaussianBlur stdDeviation="0.268138" result="effect1_foregroundBlur_345_12853"/>
</filter>
<filter id="filter40_f_345_12853" x="227.952" y="368.277" width="4.84208" height="4.84013" filterUnits="userSpaceOnUse" color-interpolation-filters="sRGB">
<feFlood flood-opacity="0" result="BackgroundImageFix"/>
<feBlend mode="normal" in="SourceGraphic" in2="BackgroundImageFix" result="shape"/>
<feGaussianBlur stdDeviation="0.268138" result="effect1_foregroundBlur_345_12853"/>
</filter>
<filter id="filter41_f_345_12853" x="184.854" y="571.286" width="4.78349" height="4.78446" filterUnits="userSpaceOnUse" color-interpolation-filters="sRGB">
<feFlood flood-opacity="0" result="BackgroundImageFix"/>
<feBlend mode="normal" in="SourceGraphic" in2="BackgroundImageFix" result="shape"/>
<feGaussianBlur stdDeviation="0.268138" result="effect1_foregroundBlur_345_12853"/>
</filter>
<filter id="filter42_f_345_12853" x="279.159" y="512.023" width="4.81864" height="4.8162" filterUnits="userSpaceOnUse" color-interpolation-filters="sRGB">
<feFlood flood-opacity="0" result="BackgroundImageFix"/>
<feBlend mode="normal" in="SourceGraphic" in2="BackgroundImageFix" result="shape"/>
<feGaussianBlur stdDeviation="0.268138" result="effect1_foregroundBlur_345_12853"/>
</filter>
<filter id="filter43_f_345_12853" x="102.515" y="439.927" width="5.09599" height="5.09501" filterUnits="userSpaceOnUse" color-interpolation-filters="sRGB">
<feFlood flood-opacity="0" result="BackgroundImageFix"/>
<feBlend mode="normal" in="SourceGraphic" in2="BackgroundImageFix" result="shape"/>
<feGaussianBlur stdDeviation="0.268138" result="effect1_foregroundBlur_345_12853"/>
</filter>
<filter id="filter44_f_345_12853" x="64.7958" y="566.35" width="5.33036" height="5.33036" filterUnits="userSpaceOnUse" color-interpolation-filters="sRGB">
<feFlood flood-opacity="0" result="BackgroundImageFix"/>
<feBlend mode="normal" in="SourceGraphic" in2="BackgroundImageFix" result="shape"/>
<feGaussianBlur stdDeviation="0.268138" result="effect1_foregroundBlur_345_12853"/>
</filter>
<filter id="filter45_f_345_12853" x="70.452" y="610.817" width="4.24443" height="4.24736" filterUnits="userSpaceOnUse" color-interpolation-filters="sRGB">
<feFlood flood-opacity="0" result="BackgroundImageFix"/>
<feBlend mode="normal" in="SourceGraphic" in2="BackgroundImageFix" result="shape"/>
<feGaussianBlur stdDeviation="0.268138" result="effect1_foregroundBlur_345_12853"/>
</filter>
<filter id="filter46_f_345_12853" x="260.022" y="521.507" width="4.93583" height="4.93583" filterUnits="userSpaceOnUse" color-interpolation-filters="sRGB">
<feFlood flood-opacity="0" result="BackgroundImageFix"/>
<feBlend mode="normal" in="SourceGraphic" in2="BackgroundImageFix" result="shape"/>
<feGaussianBlur stdDeviation="0.268138" result="effect1_foregroundBlur_345_12853"/>
</filter>
<linearGradient id="paint0_linear_345_12853" x1="187.5" y1="0" x2="187.5" y2="812" gradientUnits="userSpaceOnUse">
<stop stop-color="#0B0C1E"/>
<stop offset="0.908654" stop-color="#393084"/>
</linearGradient>
<clipPath id="clip0_345_12853">
<rect width="375" height="812" fill="white"/>
</clipPath>
</defs>
</svg>
