<svg width="375" height="812" viewBox="0 0 375 812" fill="none" xmlns="http://www.w3.org/2000/svg">
<g clip-path="url(#clip0_345_12207)">
<rect width="375" height="812" fill="url(#paint0_linear_345_12207)"/>
<g filter="url(#filter0_iif_345_12207)">
<path d="M-174.82 450.715L-146.713 474.448C-32.1505 571.182 128.169 592.558 264.076 529.222V529.222C382.118 474.21 519.975 482.639 630.436 551.621L633.713 553.667" stroke="#8C84FB" stroke-opacity="0.8" stroke-width="53.6275"/>
</g>
<g style="mix-blend-mode:color-dodge" opacity="0.2" filter="url(#filter1_f_345_12207)">
<path d="M-174.82 450.715L-146.713 474.448C-32.1505 571.182 128.169 592.558 264.076 529.222V529.222C382.118 474.21 519.975 482.639 630.436 551.621L633.713 553.667" stroke="#DACEFD" stroke-width="6"/>
</g>
<g opacity="0.950977" filter="url(#filter2_f_345_12207)">
<path d="M15.4417 619.562L13.7554 620.333L13.9099 622.18L13.1391 620.494L11.2914 620.649L12.9777 619.878L12.8233 618.03L13.594 619.716L15.4417 619.562Z" fill="white"/>
</g>
<g opacity="0.245719" filter="url(#filter3_f_345_12207)">
<path d="M262.145 427.464L262.243 429.316L264.018 429.851L262.166 429.949L261.631 431.724L261.534 429.872L259.759 429.337L261.61 429.24L262.145 427.464Z" fill="white"/>
</g>
<g opacity="0.510533" filter="url(#filter4_f_345_12207)">
<path d="M322.872 556.67L324.451 555.696L324.069 553.882L325.042 555.46L326.857 555.078L325.278 556.052L325.66 557.866L324.687 556.288L322.872 556.67Z" fill="white"/>
</g>
<g opacity="0.449485" filter="url(#filter5_f_345_12207)">
<path d="M362.762 423.631L360.909 423.704L360.35 425.472L360.278 423.62L358.51 423.061L360.362 422.988L360.921 421.22L360.994 423.073L362.762 423.631Z" fill="white"/>
</g>
<g opacity="0.670848" filter="url(#filter6_f_345_12207)">
<path d="M207.677 495.382L208.572 497.006L210.403 496.713L208.779 497.608L209.072 499.439L208.177 497.816L206.346 498.109L207.97 497.213L207.677 495.382Z" fill="white"/>
</g>
<path opacity="0.370337" d="M-4.69393 457.947L-3.09974 458.894L-1.66925 457.715L-2.61602 459.309L-1.43639 460.739L-3.03058 459.792L-4.46107 460.972L-3.5143 459.378L-4.69393 457.947Z" fill="white"/>
<g opacity="0.988091" filter="url(#filter8_f_345_12207)">
<path d="M253.273 604.526L252.525 602.83L250.675 602.96L252.372 602.212L252.242 600.362L252.99 602.058L254.84 601.929L253.143 602.677L253.273 604.526Z" fill="white"/>
</g>
<g opacity="0.0105304" filter="url(#filter9_f_345_12207)">
<path d="M153.529 648.083L152.59 649.681L153.776 651.106L152.177 650.166L150.752 651.352L151.692 649.754L150.506 648.329L152.104 649.268L153.529 648.083Z" fill="white"/>
</g>
<g opacity="0.453668" filter="url(#filter10_f_345_12207)">
<path d="M370.957 631.448L369.245 630.735L367.996 632.105L368.708 630.393L367.338 629.143L369.05 629.856L370.3 628.486L369.588 630.198L370.957 631.448Z" fill="white"/>
</g>
<g opacity="0.721295" filter="url(#filter11_f_345_12207)">
<path d="M11.1312 378.243L9.7062 379.429L10.34 381.171L9.15383 379.746L7.4114 380.38L8.83643 379.194L8.20259 377.452L9.3888 378.877L11.1312 378.243Z" fill="white"/>
</g>
<g opacity="0.629134" filter="url(#filter12_f_345_12207)">
<path d="M217.988 453.858L216.139 453.718L215.382 455.41L215.522 453.561L213.83 452.803L215.679 452.944L216.436 451.251L216.296 453.1L217.988 453.858Z" fill="white"/>
</g>
<g opacity="0.209919" filter="url(#filter13_f_345_12207)">
<path d="M13.3804 382.377L11.5596 382.726L11.2723 384.558L10.9226 382.737L9.09086 382.45L10.9117 382.1L11.199 380.269L11.5487 382.089L13.3804 382.377Z" fill="white"/>
</g>
<g opacity="0.65706" filter="url(#filter14_f_345_12207)">
<path d="M204.777 629.312L206.54 628.74L206.599 626.886L207.171 628.65L209.024 628.709L207.261 629.281L207.202 631.134L206.63 629.37L204.777 629.312Z" fill="white"/>
</g>
<g opacity="0.203056" filter="url(#filter15_f_345_12207)">
<path d="M189.103 639.048L190.441 637.764L189.685 636.071L190.969 637.409L192.663 636.653L191.325 637.937L192.08 639.631L190.796 638.293L189.103 639.048Z" fill="white"/>
</g>
<g opacity="0.773962" filter="url(#filter16_f_345_12207)">
<path d="M158.314 577.286L156.461 577.244L155.794 578.974L155.836 577.12L154.106 576.454L155.959 576.495L156.626 574.765L156.584 576.619L158.314 577.286Z" fill="white"/>
</g>
<g opacity="0.85875" filter="url(#filter17_f_345_12207)">
<path d="M279.839 389.694L281.315 388.572L280.759 386.803L281.881 388.28L283.65 387.723L282.173 388.845L282.73 390.614L281.608 389.138L279.839 389.694Z" fill="white"/>
</g>
<g opacity="0.195966" filter="url(#filter18_f_345_12207)">
<path d="M310.005 561.334L311.758 560.731L311.784 558.877L312.387 560.63L314.241 560.656L312.488 561.259L312.462 563.113L311.859 561.36L310.005 561.334Z" fill="white"/>
</g>
<g opacity="0.067763" filter="url(#filter19_f_345_12207)">
<path d="M111.757 623.349L113.611 623.375L114.262 621.639L114.237 623.493L115.973 624.144L114.119 624.119L113.467 625.855L113.493 624.001L111.757 623.349Z" fill="white"/>
</g>
<g opacity="0.970812" filter="url(#filter20_f_345_12207)">
<path d="M9.55958 597.154L9.413 595.306L7.62415 594.818L9.47248 594.672L9.96018 592.883L10.1068 594.731L11.8956 595.219L10.0473 595.365L9.55958 597.154Z" fill="white"/>
</g>
<g opacity="0.0426653" filter="url(#filter21_f_345_12207)">
<path d="M70.464 332.83L69.9294 334.605L71.4189 335.709L69.6436 335.175L68.5395 336.664L69.0742 334.889L67.5846 333.785L69.36 334.32L70.464 332.83Z" fill="white"/>
</g>
<g opacity="0.01" filter="url(#filter22_f_345_12207)">
<path d="M164.525 583.762L166.355 584.065L167.259 582.446L166.956 584.275L168.575 585.18L166.745 584.877L165.841 586.495L166.144 584.666L164.525 583.762Z" fill="white"/>
</g>
<g opacity="0.0850951" filter="url(#filter23_f_345_12207)">
<path d="M31.606 347.146L30.947 348.879L32.3548 350.086L30.6217 349.427L29.415 350.834L30.074 349.101L28.6662 347.895L30.3993 348.554L31.606 347.146Z" fill="white"/>
</g>
<g opacity="0.437286" filter="url(#filter24_f_345_12207)">
<path d="M190.491 646.691L191.039 648.462L192.892 648.546L191.121 649.094L191.037 650.946L190.489 649.175L188.636 649.092L190.408 648.543L190.491 646.691Z" fill="white"/>
</g>
<g opacity="0.0579462" filter="url(#filter25_f_345_12207)">
<path d="M198.329 586.86L197.841 588.649L199.36 589.713L197.571 589.226L196.507 590.744L196.994 588.955L195.476 587.891L197.265 588.379L198.329 586.86Z" fill="white"/>
</g>
<g opacity="0.725187" filter="url(#filter26_f_345_12207)">
<path d="M321.408 524.103L323.02 523.186L322.703 521.359L323.62 522.971L325.446 522.653L323.835 523.57L324.152 525.397L323.235 523.785L321.408 524.103Z" fill="white"/>
</g>
<g opacity="0.44025" filter="url(#filter27_f_345_12207)">
<path d="M122.313 625.523L120.458 625.514L119.822 627.255L119.831 625.401L118.09 624.765L119.944 624.774L120.58 623.033L120.571 624.887L122.313 625.523Z" fill="white"/>
</g>
<g opacity="0.260074" filter="url(#filter28_f_345_12207)">
<path d="M344.002 451.902L344.811 450.234L343.516 448.908L345.184 449.717L346.51 448.422L345.701 450.09L346.996 451.416L345.328 450.606L344.002 451.902Z" fill="white"/>
</g>
<g opacity="0.323219" filter="url(#filter29_f_345_12207)">
<path d="M49.4808 404.855L51.2116 404.19L51.1718 402.337L51.8367 404.067L53.6904 404.028L51.9596 404.692L51.9994 406.546L51.3345 404.815L49.4808 404.855Z" fill="white"/>
</g>
<g opacity="0.974196" filter="url(#filter30_f_345_12207)">
<path d="M121.369 530.299L120.162 531.707L121.079 533.319L119.671 532.112L118.059 533.029L119.266 531.621L118.349 530.009L119.757 531.215L121.369 530.299Z" fill="white"/>
</g>
<g opacity="0.480992" filter="url(#filter31_f_345_12207)">
<path d="M373.03 497.101L371.203 497.419L370.884 499.245L370.566 497.418L368.74 497.099L370.567 496.781L370.886 494.955L371.204 496.782L373.03 497.101Z" fill="white"/>
</g>
<g opacity="0.250052" filter="url(#filter32_f_345_12207)">
<path d="M299.801 468.698L300.304 466.914L298.795 465.836L300.579 466.339L301.657 464.83L301.154 466.615L302.663 467.693L300.878 467.189L299.801 468.698Z" fill="white"/>
</g>
<g opacity="0.687632" filter="url(#filter33_f_345_12207)">
<path d="M275.107 584.409L275.781 582.682L274.384 581.463L276.111 582.137L277.33 580.74L276.656 582.467L278.053 583.686L276.326 583.012L275.107 584.409Z" fill="white"/>
</g>
<g opacity="0.630803" filter="url(#filter34_f_345_12207)">
<path d="M51.7582 486.954L53.4298 487.757L54.7504 486.455L53.9483 488.127L55.2498 489.447L53.5781 488.645L52.2575 489.947L53.0596 488.275L51.7582 486.954Z" fill="white"/>
</g>
<g opacity="0.300281" filter="url(#filter35_f_345_12207)">
<path d="M249.241 614.603L250.676 613.429L250.058 611.681L251.231 613.117L252.979 612.498L251.544 613.672L252.162 615.42L250.989 613.984L249.241 614.603Z" fill="white"/>
</g>
<g opacity="0.830366" filter="url(#filter36_f_345_12207)">
<path d="M362.402 612.579L362.125 610.746L360.306 610.386L362.14 610.109L362.5 608.29L362.777 610.123L364.596 610.483L362.762 610.76L362.402 612.579Z" fill="white"/>
</g>
<g opacity="0.915025" filter="url(#filter37_f_345_12207)">
<path d="M249.086 459.167L247.232 459.158L246.596 460.9L246.605 459.045L244.863 458.409L246.717 458.418L247.353 456.677L247.344 458.531L249.086 459.167Z" fill="white"/>
</g>
<g opacity="0.215568" filter="url(#filter38_f_345_12207)">
<path d="M151.681 394.064L150.175 395.146L150.684 396.929L149.602 395.424L147.819 395.933L149.324 394.85L148.815 393.067L149.898 394.573L151.681 394.064Z" fill="white"/>
</g>
<g opacity="0.568229" filter="url(#filter39_f_345_12207)">
<path d="M148.6 547.373L150.243 548.234L151.609 546.98L150.748 548.622L152.002 549.988L150.359 549.127L148.994 550.381L149.854 548.739L148.6 547.373Z" fill="white"/>
</g>
<g opacity="0.885141" filter="url(#filter40_f_345_12207)">
<path d="M48.4116 374.465L49.0859 372.738L47.6888 371.519L49.416 372.193L50.6351 370.796L49.9609 372.523L51.3579 373.742L49.6307 373.068L48.4116 374.465Z" fill="white"/>
</g>
<g opacity="0.405558" filter="url(#filter41_f_345_12207)">
<path d="M134.443 588.48L132.792 589.325L133.029 591.164L132.184 589.513L130.345 589.749L131.995 588.905L131.759 587.066L132.604 588.716L134.443 588.48Z" fill="white"/>
</g>
<g opacity="0.523745" filter="url(#filter42_f_345_12207)">
<path d="M342.363 610.749L341.085 609.406L339.389 610.154L340.732 608.875L339.984 607.179L341.262 608.522L342.959 607.774L341.615 609.052L342.363 610.749Z" fill="white"/>
</g>
<g opacity="0.477541" filter="url(#filter43_f_345_12207)">
<path d="M107.491 413.598L109.233 412.964L109.226 411.109L109.86 412.852L111.714 412.845L109.972 413.479L109.979 415.333L109.345 413.591L107.491 413.598Z" fill="white"/>
</g>
</g>
<defs>
<filter id="filter0_iif_345_12207" x="-256.474" y="365.875" width="968.741" height="290.534" filterUnits="userSpaceOnUse" color-interpolation-filters="sRGB">
<feFlood flood-opacity="0" result="BackgroundImageFix"/>
<feBlend mode="normal" in="SourceGraphic" in2="BackgroundImageFix" result="shape"/>
<feColorMatrix in="SourceAlpha" type="matrix" values="0 0 0 0 0 0 0 0 0 0 0 0 0 0 0 0 0 0 127 0" result="hardAlpha"/>
<feOffset dy="2.1451"/>
<feGaussianBlur stdDeviation="22.7917"/>
<feComposite in2="hardAlpha" operator="arithmetic" k2="-1" k3="1"/>
<feColorMatrix type="matrix" values="0 0 0 0 0.208333 0 0 0 0 0 0 0 0 0 1 0 0 0 1 0"/>
<feBlend mode="color-burn" in2="shape" result="effect1_innerShadow_345_12207"/>
<feColorMatrix in="SourceAlpha" type="matrix" values="0 0 0 0 0 0 0 0 0 0 0 0 0 0 0 0 0 0 127 0" result="hardAlpha"/>
<feOffset/>
<feGaussianBlur stdDeviation="9.38482"/>
<feComposite in2="hardAlpha" operator="arithmetic" k2="-1" k3="1"/>
<feColorMatrix type="matrix" values="0 0 0 0 1 0 0 0 0 0 0 0 0 0 0.84 0 0 0 1 0"/>
<feBlend mode="color-dodge" in2="effect1_innerShadow_345_12207" result="effect2_innerShadow_345_12207"/>
<feGaussianBlur stdDeviation="32.1765" result="effect3_foregroundBlur_345_12207"/>
</filter>
<filter id="filter1_f_345_12207" x="-200.886" y="424.291" width="860.319" height="168.083" filterUnits="userSpaceOnUse" color-interpolation-filters="sRGB">
<feFlood flood-opacity="0" result="BackgroundImageFix"/>
<feBlend mode="normal" in="SourceGraphic" in2="BackgroundImageFix" result="shape"/>
<feGaussianBlur stdDeviation="12.0662" result="effect1_foregroundBlur_345_12207"/>
</filter>
<filter id="filter2_f_345_12207" x="10.7567" y="617.494" width="5.22099" height="5.22294" filterUnits="userSpaceOnUse" color-interpolation-filters="sRGB">
<feFlood flood-opacity="0" result="BackgroundImageFix"/>
<feBlend mode="normal" in="SourceGraphic" in2="BackgroundImageFix" result="shape"/>
<feGaussianBlur stdDeviation="0.268138" result="effect1_foregroundBlur_345_12207"/>
</filter>
<filter id="filter3_f_345_12207" x="259.222" y="426.928" width="5.33427" height="5.33183" filterUnits="userSpaceOnUse" color-interpolation-filters="sRGB">
<feFlood flood-opacity="0" result="BackgroundImageFix"/>
<feBlend mode="normal" in="SourceGraphic" in2="BackgroundImageFix" result="shape"/>
<feGaussianBlur stdDeviation="0.268138" result="effect1_foregroundBlur_345_12207"/>
</filter>
<filter id="filter4_f_345_12207" x="322.335" y="553.346" width="5.05693" height="5.05693" filterUnits="userSpaceOnUse" color-interpolation-filters="sRGB">
<feFlood flood-opacity="0" result="BackgroundImageFix"/>
<feBlend mode="normal" in="SourceGraphic" in2="BackgroundImageFix" result="shape"/>
<feGaussianBlur stdDeviation="0.268138" result="effect1_foregroundBlur_345_12207"/>
</filter>
<filter id="filter5_f_345_12207" x="357.972" y="420.684" width="5.32646" height="5.3245" filterUnits="userSpaceOnUse" color-interpolation-filters="sRGB">
<feFlood flood-opacity="0" result="BackgroundImageFix"/>
<feBlend mode="normal" in="SourceGraphic" in2="BackgroundImageFix" result="shape"/>
<feGaussianBlur stdDeviation="0.268138" result="effect1_foregroundBlur_345_12207"/>
</filter>
<filter id="filter6_f_345_12207" x="205.811" y="494.846" width="5.12724" height="5.12968" filterUnits="userSpaceOnUse" color-interpolation-filters="sRGB">
<feFlood flood-opacity="0" result="BackgroundImageFix"/>
<feBlend mode="normal" in="SourceGraphic" in2="BackgroundImageFix" result="shape"/>
<feGaussianBlur stdDeviation="0.268138" result="effect1_foregroundBlur_345_12207"/>
</filter>
<filter id="filter8_f_345_12207" x="250.14" y="599.826" width="5.23661" height="5.2371" filterUnits="userSpaceOnUse" color-interpolation-filters="sRGB">
<feFlood flood-opacity="0" result="BackgroundImageFix"/>
<feBlend mode="normal" in="SourceGraphic" in2="BackgroundImageFix" result="shape"/>
<feGaussianBlur stdDeviation="0.268138" result="effect1_foregroundBlur_345_12207"/>
</filter>
<filter id="filter9_f_345_12207" x="149.968" y="647.546" width="4.34599" height="4.34257" filterUnits="userSpaceOnUse" color-interpolation-filters="sRGB">
<feFlood flood-opacity="0" result="BackgroundImageFix"/>
<feBlend mode="normal" in="SourceGraphic" in2="BackgroundImageFix" result="shape"/>
<feGaussianBlur stdDeviation="0.268138" result="effect1_foregroundBlur_345_12207"/>
</filter>
<filter id="filter10_f_345_12207" x="366.804" y="627.95" width="4.68974" height="4.6912" filterUnits="userSpaceOnUse" color-interpolation-filters="sRGB">
<feFlood flood-opacity="0" result="BackgroundImageFix"/>
<feBlend mode="normal" in="SourceGraphic" in2="BackgroundImageFix" result="shape"/>
<feGaussianBlur stdDeviation="0.268138" result="effect1_foregroundBlur_345_12207"/>
</filter>
<filter id="filter11_f_345_12207" x="6.87388" y="376.915" width="4.79521" height="4.79228" filterUnits="userSpaceOnUse" color-interpolation-filters="sRGB">
<feFlood flood-opacity="0" result="BackgroundImageFix"/>
<feBlend mode="normal" in="SourceGraphic" in2="BackgroundImageFix" result="shape"/>
<feGaussianBlur stdDeviation="0.268138" result="effect1_foregroundBlur_345_12207"/>
</filter>
<filter id="filter12_f_345_12207" x="213.292" y="450.715" width="5.23271" height="5.23124" filterUnits="userSpaceOnUse" color-interpolation-filters="sRGB">
<feFlood flood-opacity="0" result="BackgroundImageFix"/>
<feBlend mode="normal" in="SourceGraphic" in2="BackgroundImageFix" result="shape"/>
<feGaussianBlur stdDeviation="0.268138" result="effect1_foregroundBlur_345_12207"/>
</filter>
<filter id="filter13_f_345_12207" x="8.55357" y="379.732" width="5.36161" height="5.3621" filterUnits="userSpaceOnUse" color-interpolation-filters="sRGB">
<feFlood flood-opacity="0" result="BackgroundImageFix"/>
<feBlend mode="normal" in="SourceGraphic" in2="BackgroundImageFix" result="shape"/>
<feGaussianBlur stdDeviation="0.268138" result="effect1_foregroundBlur_345_12207"/>
</filter>
<filter id="filter14_f_345_12207" x="204.241" y="626.35" width="5.31864" height="5.32011" filterUnits="userSpaceOnUse" color-interpolation-filters="sRGB">
<feFlood flood-opacity="0" result="BackgroundImageFix"/>
<feBlend mode="normal" in="SourceGraphic" in2="BackgroundImageFix" result="shape"/>
<feGaussianBlur stdDeviation="0.268138" result="effect1_foregroundBlur_345_12207"/>
</filter>
<filter id="filter15_f_345_12207" x="188.565" y="635.535" width="4.63505" height="4.63163" filterUnits="userSpaceOnUse" color-interpolation-filters="sRGB">
<feFlood flood-opacity="0" result="BackgroundImageFix"/>
<feBlend mode="normal" in="SourceGraphic" in2="BackgroundImageFix" result="shape"/>
<feGaussianBlur stdDeviation="0.268138" result="effect1_foregroundBlur_345_12207"/>
</filter>
<filter id="filter16_f_345_12207" x="153.569" y="574.229" width="5.27958" height="5.28105" filterUnits="userSpaceOnUse" color-interpolation-filters="sRGB">
<feFlood flood-opacity="0" result="BackgroundImageFix"/>
<feBlend mode="normal" in="SourceGraphic" in2="BackgroundImageFix" result="shape"/>
<feGaussianBlur stdDeviation="0.268138" result="effect1_foregroundBlur_345_12207"/>
</filter>
<filter id="filter17_f_345_12207" x="279.304" y="386.267" width="4.88114" height="4.88359" filterUnits="userSpaceOnUse" color-interpolation-filters="sRGB">
<feFlood flood-opacity="0" result="BackgroundImageFix"/>
<feBlend mode="normal" in="SourceGraphic" in2="BackgroundImageFix" result="shape"/>
<feGaussianBlur stdDeviation="0.268138" result="effect1_foregroundBlur_345_12207"/>
</filter>
<filter id="filter18_f_345_12207" x="309.468" y="558.341" width="5.31083" height="5.30888" filterUnits="userSpaceOnUse" color-interpolation-filters="sRGB">
<feFlood flood-opacity="0" result="BackgroundImageFix"/>
<feBlend mode="normal" in="SourceGraphic" in2="BackgroundImageFix" result="shape"/>
<feGaussianBlur stdDeviation="0.268138" result="effect1_foregroundBlur_345_12207"/>
</filter>
<filter id="filter19_f_345_12207" x="111.222" y="621.102" width="5.28739" height="5.28837" filterUnits="userSpaceOnUse" color-interpolation-filters="sRGB">
<feFlood flood-opacity="0" result="BackgroundImageFix"/>
<feBlend mode="normal" in="SourceGraphic" in2="BackgroundImageFix" result="shape"/>
<feGaussianBlur stdDeviation="0.268138" result="effect1_foregroundBlur_345_12207"/>
</filter>
<filter id="filter20_f_345_12207" x="7.08872" y="592.347" width="5.34208" height="5.34404" filterUnits="userSpaceOnUse" color-interpolation-filters="sRGB">
<feFlood flood-opacity="0" result="BackgroundImageFix"/>
<feBlend mode="normal" in="SourceGraphic" in2="BackgroundImageFix" result="shape"/>
<feGaussianBlur stdDeviation="0.268138" result="effect1_foregroundBlur_345_12207"/>
</filter>
<filter id="filter21_f_345_12207" x="67.0497" y="332.294" width="4.90458" height="4.90654" filterUnits="userSpaceOnUse" color-interpolation-filters="sRGB">
<feFlood flood-opacity="0" result="BackgroundImageFix"/>
<feBlend mode="normal" in="SourceGraphic" in2="BackgroundImageFix" result="shape"/>
<feGaussianBlur stdDeviation="0.268138" result="effect1_foregroundBlur_345_12207"/>
</filter>
<filter id="filter22_f_345_12207" x="163.991" y="581.91" width="5.11943" height="5.12138" filterUnits="userSpaceOnUse" color-interpolation-filters="sRGB">
<feFlood flood-opacity="0" result="BackgroundImageFix"/>
<feBlend mode="normal" in="SourceGraphic" in2="BackgroundImageFix" result="shape"/>
<feGaussianBlur stdDeviation="0.268138" result="effect1_foregroundBlur_345_12207"/>
</filter>
<filter id="filter23_f_345_12207" x="28.1317" y="346.61" width="4.76005" height="4.76103" filterUnits="userSpaceOnUse" color-interpolation-filters="sRGB">
<feFlood flood-opacity="0" result="BackgroundImageFix"/>
<feBlend mode="normal" in="SourceGraphic" in2="BackgroundImageFix" result="shape"/>
<feGaussianBlur stdDeviation="0.268138" result="effect1_foregroundBlur_345_12207"/>
</filter>
<filter id="filter24_f_345_12207" x="188.1" y="646.155" width="5.32646" height="5.32792" filterUnits="userSpaceOnUse" color-interpolation-filters="sRGB">
<feFlood flood-opacity="0" result="BackgroundImageFix"/>
<feBlend mode="normal" in="SourceGraphic" in2="BackgroundImageFix" result="shape"/>
<feGaussianBlur stdDeviation="0.268138" result="effect1_foregroundBlur_345_12207"/>
</filter>
<filter id="filter25_f_345_12207" x="194.94" y="586.324" width="4.95536" height="4.95634" filterUnits="userSpaceOnUse" color-interpolation-filters="sRGB">
<feFlood flood-opacity="0" result="BackgroundImageFix"/>
<feBlend mode="normal" in="SourceGraphic" in2="BackgroundImageFix" result="shape"/>
<feGaussianBlur stdDeviation="0.268138" result="effect1_foregroundBlur_345_12207"/>
</filter>
<filter id="filter26_f_345_12207" x="320.874" y="520.823" width="5.10771" height="5.11064" filterUnits="userSpaceOnUse" color-interpolation-filters="sRGB">
<feFlood flood-opacity="0" result="BackgroundImageFix"/>
<feBlend mode="normal" in="SourceGraphic" in2="BackgroundImageFix" result="shape"/>
<feGaussianBlur stdDeviation="0.268138" result="effect1_foregroundBlur_345_12207"/>
</filter>
<filter id="filter27_f_345_12207" x="117.554" y="622.496" width="5.29521" height="5.29521" filterUnits="userSpaceOnUse" color-interpolation-filters="sRGB">
<feFlood flood-opacity="0" result="BackgroundImageFix"/>
<feBlend mode="normal" in="SourceGraphic" in2="BackgroundImageFix" result="shape"/>
<feGaussianBlur stdDeviation="0.268138" result="effect1_foregroundBlur_345_12207"/>
</filter>
<filter id="filter28_f_345_12207" x="342.979" y="447.885" width="4.55302" height="4.55302" filterUnits="userSpaceOnUse" color-interpolation-filters="sRGB">
<feFlood flood-opacity="0" result="BackgroundImageFix"/>
<feBlend mode="normal" in="SourceGraphic" in2="BackgroundImageFix" result="shape"/>
<feGaussianBlur stdDeviation="0.268138" result="effect1_foregroundBlur_345_12207"/>
</filter>
<filter id="filter29_f_345_12207" x="48.9442" y="401.8" width="5.28349" height="5.28251" filterUnits="userSpaceOnUse" color-interpolation-filters="sRGB">
<feFlood flood-opacity="0" result="BackgroundImageFix"/>
<feBlend mode="normal" in="SourceGraphic" in2="BackgroundImageFix" result="shape"/>
<feGaussianBlur stdDeviation="0.268138" result="effect1_foregroundBlur_345_12207"/>
</filter>
<filter id="filter30_f_345_12207" x="117.522" y="529.473" width="4.38114" height="4.38261" filterUnits="userSpaceOnUse" color-interpolation-filters="sRGB">
<feFlood flood-opacity="0" result="BackgroundImageFix"/>
<feBlend mode="normal" in="SourceGraphic" in2="BackgroundImageFix" result="shape"/>
<feGaussianBlur stdDeviation="0.268138" result="effect1_foregroundBlur_345_12207"/>
</filter>
<filter id="filter31_f_345_12207" x="368.202" y="494.418" width="5.36552" height="5.36308" filterUnits="userSpaceOnUse" color-interpolation-filters="sRGB">
<feFlood flood-opacity="0" result="BackgroundImageFix"/>
<feBlend mode="normal" in="SourceGraphic" in2="BackgroundImageFix" result="shape"/>
<feGaussianBlur stdDeviation="0.268138" result="effect1_foregroundBlur_345_12207"/>
</filter>
<filter id="filter32_f_345_12207" x="298.257" y="464.294" width="4.94364" height="4.94023" filterUnits="userSpaceOnUse" color-interpolation-filters="sRGB">
<feFlood flood-opacity="0" result="BackgroundImageFix"/>
<feBlend mode="normal" in="SourceGraphic" in2="BackgroundImageFix" result="shape"/>
<feGaussianBlur stdDeviation="0.268138" result="effect1_foregroundBlur_345_12207"/>
</filter>
<filter id="filter33_f_345_12207" x="273.847" y="580.204" width="4.74443" height="4.7415" filterUnits="userSpaceOnUse" color-interpolation-filters="sRGB">
<feFlood flood-opacity="0" result="BackgroundImageFix"/>
<feBlend mode="normal" in="SourceGraphic" in2="BackgroundImageFix" result="shape"/>
<feGaussianBlur stdDeviation="0.268138" result="effect1_foregroundBlur_345_12207"/>
</filter>
<filter id="filter34_f_345_12207" x="51.2215" y="485.919" width="4.56474" height="4.56425" filterUnits="userSpaceOnUse" color-interpolation-filters="sRGB">
<feFlood flood-opacity="0" result="BackgroundImageFix"/>
<feBlend mode="normal" in="SourceGraphic" in2="BackgroundImageFix" result="shape"/>
<feGaussianBlur stdDeviation="0.268138" result="effect1_foregroundBlur_345_12207"/>
</filter>
<filter id="filter35_f_345_12207" x="248.706" y="611.145" width="4.81083" height="4.81132" filterUnits="userSpaceOnUse" color-interpolation-filters="sRGB">
<feFlood flood-opacity="0" result="BackgroundImageFix"/>
<feBlend mode="normal" in="SourceGraphic" in2="BackgroundImageFix" result="shape"/>
<feGaussianBlur stdDeviation="0.268138" result="effect1_foregroundBlur_345_12207"/>
</filter>
<filter id="filter36_f_345_12207" x="359.768" y="607.754" width="5.36161" height="5.36161" filterUnits="userSpaceOnUse" color-interpolation-filters="sRGB">
<feFlood flood-opacity="0" result="BackgroundImageFix"/>
<feBlend mode="normal" in="SourceGraphic" in2="BackgroundImageFix" result="shape"/>
<feGaussianBlur stdDeviation="0.268138" result="effect1_foregroundBlur_345_12207"/>
</filter>
<filter id="filter37_f_345_12207" x="244.327" y="456.14" width="5.29521" height="5.29521" filterUnits="userSpaceOnUse" color-interpolation-filters="sRGB">
<feFlood flood-opacity="0" result="BackgroundImageFix"/>
<feBlend mode="normal" in="SourceGraphic" in2="BackgroundImageFix" result="shape"/>
<feGaussianBlur stdDeviation="0.268138" result="effect1_foregroundBlur_345_12207"/>
</filter>
<filter id="filter38_f_345_12207" x="147.284" y="392.531" width="4.93193" height="4.93437" filterUnits="userSpaceOnUse" color-interpolation-filters="sRGB">
<feFlood flood-opacity="0" result="BackgroundImageFix"/>
<feBlend mode="normal" in="SourceGraphic" in2="BackgroundImageFix" result="shape"/>
<feGaussianBlur stdDeviation="0.268138" result="effect1_foregroundBlur_345_12207"/>
</filter>
<filter id="filter39_f_345_12207" x="148.065" y="546.444" width="4.47099" height="4.47392" filterUnits="userSpaceOnUse" color-interpolation-filters="sRGB">
<feFlood flood-opacity="0" result="BackgroundImageFix"/>
<feBlend mode="normal" in="SourceGraphic" in2="BackgroundImageFix" result="shape"/>
<feGaussianBlur stdDeviation="0.268138" result="effect1_foregroundBlur_345_12207"/>
</filter>
<filter id="filter40_f_345_12207" x="47.1512" y="370.26" width="4.74443" height="4.7415" filterUnits="userSpaceOnUse" color-interpolation-filters="sRGB">
<feFlood flood-opacity="0" result="BackgroundImageFix"/>
<feBlend mode="normal" in="SourceGraphic" in2="BackgroundImageFix" result="shape"/>
<feGaussianBlur stdDeviation="0.268138" result="effect1_foregroundBlur_345_12207"/>
</filter>
<filter id="filter41_f_345_12207" x="129.807" y="586.529" width="5.17021" height="5.17118" filterUnits="userSpaceOnUse" color-interpolation-filters="sRGB">
<feFlood flood-opacity="0" result="BackgroundImageFix"/>
<feBlend mode="normal" in="SourceGraphic" in2="BackgroundImageFix" result="shape"/>
<feGaussianBlur stdDeviation="0.268138" result="effect1_foregroundBlur_345_12207"/>
</filter>
<filter id="filter42_f_345_12207" x="338.854" y="606.642" width="4.63896" height="4.64286" filterUnits="userSpaceOnUse" color-interpolation-filters="sRGB">
<feFlood flood-opacity="0" result="BackgroundImageFix"/>
<feBlend mode="normal" in="SourceGraphic" in2="BackgroundImageFix" result="shape"/>
<feGaussianBlur stdDeviation="0.268138" result="effect1_foregroundBlur_345_12207"/>
</filter>
<filter id="filter43_f_345_12207" x="106.956" y="410.573" width="5.29521" height="5.29618" filterUnits="userSpaceOnUse" color-interpolation-filters="sRGB">
<feFlood flood-opacity="0" result="BackgroundImageFix"/>
<feBlend mode="normal" in="SourceGraphic" in2="BackgroundImageFix" result="shape"/>
<feGaussianBlur stdDeviation="0.268138" result="effect1_foregroundBlur_345_12207"/>
</filter>
<linearGradient id="paint0_linear_345_12207" x1="187.5" y1="0" x2="187.5" y2="812" gradientUnits="userSpaceOnUse">
<stop stop-color="#0B0C1E"/>
<stop offset="0.908654" stop-color="#393084"/>
</linearGradient>
<clipPath id="clip0_345_12207">
<rect width="375" height="812" fill="white"/>
</clipPath>
</defs>
</svg>
