<svg width="375" height="812" viewBox="0 0 375 812" fill="none" xmlns="http://www.w3.org/2000/svg">
<g clip-path="url(#clip0_345_12102)">
<rect width="375" height="812" fill="url(#paint0_linear_345_12102)"/>
<g filter="url(#filter0_iif_345_12102)">
<path d="M-156.297 319.812L-138.147 351.809C-64.1678 482.227 78.8316 557.796 228.262 545.438V545.438C358.05 534.705 484.46 590.348 564.201 693.312L566.566 696.366" stroke="#8C84FB" stroke-opacity="0.8" stroke-width="53.6275"/>
</g>
<g style="mix-blend-mode:color-dodge" opacity="0.2" filter="url(#filter1_f_345_12102)">
<path d="M-156.297 319.812L-138.147 351.809C-64.1678 482.227 78.8316 557.796 228.262 545.438V545.438C358.05 534.705 484.46 590.348 564.201 693.312L566.566 696.366" stroke="#DACEFD" stroke-width="6"/>
</g>
<g opacity="0.62992" filter="url(#filter2_f_345_12102)">
<path d="M339.297 573.094L340.989 573.851L342.274 572.515L341.518 574.207L342.854 575.492L341.161 574.736L339.876 576.072L340.633 574.379L339.297 573.094Z" fill="white"/>
</g>
<g opacity="0.152704" filter="url(#filter3_f_345_12102)">
<path d="M374.787 511.798L376.591 512.229L377.607 510.678L377.175 512.481L378.726 513.497L376.923 513.066L375.907 514.617L376.338 512.814L374.787 511.798Z" fill="white"/>
</g>
<g opacity="0.367661" filter="url(#filter4_f_345_12102)">
<path d="M27.3429 314.062L26.8725 312.269L25.0257 312.104L26.8191 311.634L26.9835 309.787L27.454 311.58L29.3008 311.745L27.5073 312.215L27.3429 314.062Z" fill="white"/>
</g>
<g opacity="0.245719" filter="url(#filter5_f_345_12102)">
<path d="M261.686 449.308L261.137 451.079L262.617 452.195L260.846 451.646L259.729 453.126L260.279 451.355L258.799 450.239L260.57 450.788L261.686 449.308Z" fill="white"/>
</g>
<g opacity="0.510533" filter="url(#filter6_f_345_12102)">
<path d="M273.916 591.547L275.734 591.18L276.004 589.346L276.371 591.164L278.205 591.434L276.387 591.801L276.117 593.635L275.75 591.817L273.916 591.547Z" fill="white"/>
</g>
<g opacity="0.449485" filter="url(#filter7_f_345_12102)">
<path d="M357.406 480.553L355.643 479.979L354.507 481.445L355.08 479.681L353.615 478.545L355.378 479.118L356.514 477.653L355.941 479.416L357.406 480.553Z" fill="white"/>
</g>
<g opacity="0.670848" filter="url(#filter8_f_345_12102)">
<path d="M187.066 494.163L187.344 495.996L189.163 496.355L187.33 496.633L186.971 498.452L186.693 496.619L184.874 496.259L186.707 495.982L187.066 494.163Z" fill="white"/>
</g>
<g opacity="0.452967" filter="url(#filter9_f_345_12102)">
<path d="M370.032 505.7L371.068 504.162L369.972 502.667L371.509 503.703L373.005 502.607L371.969 504.145L373.065 505.64L371.527 504.604L370.032 505.7Z" fill="white"/>
</g>
<g opacity="0.370337" filter="url(#filter10_f_345_12102)">
<path d="M0.79933 385.506L1.96706 386.946L3.71752 386.335L2.2773 387.502L2.88861 389.253L1.72088 387.813L-0.0295778 388.424L1.41064 387.256L0.79933 385.506Z" fill="white"/>
</g>
<g opacity="0.988091" filter="url(#filter11_f_345_12102)">
<path d="M192.052 612.343L191.937 610.493L190.157 609.974L192.008 609.86L192.526 608.079L192.641 609.93L194.421 610.449L192.57 610.563L192.052 612.343Z" fill="white"/>
</g>
<g opacity="0.0105304" filter="url(#filter12_f_345_12102)">
<path d="M83.3928 618.666L81.9577 619.84L82.5768 621.588L81.4027 620.153L79.655 620.772L81.09 619.598L80.4709 617.85L81.645 619.285L83.3928 618.666Z" fill="white"/>
</g>
<g opacity="0.453668" filter="url(#filter13_f_345_12102)">
<path d="M293.136 678.35L291.777 677.089L290.13 677.941L291.391 676.582L290.539 674.935L291.898 676.196L293.545 675.344L292.284 676.703L293.136 678.35Z" fill="white"/>
</g>
<g opacity="0.721295" filter="url(#filter14_f_345_12102)">
<path d="M43.2453 316.212L41.4977 316.831L41.489 318.685L40.8696 316.937L39.0155 316.929L40.7631 316.309L40.7718 314.455L41.3912 316.203L43.2453 316.212Z" fill="white"/>
</g>
<g opacity="0.629134" filter="url(#filter15_f_345_12102)">
<path d="M211.121 458.778L209.435 458.006L208.138 459.331L208.91 457.645L207.585 456.348L209.271 457.12L210.568 455.795L209.796 457.481L211.121 458.778Z" fill="white"/>
</g>
<g opacity="0.209919" filter="url(#filter16_f_345_12102)">
<path d="M43.9245 320.87L42.0952 320.567L41.1915 322.186L41.4939 320.357L39.8749 319.453L41.7043 319.755L42.608 318.136L42.3056 319.966L43.9245 320.87Z" fill="white"/>
</g>
<g opacity="0.65706" filter="url(#filter17_f_345_12102)">
<path d="M137.972 618.802L139.825 618.876L140.522 617.158L140.448 619.011L142.166 619.707L140.313 619.633L139.616 621.352L139.69 619.499L137.972 618.802Z" fill="white"/>
</g>
<g opacity="0.203056" filter="url(#filter18_f_345_12102)">
<path d="M119.899 622.509L121.598 621.768L121.476 619.918L122.217 621.617L124.068 621.495L122.368 622.236L122.491 624.086L121.749 622.387L119.899 622.509Z" fill="white"/>
</g>
<g opacity="0.773962" filter="url(#filter19_f_345_12102)">
<path d="M112.4 553.907L110.676 553.226L109.451 554.618L110.132 552.894L108.74 551.669L110.465 552.35L111.69 550.958L111.008 552.682L112.4 553.907Z" fill="white"/>
</g>
<g opacity="0.85875" filter="url(#filter20_f_345_12102)">
<path d="M291.364 420.001L293.138 419.46L293.228 417.608L293.77 419.381L295.622 419.472L293.848 420.013L293.758 421.865L293.216 420.092L291.364 420.001Z" fill="white"/>
</g>
<g opacity="0.195966" filter="url(#filter21_f_345_12102)">
<path d="M260.228 591.467L262.082 591.509L262.748 589.778L262.707 591.632L264.437 592.298L262.583 592.257L261.917 593.987L261.958 592.134L260.228 591.467Z" fill="white"/>
</g>
<g opacity="0.067763" filter="url(#filter22_f_345_12102)">
<path d="M52.7748 580.999L54.5052 581.664L55.7175 580.262L55.0516 581.992L56.4545 583.204L54.7241 582.538L53.5117 583.941L54.1777 582.211L52.7748 580.999Z" fill="white"/>
</g>
<g opacity="0.0426653" filter="url(#filter23_f_345_12102)">
<path d="M114.633 294.154L113.517 295.635L114.532 297.186L113.052 296.07L111.5 297.085L112.617 295.605L111.601 294.053L113.082 295.17L114.633 294.154Z" fill="white"/>
</g>
<g opacity="0.01" filter="url(#filter24_f_345_12102)">
<path d="M115.987 562.133L117.598 563.051L119.007 561.846L118.09 563.457L119.295 564.866L117.684 563.948L116.275 565.153L117.193 563.542L115.987 562.133Z" fill="white"/>
</g>
<g opacity="0.0850951" filter="url(#filter25_f_345_12102)">
<path d="M73.2219 294.13L72.0036 295.527L72.9064 297.147L71.5088 295.929L69.8893 296.831L71.1076 295.434L70.2048 293.814L71.6024 295.033L73.2219 294.13Z" fill="white"/>
</g>
<g opacity="0.437286" filter="url(#filter26_f_345_12102)">
<path d="M118.552 630.16L118.453 632.011L120.162 632.731L118.31 632.632L117.591 634.341L117.689 632.489L115.981 631.77L117.832 631.868L118.552 630.16Z" fill="white"/>
</g>
<g opacity="0.0579462" filter="url(#filter27_f_345_12102)">
<path d="M146.624 576.744L145.547 578.253L146.603 579.778L145.093 578.701L143.569 579.757L144.646 578.247L143.59 576.723L145.099 577.8L146.624 576.744Z" fill="white"/>
</g>
<g opacity="0.725187" filter="url(#filter28_f_345_12102)">
<path d="M283.82 560.489L285.65 560.187L285.985 558.363L286.287 560.193L288.11 560.528L286.281 560.83L285.946 562.653L285.644 560.824L283.82 560.489Z" fill="white"/>
</g>
<g opacity="0.44025" filter="url(#filter29_f_345_12102)">
<path d="M61.9212 586.693L60.185 586.043L58.9851 587.456L59.6357 585.72L58.2221 584.52L59.9584 585.171L61.1583 583.757L60.5077 585.493L61.9212 586.693Z" fill="white"/>
</g>
<g opacity="0.260074" filter="url(#filter30_f_345_12102)">
<path d="M330.017 500.577L331.354 499.293L330.597 497.6L331.882 498.937L333.575 498.181L332.238 499.465L332.994 501.158L331.709 499.821L330.017 500.577Z" fill="white"/>
</g>
<g opacity="0.323219" filter="url(#filter31_f_345_12102)">
<path d="M70.0047 354.457L71.8587 354.433L72.4633 352.68L72.4877 354.534L74.2405 355.139L72.3865 355.163L71.7819 356.916L71.7575 355.062L70.0047 354.457Z" fill="white"/>
</g>
<g opacity="0.974196" filter="url(#filter32_f_345_12102)">
<path d="M94.0082 497.033L92.3889 497.936L92.6906 499.765L91.7875 498.146L89.9581 498.448L91.5774 497.545L91.2757 495.715L92.1788 497.335L94.0082 497.033Z" fill="white"/>
</g>
<g opacity="0.480992" filter="url(#filter33_f_345_12102)">
<path d="M341.596 553.032L339.772 552.697L338.84 554.3L339.175 552.476L337.572 551.544L339.396 551.879L340.328 550.276L339.993 552.1L341.596 553.032Z" fill="white"/>
</g>
<g opacity="0.250052" filter="url(#filter34_f_345_12102)">
<path d="M282.734 501.029L283.824 499.529L282.781 497.996L284.281 499.086L285.815 498.044L284.725 499.544L285.767 501.077L284.267 499.987L282.734 501.029Z" fill="white"/>
</g>
<g opacity="0.687632" filter="url(#filter35_f_345_12102)">
<path d="M219.5 601.031L220.731 599.644L219.842 598.017L221.229 599.248L222.856 598.359L221.626 599.746L222.514 601.373L221.127 600.143L219.5 601.031Z" fill="white"/>
</g>
<g opacity="0.630803" filter="url(#filter36_f_345_12102)">
<path d="M43.7153 432.266L45.0057 433.597L46.6953 432.833L45.364 434.124L46.1276 435.813L44.8371 434.482L43.1476 435.246L44.4789 433.955L43.7153 432.266Z" fill="white"/>
</g>
<g opacity="0.82363" filter="url(#filter37_f_345_12102)">
<path d="M373.548 524.766L371.812 525.417L371.836 527.271L371.186 525.534L369.332 525.558L371.068 524.908L371.044 523.054L371.694 524.791L373.548 524.766Z" fill="white"/>
</g>
<g opacity="0.300281" filter="url(#filter38_f_345_12102)">
<path d="M184.781 620.401L186.534 619.797L186.559 617.943L187.163 619.696L189.017 619.721L187.264 620.325L187.239 622.179L186.635 620.426L184.781 620.401Z" fill="white"/>
</g>
<g opacity="0.830366" filter="url(#filter39_f_345_12102)">
<path d="M291.642 657.687L292.017 655.871L290.435 654.904L292.251 655.279L293.218 653.697L292.843 655.513L294.425 656.48L292.609 656.105L291.642 657.687Z" fill="white"/>
</g>
<g opacity="0.915025" filter="url(#filter40_f_345_12102)">
<path d="M238.456 474.527L236.72 473.877L235.52 475.29L236.171 473.554L234.757 472.354L236.494 473.005L237.693 471.591L237.043 473.327L238.456 474.527Z" fill="white"/>
</g>
<g opacity="0.215568" filter="url(#filter41_f_345_12102)">
<path d="M169.618 379.722L167.831 380.216L167.691 382.065L167.197 380.278L165.348 380.138L167.135 379.644L167.275 377.795L167.769 379.582L169.618 379.722Z" fill="white"/>
</g>
<g opacity="0.568229" filter="url(#filter42_f_345_12102)">
<path d="M113.647 522.481L114.89 523.857L116.606 523.154L115.229 524.396L115.933 526.112L114.69 524.736L112.975 525.439L114.351 524.196L113.647 522.481Z" fill="white"/>
</g>
<g opacity="0.885141" filter="url(#filter43_f_345_12102)">
<path d="M79.5272 325.577L80.7579 324.19L79.8694 322.562L81.2563 323.793L82.8837 322.905L81.6531 324.291L82.5415 325.919L81.1547 324.688L79.5272 325.577Z" fill="white"/>
</g>
<g opacity="0.405558" filter="url(#filter44_f_345_12102)">
<path d="M86.1279 556.142L84.2869 556.363L83.8715 558.17L83.6508 556.329L81.8438 555.913L83.6847 555.693L84.1001 553.886L84.3209 555.727L86.1279 556.142Z" fill="white"/>
</g>
<g opacity="0.523745" filter="url(#filter45_f_345_12102)">
<path d="M273.476 649.029L272.742 647.327L270.892 647.441L272.594 646.707L272.48 644.856L273.214 646.559L275.064 646.445L273.362 647.179L273.476 649.029Z" fill="white"/>
</g>
<g opacity="0.477541" filter="url(#filter46_f_345_12102)">
<path d="M121.402 382.746L123.256 382.755L123.891 381.013L123.883 382.867L125.625 383.503L123.77 383.494L123.135 385.236L123.143 383.382L121.402 382.746Z" fill="white"/>
</g>
</g>
<defs>
<filter id="filter0_iif_345_12102" x="-243.974" y="242.229" width="896.093" height="534.908" filterUnits="userSpaceOnUse" color-interpolation-filters="sRGB">
<feFlood flood-opacity="0" result="BackgroundImageFix"/>
<feBlend mode="normal" in="SourceGraphic" in2="BackgroundImageFix" result="shape"/>
<feColorMatrix in="SourceAlpha" type="matrix" values="0 0 0 0 0 0 0 0 0 0 0 0 0 0 0 0 0 0 127 0" result="hardAlpha"/>
<feOffset dy="2.1451"/>
<feGaussianBlur stdDeviation="22.7917"/>
<feComposite in2="hardAlpha" operator="arithmetic" k2="-1" k3="1"/>
<feColorMatrix type="matrix" values="0 0 0 0 0.208333 0 0 0 0 0 0 0 0 0 1 0 0 0 1 0"/>
<feBlend mode="color-burn" in2="shape" result="effect1_innerShadow_345_12102"/>
<feColorMatrix in="SourceAlpha" type="matrix" values="0 0 0 0 0 0 0 0 0 0 0 0 0 0 0 0 0 0 127 0" result="hardAlpha"/>
<feOffset/>
<feGaussianBlur stdDeviation="9.38482"/>
<feComposite in2="hardAlpha" operator="arithmetic" k2="-1" k3="1"/>
<feColorMatrix type="matrix" values="0 0 0 0 1 0 0 0 0 0 0 0 0 0 0.84 0 0 0 1 0"/>
<feBlend mode="color-dodge" in2="effect1_innerShadow_345_12102" result="effect2_innerShadow_345_12102"/>
<feGaussianBlur stdDeviation="32.1765" result="effect3_foregroundBlur_345_12102"/>
</filter>
<filter id="filter1_f_345_12102" x="-183.039" y="294.199" width="776.109" height="428.136" filterUnits="userSpaceOnUse" color-interpolation-filters="sRGB">
<feFlood flood-opacity="0" result="BackgroundImageFix"/>
<feBlend mode="normal" in="SourceGraphic" in2="BackgroundImageFix" result="shape"/>
<feGaussianBlur stdDeviation="12.0662" result="effect1_foregroundBlur_345_12102"/>
</filter>
<filter id="filter2_f_345_12102" x="338.761" y="571.978" width="4.63114" height="4.63017" filterUnits="userSpaceOnUse" color-interpolation-filters="sRGB">
<feFlood flood-opacity="0" result="BackgroundImageFix"/>
<feBlend mode="normal" in="SourceGraphic" in2="BackgroundImageFix" result="shape"/>
<feGaussianBlur stdDeviation="0.268138" result="effect1_foregroundBlur_345_12102"/>
</filter>
<filter id="filter3_f_345_12102" x="374.253" y="510.142" width="5.01005" height="5.01152" filterUnits="userSpaceOnUse" color-interpolation-filters="sRGB">
<feFlood flood-opacity="0" result="BackgroundImageFix"/>
<feBlend mode="normal" in="SourceGraphic" in2="BackgroundImageFix" result="shape"/>
<feGaussianBlur stdDeviation="0.268138" result="effect1_foregroundBlur_345_12102"/>
</filter>
<filter id="filter4_f_345_12102" x="24.4911" y="309.251" width="5.34599" height="5.34745" filterUnits="userSpaceOnUse" color-interpolation-filters="sRGB">
<feFlood flood-opacity="0" result="BackgroundImageFix"/>
<feBlend mode="normal" in="SourceGraphic" in2="BackgroundImageFix" result="shape"/>
<feGaussianBlur stdDeviation="0.268138" result="effect1_foregroundBlur_345_12102"/>
</filter>
<filter id="filter5_f_345_12102" x="258.265" y="448.772" width="4.88896" height="4.89042" filterUnits="userSpaceOnUse" color-interpolation-filters="sRGB">
<feFlood flood-opacity="0" result="BackgroundImageFix"/>
<feBlend mode="normal" in="SourceGraphic" in2="BackgroundImageFix" result="shape"/>
<feGaussianBlur stdDeviation="0.268138" result="effect1_foregroundBlur_345_12102"/>
</filter>
<filter id="filter6_f_345_12102" x="273.382" y="588.81" width="5.35771" height="5.36112" filterUnits="userSpaceOnUse" color-interpolation-filters="sRGB">
<feFlood flood-opacity="0" result="BackgroundImageFix"/>
<feBlend mode="normal" in="SourceGraphic" in2="BackgroundImageFix" result="shape"/>
<feGaussianBlur stdDeviation="0.268138" result="effect1_foregroundBlur_345_12102"/>
</filter>
<filter id="filter7_f_345_12102" x="353.077" y="477.117" width="4.86552" height="4.86405" filterUnits="userSpaceOnUse" color-interpolation-filters="sRGB">
<feFlood flood-opacity="0" result="BackgroundImageFix"/>
<feBlend mode="normal" in="SourceGraphic" in2="BackgroundImageFix" result="shape"/>
<feGaussianBlur stdDeviation="0.268138" result="effect1_foregroundBlur_345_12102"/>
</filter>
<filter id="filter8_f_345_12102" x="184.339" y="493.626" width="5.36161" height="5.36161" filterUnits="userSpaceOnUse" color-interpolation-filters="sRGB">
<feFlood flood-opacity="0" result="BackgroundImageFix"/>
<feBlend mode="normal" in="SourceGraphic" in2="BackgroundImageFix" result="shape"/>
<feGaussianBlur stdDeviation="0.268138" result="effect1_foregroundBlur_345_12102"/>
</filter>
<filter id="filter9_f_345_12102" x="369.436" y="502.071" width="4.1663" height="4.16532" filterUnits="userSpaceOnUse" color-interpolation-filters="sRGB">
<feFlood flood-opacity="0" result="BackgroundImageFix"/>
<feBlend mode="normal" in="SourceGraphic" in2="BackgroundImageFix" result="shape"/>
<feGaussianBlur stdDeviation="0.268138" result="effect1_foregroundBlur_345_12102"/>
</filter>
<filter id="filter10_f_345_12102" x="-0.567525" y="384.97" width="4.82255" height="4.81962" filterUnits="userSpaceOnUse" color-interpolation-filters="sRGB">
<feFlood flood-opacity="0" result="BackgroundImageFix"/>
<feBlend mode="normal" in="SourceGraphic" in2="BackgroundImageFix" result="shape"/>
<feGaussianBlur stdDeviation="0.268138" result="effect1_foregroundBlur_345_12102"/>
</filter>
<filter id="filter11_f_345_12102" x="189.62" y="607.543" width="5.33818" height="5.33622" filterUnits="userSpaceOnUse" color-interpolation-filters="sRGB">
<feFlood flood-opacity="0" result="BackgroundImageFix"/>
<feBlend mode="normal" in="SourceGraphic" in2="BackgroundImageFix" result="shape"/>
<feGaussianBlur stdDeviation="0.268138" result="effect1_foregroundBlur_345_12102"/>
</filter>
<filter id="filter12_f_345_12102" x="79.12" y="617.314" width="4.81083" height="4.81034" filterUnits="userSpaceOnUse" color-interpolation-filters="sRGB">
<feFlood flood-opacity="0" result="BackgroundImageFix"/>
<feBlend mode="normal" in="SourceGraphic" in2="BackgroundImageFix" result="shape"/>
<feGaussianBlur stdDeviation="0.268138" result="effect1_foregroundBlur_345_12102"/>
</filter>
<filter id="filter13_f_345_12102" x="289.593" y="674.399" width="4.49052" height="4.4871" filterUnits="userSpaceOnUse" color-interpolation-filters="sRGB">
<feFlood flood-opacity="0" result="BackgroundImageFix"/>
<feBlend mode="normal" in="SourceGraphic" in2="BackgroundImageFix" result="shape"/>
<feGaussianBlur stdDeviation="0.268138" result="effect1_foregroundBlur_345_12102"/>
</filter>
<filter id="filter14_f_345_12102" x="38.4793" y="313.919" width="5.30302" height="5.30253" filterUnits="userSpaceOnUse" color-interpolation-filters="sRGB">
<feFlood flood-opacity="0" result="BackgroundImageFix"/>
<feBlend mode="normal" in="SourceGraphic" in2="BackgroundImageFix" result="shape"/>
<feGaussianBlur stdDeviation="0.268138" result="effect1_foregroundBlur_345_12102"/>
</filter>
<filter id="filter15_f_345_12102" x="207.05" y="455.259" width="4.60771" height="4.60868" filterUnits="userSpaceOnUse" color-interpolation-filters="sRGB">
<feFlood flood-opacity="0" result="BackgroundImageFix"/>
<feBlend mode="normal" in="SourceGraphic" in2="BackgroundImageFix" result="shape"/>
<feGaussianBlur stdDeviation="0.268138" result="effect1_foregroundBlur_345_12102"/>
</filter>
<filter id="filter16_f_345_12102" x="39.3387" y="317.6" width="5.12333" height="5.12236" filterUnits="userSpaceOnUse" color-interpolation-filters="sRGB">
<feFlood flood-opacity="0" result="BackgroundImageFix"/>
<feBlend mode="normal" in="SourceGraphic" in2="BackgroundImageFix" result="shape"/>
<feGaussianBlur stdDeviation="0.268138" result="effect1_foregroundBlur_345_12102"/>
</filter>
<filter id="filter17_f_345_12102" x="137.436" y="616.621" width="5.26396" height="5.2664" filterUnits="userSpaceOnUse" color-interpolation-filters="sRGB">
<feFlood flood-opacity="0" result="BackgroundImageFix"/>
<feBlend mode="normal" in="SourceGraphic" in2="BackgroundImageFix" result="shape"/>
<feGaussianBlur stdDeviation="0.268138" result="effect1_foregroundBlur_345_12102"/>
</filter>
<filter id="filter18_f_345_12102" x="119.362" y="619.382" width="5.24052" height="5.24101" filterUnits="userSpaceOnUse" color-interpolation-filters="sRGB">
<feFlood flood-opacity="0" result="BackgroundImageFix"/>
<feBlend mode="normal" in="SourceGraphic" in2="BackgroundImageFix" result="shape"/>
<feGaussianBlur stdDeviation="0.268138" result="effect1_foregroundBlur_345_12102"/>
</filter>
<filter id="filter19_f_345_12102" x="108.206" y="550.422" width="4.7288" height="4.73271" filterUnits="userSpaceOnUse" color-interpolation-filters="sRGB">
<feFlood flood-opacity="0" result="BackgroundImageFix"/>
<feBlend mode="normal" in="SourceGraphic" in2="BackgroundImageFix" result="shape"/>
<feGaussianBlur stdDeviation="0.268138" result="effect1_foregroundBlur_345_12102"/>
</filter>
<filter id="filter20_f_345_12102" x="290.827" y="417.072" width="5.33036" height="5.32987" filterUnits="userSpaceOnUse" color-interpolation-filters="sRGB">
<feFlood flood-opacity="0" result="BackgroundImageFix"/>
<feBlend mode="normal" in="SourceGraphic" in2="BackgroundImageFix" result="shape"/>
<feGaussianBlur stdDeviation="0.268138" result="effect1_foregroundBlur_345_12102"/>
</filter>
<filter id="filter21_f_345_12102" x="259.69" y="589.242" width="5.28349" height="5.28154" filterUnits="userSpaceOnUse" color-interpolation-filters="sRGB">
<feFlood flood-opacity="0" result="BackgroundImageFix"/>
<feBlend mode="normal" in="SourceGraphic" in2="BackgroundImageFix" result="shape"/>
<feGaussianBlur stdDeviation="0.268138" result="effect1_foregroundBlur_345_12102"/>
</filter>
<filter id="filter22_f_345_12102" x="52.2372" y="579.725" width="4.75224" height="4.75224" filterUnits="userSpaceOnUse" color-interpolation-filters="sRGB">
<feFlood flood-opacity="0" result="BackgroundImageFix"/>
<feBlend mode="normal" in="SourceGraphic" in2="BackgroundImageFix" result="shape"/>
<feGaussianBlur stdDeviation="0.268138" result="effect1_foregroundBlur_345_12102"/>
</filter>
<filter id="filter23_f_345_12102" x="110.964" y="293.517" width="4.20536" height="4.20585" filterUnits="userSpaceOnUse" color-interpolation-filters="sRGB">
<feFlood flood-opacity="0" result="BackgroundImageFix"/>
<feBlend mode="normal" in="SourceGraphic" in2="BackgroundImageFix" result="shape"/>
<feGaussianBlur stdDeviation="0.268138" result="effect1_foregroundBlur_345_12102"/>
</filter>
<filter id="filter24_f_345_12102" x="115.452" y="561.309" width="4.37724" height="4.38017" filterUnits="userSpaceOnUse" color-interpolation-filters="sRGB">
<feFlood flood-opacity="0" result="BackgroundImageFix"/>
<feBlend mode="normal" in="SourceGraphic" in2="BackgroundImageFix" result="shape"/>
<feGaussianBlur stdDeviation="0.268138" result="effect1_foregroundBlur_345_12102"/>
</filter>
<filter id="filter25_f_345_12102" x="69.3543" y="293.278" width="4.40458" height="4.40507" filterUnits="userSpaceOnUse" color-interpolation-filters="sRGB">
<feFlood flood-opacity="0" result="BackgroundImageFix"/>
<feBlend mode="normal" in="SourceGraphic" in2="BackgroundImageFix" result="shape"/>
<feGaussianBlur stdDeviation="0.268138" result="effect1_foregroundBlur_345_12102"/>
</filter>
<filter id="filter26_f_345_12102" x="115.444" y="629.623" width="5.25224" height="5.2537" filterUnits="userSpaceOnUse" color-interpolation-filters="sRGB">
<feFlood flood-opacity="0" result="BackgroundImageFix"/>
<feBlend mode="normal" in="SourceGraphic" in2="BackgroundImageFix" result="shape"/>
<feGaussianBlur stdDeviation="0.268138" result="effect1_foregroundBlur_345_12102"/>
</filter>
<filter id="filter27_f_345_12102" x="143.034" y="576.187" width="4.12724" height="4.12675" filterUnits="userSpaceOnUse" color-interpolation-filters="sRGB">
<feFlood flood-opacity="0" result="BackgroundImageFix"/>
<feBlend mode="normal" in="SourceGraphic" in2="BackgroundImageFix" result="shape"/>
<feGaussianBlur stdDeviation="0.268138" result="effect1_foregroundBlur_345_12102"/>
</filter>
<filter id="filter28_f_345_12102" x="283.284" y="557.827" width="5.36161" height="5.36259" filterUnits="userSpaceOnUse" color-interpolation-filters="sRGB">
<feFlood flood-opacity="0" result="BackgroundImageFix"/>
<feBlend mode="normal" in="SourceGraphic" in2="BackgroundImageFix" result="shape"/>
<feGaussianBlur stdDeviation="0.268138" result="effect1_foregroundBlur_345_12102"/>
</filter>
<filter id="filter29_f_345_12102" x="57.6864" y="583.221" width="4.77177" height="4.77128" filterUnits="userSpaceOnUse" color-interpolation-filters="sRGB">
<feFlood flood-opacity="0" result="BackgroundImageFix"/>
<feBlend mode="normal" in="SourceGraphic" in2="BackgroundImageFix" result="shape"/>
<feGaussianBlur stdDeviation="0.268138" result="effect1_foregroundBlur_345_12102"/>
</filter>
<filter id="filter30_f_345_12102" x="329.479" y="497.063" width="4.63114" height="4.63114" filterUnits="userSpaceOnUse" color-interpolation-filters="sRGB">
<feFlood flood-opacity="0" result="BackgroundImageFix"/>
<feBlend mode="normal" in="SourceGraphic" in2="BackgroundImageFix" result="shape"/>
<feGaussianBlur stdDeviation="0.268138" result="effect1_foregroundBlur_345_12102"/>
</filter>
<filter id="filter31_f_345_12102" x="69.4676" y="352.144" width="5.31083" height="5.30839" filterUnits="userSpaceOnUse" color-interpolation-filters="sRGB">
<feFlood flood-opacity="0" result="BackgroundImageFix"/>
<feBlend mode="normal" in="SourceGraphic" in2="BackgroundImageFix" result="shape"/>
<feGaussianBlur stdDeviation="0.268138" result="effect1_foregroundBlur_345_12102"/>
</filter>
<filter id="filter32_f_345_12102" x="89.4208" y="495.179" width="5.12333" height="5.12284" filterUnits="userSpaceOnUse" color-interpolation-filters="sRGB">
<feFlood flood-opacity="0" result="BackgroundImageFix"/>
<feBlend mode="normal" in="SourceGraphic" in2="BackgroundImageFix" result="shape"/>
<feGaussianBlur stdDeviation="0.268138" result="effect1_foregroundBlur_345_12102"/>
</filter>
<filter id="filter33_f_345_12102" x="337.034" y="549.74" width="5.09989" height="5.09648" filterUnits="userSpaceOnUse" color-interpolation-filters="sRGB">
<feFlood flood-opacity="0" result="BackgroundImageFix"/>
<feBlend mode="normal" in="SourceGraphic" in2="BackgroundImageFix" result="shape"/>
<feGaussianBlur stdDeviation="0.268138" result="effect1_foregroundBlur_345_12102"/>
</filter>
<filter id="filter34_f_345_12102" x="282.198" y="497.46" width="4.15458" height="4.15361" filterUnits="userSpaceOnUse" color-interpolation-filters="sRGB">
<feFlood flood-opacity="0" result="BackgroundImageFix"/>
<feBlend mode="normal" in="SourceGraphic" in2="BackgroundImageFix" result="shape"/>
<feGaussianBlur stdDeviation="0.268138" result="effect1_foregroundBlur_345_12102"/>
</filter>
<filter id="filter35_f_345_12102" x="218.964" y="597.481" width="4.42802" height="4.429" filterUnits="userSpaceOnUse" color-interpolation-filters="sRGB">
<feFlood flood-opacity="0" result="BackgroundImageFix"/>
<feBlend mode="normal" in="SourceGraphic" in2="BackgroundImageFix" result="shape"/>
<feGaussianBlur stdDeviation="0.268138" result="effect1_foregroundBlur_345_12102"/>
</filter>
<filter id="filter36_f_345_12102" x="42.6122" y="431.729" width="4.61943" height="4.6204" filterUnits="userSpaceOnUse" color-interpolation-filters="sRGB">
<feFlood flood-opacity="0" result="BackgroundImageFix"/>
<feBlend mode="normal" in="SourceGraphic" in2="BackgroundImageFix" result="shape"/>
<feGaussianBlur stdDeviation="0.268138" result="effect1_foregroundBlur_345_12102"/>
</filter>
<filter id="filter37_f_345_12102" x="368.796" y="522.518" width="5.28739" height="5.28886" filterUnits="userSpaceOnUse" color-interpolation-filters="sRGB">
<feFlood flood-opacity="0" result="BackgroundImageFix"/>
<feBlend mode="normal" in="SourceGraphic" in2="BackgroundImageFix" result="shape"/>
<feGaussianBlur stdDeviation="0.268138" result="effect1_foregroundBlur_345_12102"/>
</filter>
<filter id="filter38_f_345_12102" x="184.245" y="617.407" width="5.30693" height="5.30839" filterUnits="userSpaceOnUse" color-interpolation-filters="sRGB">
<feFlood flood-opacity="0" result="BackgroundImageFix"/>
<feBlend mode="normal" in="SourceGraphic" in2="BackgroundImageFix" result="shape"/>
<feGaussianBlur stdDeviation="0.268138" result="effect1_foregroundBlur_345_12102"/>
</filter>
<filter id="filter39_f_345_12102" x="289.897" y="653.161" width="5.06474" height="5.06279" filterUnits="userSpaceOnUse" color-interpolation-filters="sRGB">
<feFlood flood-opacity="0" result="BackgroundImageFix"/>
<feBlend mode="normal" in="SourceGraphic" in2="BackgroundImageFix" result="shape"/>
<feGaussianBlur stdDeviation="0.268138" result="effect1_foregroundBlur_345_12102"/>
</filter>
<filter id="filter40_f_345_12102" x="234.222" y="471.055" width="4.77177" height="4.77128" filterUnits="userSpaceOnUse" color-interpolation-filters="sRGB">
<feFlood flood-opacity="0" result="BackgroundImageFix"/>
<feBlend mode="normal" in="SourceGraphic" in2="BackgroundImageFix" result="shape"/>
<feGaussianBlur stdDeviation="0.268138" result="effect1_foregroundBlur_345_12102"/>
</filter>
<filter id="filter41_f_345_12102" x="164.811" y="377.259" width="5.34208" height="5.34257" filterUnits="userSpaceOnUse" color-interpolation-filters="sRGB">
<feFlood flood-opacity="0" result="BackgroundImageFix"/>
<feBlend mode="normal" in="SourceGraphic" in2="BackgroundImageFix" result="shape"/>
<feGaussianBlur stdDeviation="0.268138" result="effect1_foregroundBlur_345_12102"/>
</filter>
<filter id="filter42_f_345_12102" x="112.44" y="521.945" width="4.70146" height="4.70341" filterUnits="userSpaceOnUse" color-interpolation-filters="sRGB">
<feFlood flood-opacity="0" result="BackgroundImageFix"/>
<feBlend mode="normal" in="SourceGraphic" in2="BackgroundImageFix" result="shape"/>
<feGaussianBlur stdDeviation="0.268138" result="effect1_foregroundBlur_345_12102"/>
</filter>
<filter id="filter43_f_345_12102" x="78.9911" y="322.026" width="4.42802" height="4.429" filterUnits="userSpaceOnUse" color-interpolation-filters="sRGB">
<feFlood flood-opacity="0" result="BackgroundImageFix"/>
<feBlend mode="normal" in="SourceGraphic" in2="BackgroundImageFix" result="shape"/>
<feGaussianBlur stdDeviation="0.268138" result="effect1_foregroundBlur_345_12102"/>
</filter>
<filter id="filter44_f_345_12102" x="81.3075" y="553.349" width="5.35771" height="5.35673" filterUnits="userSpaceOnUse" color-interpolation-filters="sRGB">
<feFlood flood-opacity="0" result="BackgroundImageFix"/>
<feBlend mode="normal" in="SourceGraphic" in2="BackgroundImageFix" result="shape"/>
<feGaussianBlur stdDeviation="0.268138" result="effect1_foregroundBlur_345_12102"/>
</filter>
<filter id="filter45_f_345_12102" x="270.354" y="644.32" width="5.24833" height="5.2454" filterUnits="userSpaceOnUse" color-interpolation-filters="sRGB">
<feFlood flood-opacity="0" result="BackgroundImageFix"/>
<feBlend mode="normal" in="SourceGraphic" in2="BackgroundImageFix" result="shape"/>
<feGaussianBlur stdDeviation="0.268138" result="effect1_foregroundBlur_345_12102"/>
</filter>
<filter id="filter46_f_345_12102" x="120.866" y="380.477" width="5.29521" height="5.29521" filterUnits="userSpaceOnUse" color-interpolation-filters="sRGB">
<feFlood flood-opacity="0" result="BackgroundImageFix"/>
<feBlend mode="normal" in="SourceGraphic" in2="BackgroundImageFix" result="shape"/>
<feGaussianBlur stdDeviation="0.268138" result="effect1_foregroundBlur_345_12102"/>
</filter>
<linearGradient id="paint0_linear_345_12102" x1="187.5" y1="0" x2="187.5" y2="812" gradientUnits="userSpaceOnUse">
<stop stop-color="#0B0C1E"/>
<stop offset="0.908654" stop-color="#393084"/>
</linearGradient>
<clipPath id="clip0_345_12102">
<rect width="375" height="812" fill="white"/>
</clipPath>
</defs>
</svg>
