<svg width="375" height="812" viewBox="0 0 375 812" fill="none" xmlns="http://www.w3.org/2000/svg">
<g clip-path="url(#clip0_345_11884)">
<rect width="375" height="812" fill="url(#paint0_linear_345_11884)"/>
<g filter="url(#filter0_iif_345_11884)">
<path d="M-180.215 183.357L-162.065 215.354C-88.0858 345.773 54.9136 421.341 204.344 408.983V408.983C334.132 398.25 460.542 453.893 540.283 556.857L542.648 559.911" stroke="#8C84FB" stroke-opacity="0.8" stroke-width="53.6275"/>
</g>
<g style="mix-blend-mode:color-dodge" opacity="0.2" filter="url(#filter1_f_345_11884)">
<path d="M-180.215 183.357L-162.065 215.354C-88.0858 345.773 54.9136 421.341 204.344 408.983V408.983C334.132 398.25 460.542 453.893 540.283 556.857L542.648 559.911" stroke="#DACEFD" stroke-width="6"/>
</g>
<g opacity="0.62992" filter="url(#filter2_f_345_11884)">
<path d="M315.379 436.64L317.071 437.397L318.356 436.06L317.6 437.753L318.936 439.038L317.243 438.281L315.958 439.617L316.715 437.925L315.379 436.64Z" fill="white"/>
</g>
<g opacity="0.152704" filter="url(#filter3_f_345_11884)">
<path d="M350.869 375.343L352.673 375.774L353.689 374.223L353.258 376.027L354.809 377.043L353.005 376.612L351.989 378.163L352.42 376.359L350.869 375.343Z" fill="white"/>
</g>
<g opacity="0.367661" filter="url(#filter4_f_345_11884)">
<path d="M3.42494 177.607L2.95453 175.814L1.10769 175.65L2.90116 175.179L3.06558 173.332L3.53599 175.126L5.38282 175.29L3.58935 175.761L3.42494 177.607Z" fill="white"/>
</g>
<g opacity="0.245719" filter="url(#filter5_f_345_11884)">
<path d="M237.768 312.853L237.219 314.624L238.699 315.741L236.928 315.191L235.811 316.671L236.361 314.901L234.881 313.784L236.652 314.334L237.768 312.853Z" fill="white"/>
</g>
<g opacity="0.510533" filter="url(#filter6_f_345_11884)">
<path d="M249.998 455.092L251.816 454.726L252.086 452.892L252.453 454.709L254.287 454.979L252.469 455.346L252.199 457.18L251.832 455.363L249.998 455.092Z" fill="white"/>
</g>
<g opacity="0.449485" filter="url(#filter7_f_345_11884)">
<path d="M333.488 344.098L331.725 343.525L330.589 344.99L331.162 343.227L329.697 342.09L331.46 342.664L332.596 341.198L332.023 342.962L333.488 344.098Z" fill="white"/>
</g>
<g opacity="0.670848" filter="url(#filter8_f_345_11884)">
<path d="M163.148 357.708L163.426 359.541L165.245 359.9L163.412 360.178L163.053 361.997L162.775 360.164L160.956 359.805L162.789 359.527L163.148 357.708Z" fill="white"/>
</g>
<g opacity="0.125897" filter="url(#filter9_f_345_11884)">
<path d="M375.729 474.803L374.079 475.648L374.316 477.487L373.47 475.837L371.631 476.074L373.282 475.229L373.045 473.39L373.89 475.04L375.729 474.803Z" fill="white"/>
</g>
<g opacity="0.452967" filter="url(#filter10_f_345_11884)">
<path d="M346.114 369.245L347.15 367.708L346.054 366.212L347.592 367.249L349.087 366.152L348.051 367.69L349.147 369.186L347.609 368.149L346.114 369.245Z" fill="white"/>
</g>
<g opacity="0.530854" filter="url(#filter11_f_345_11884)">
<path d="M375.342 535.863L373.499 535.658L372.682 537.323L372.887 535.48L371.223 534.664L373.065 534.869L373.882 533.204L373.677 535.047L375.342 535.863Z" fill="white"/>
</g>
<g opacity="0.988091" filter="url(#filter12_f_345_11884)">
<path d="M168.134 475.889L168.019 474.038L166.239 473.52L168.09 473.405L168.608 471.625L168.723 473.475L170.503 473.994L168.652 474.109L168.134 475.889Z" fill="white"/>
</g>
<g opacity="0.0105304" filter="url(#filter13_f_345_11884)">
<path d="M59.4748 482.212L58.0398 483.386L58.6588 485.134L57.4847 483.698L55.737 484.318L57.172 483.143L56.553 481.396L57.7271 482.831L59.4748 482.212Z" fill="white"/>
</g>
<g opacity="0.453668" filter="url(#filter14_f_345_11884)">
<path d="M269.218 541.895L267.859 540.634L266.212 541.486L267.473 540.127L266.621 538.481L267.981 539.742L269.627 538.889L268.366 540.249L269.218 541.895Z" fill="white"/>
</g>
<g opacity="0.721295" filter="url(#filter15_f_345_11884)">
<path d="M19.3273 179.757L17.5797 180.376L17.571 182.231L16.9516 180.483L15.0975 180.474L16.8451 179.855L16.8538 178.001L17.4732 179.748L19.3273 179.757Z" fill="white"/>
</g>
<g opacity="0.629134" filter="url(#filter16_f_345_11884)">
<path d="M187.203 322.323L185.517 321.551L184.221 322.877L184.992 321.191L183.667 319.894L185.353 320.666L186.65 319.34L185.878 321.026L187.203 322.323Z" fill="white"/>
</g>
<g opacity="0.209919" filter="url(#filter17_f_345_11884)">
<path d="M20.0066 184.415L18.1773 184.113L17.2735 185.731L17.5759 183.902L15.957 182.998L17.7863 183.301L18.69 181.682L18.3876 183.511L20.0066 184.415Z" fill="white"/>
</g>
<g opacity="0.65706" filter="url(#filter18_f_345_11884)">
<path d="M114.054 482.348L115.907 482.422L116.604 480.703L116.53 482.556L118.248 483.253L116.395 483.179L115.698 484.897L115.772 483.044L114.054 482.348Z" fill="white"/>
</g>
<g opacity="0.203056" filter="url(#filter19_f_345_11884)">
<path d="M95.981 486.055L97.6805 485.313L97.558 483.463L98.2995 485.163L100.15 485.04L98.4501 485.782L98.5725 487.632L97.8311 485.932L95.981 486.055Z" fill="white"/>
</g>
<g opacity="0.773962" filter="url(#filter20_f_345_11884)">
<path d="M88.4824 417.453L86.758 416.771L85.5333 418.163L86.2145 416.439L84.8224 415.214L86.5468 415.896L87.7715 414.503L87.0903 416.228L88.4824 417.453Z" fill="white"/>
</g>
<g opacity="0.85875" filter="url(#filter21_f_345_11884)">
<path d="M267.446 283.547L269.22 283.005L269.31 281.153L269.852 282.927L271.704 283.017L269.93 283.559L269.84 285.411L269.298 283.637L267.446 283.547Z" fill="white"/>
</g>
<g opacity="0.195966" filter="url(#filter22_f_345_11884)">
<path d="M236.31 455.013L238.164 455.054L238.83 453.324L238.789 455.177L240.519 455.844L238.665 455.802L237.999 457.533L238.04 455.679L236.31 455.013Z" fill="white"/>
</g>
<g opacity="0.067763" filter="url(#filter23_f_345_11884)">
<path d="M28.8568 444.544L30.5872 445.21L31.7996 443.807L31.1336 445.537L32.5365 446.75L30.8061 446.084L29.5938 447.487L30.2597 445.756L28.8568 444.544Z" fill="white"/>
</g>
<g opacity="0.0426653" filter="url(#filter24_f_345_11884)">
<path d="M90.7154 157.7L89.599 159.18L90.6141 160.732L89.1337 159.615L87.5822 160.631L88.6986 159.15L87.6834 157.599L89.1638 158.715L90.7154 157.7Z" fill="white"/>
</g>
<g opacity="0.01" filter="url(#filter25_f_345_11884)">
<path d="M92.0693 425.679L93.6804 426.596L95.0893 425.391L94.1715 427.002L95.3769 428.411L93.7658 427.493L92.3569 428.699L93.2747 427.088L92.0693 425.679Z" fill="white"/>
</g>
<g opacity="0.0850951" filter="url(#filter26_f_345_11884)">
<path d="M49.304 157.675L48.0857 159.073L48.9885 160.692L47.5908 159.474L45.9713 160.377L47.1896 158.979L46.2868 157.36L47.6845 158.578L49.304 157.675Z" fill="white"/>
</g>
<g opacity="0.437286" filter="url(#filter27_f_345_11884)">
<path d="M94.6336 493.705L94.5349 495.557L96.2438 496.276L94.3923 496.177L93.6727 497.886L93.7714 496.035L92.0625 495.315L93.9141 495.414L94.6336 493.705Z" fill="white"/>
</g>
<g opacity="0.0579462" filter="url(#filter28_f_345_11884)">
<path d="M122.706 440.289L121.629 441.799L122.685 443.323L121.175 442.246L119.651 443.302L120.728 441.793L119.672 440.269L121.182 441.345L122.706 440.289Z" fill="white"/>
</g>
<g opacity="0.725187" filter="url(#filter29_f_345_11884)">
<path d="M259.902 424.034L261.732 423.732L262.067 421.909L262.369 423.738L264.192 424.073L262.363 424.375L262.028 426.199L261.726 424.369L259.902 424.034Z" fill="white"/>
</g>
<g opacity="0.44025" filter="url(#filter30_f_345_11884)">
<path d="M38.0033 450.239L36.267 449.588L35.0672 451.002L35.7177 449.265L34.3042 448.066L36.0404 448.716L37.2403 447.303L36.5897 449.039L38.0033 450.239Z" fill="white"/>
</g>
<g opacity="0.260074" filter="url(#filter31_f_345_11884)">
<path d="M306.099 364.123L307.436 362.838L306.679 361.145L307.964 362.482L309.657 361.726L308.32 363.011L309.076 364.704L307.792 363.366L306.099 364.123Z" fill="white"/>
</g>
<g opacity="0.323219" filter="url(#filter32_f_345_11884)">
<path d="M46.0868 218.003L47.9407 217.978L48.5453 216.226L48.5697 218.08L50.3225 218.684L48.4685 218.708L47.864 220.461L47.8396 218.607L46.0868 218.003Z" fill="white"/>
</g>
<g opacity="0.974196" filter="url(#filter33_f_345_11884)">
<path d="M70.0903 360.578L68.471 361.481L68.7727 363.311L67.8695 361.692L66.0401 361.993L67.6594 361.09L67.3577 359.261L68.2609 360.88L70.0903 360.578Z" fill="white"/>
</g>
<g opacity="0.480992" filter="url(#filter34_f_345_11884)">
<path d="M317.678 416.577L315.854 416.243L314.922 417.845L315.257 416.022L313.654 415.089L315.478 415.424L316.41 413.821L316.075 415.645L317.678 416.577Z" fill="white"/>
</g>
<g opacity="0.250052" filter="url(#filter35_f_345_11884)">
<path d="M258.816 364.575L259.906 363.075L258.863 361.542L260.363 362.632L261.897 361.589L260.807 363.089L261.849 364.622L260.349 363.532L258.816 364.575Z" fill="white"/>
</g>
<g opacity="0.687632" filter="url(#filter36_f_345_11884)">
<path d="M195.582 464.577L196.813 463.19L195.924 461.562L197.311 462.793L198.938 461.905L197.708 463.291L198.596 464.919L197.209 463.688L195.582 464.577Z" fill="white"/>
</g>
<g opacity="0.960968" filter="url(#filter37_f_345_11884)">
<path d="M361.458 457.26L362.795 455.976L362.039 454.283L363.323 455.62L365.016 454.864L363.679 456.148L364.435 457.841L363.151 456.504L361.458 457.26Z" fill="white"/>
</g>
<g opacity="0.630803" filter="url(#filter38_f_345_11884)">
<path d="M19.7973 295.811L21.0878 297.142L22.7773 296.379L21.446 297.669L22.2096 299.359L20.9192 298.027L19.2296 298.791L20.561 297.5L19.7973 295.811Z" fill="white"/>
</g>
<g opacity="0.82363" filter="url(#filter39_f_345_11884)">
<path d="M349.63 388.312L347.894 388.962L347.918 390.816L347.268 389.08L345.414 389.104L347.15 388.454L347.126 386.6L347.776 388.336L349.63 388.312Z" fill="white"/>
</g>
<g opacity="0.300281" filter="url(#filter40_f_345_11884)">
<path d="M160.863 483.946L162.616 483.342L162.641 481.488L163.245 483.241L165.099 483.266L163.346 483.87L163.321 485.724L162.717 483.971L160.863 483.946Z" fill="white"/>
</g>
<g opacity="0.830366" filter="url(#filter41_f_345_11884)">
<path d="M267.724 521.232L268.099 519.416L266.517 518.449L268.333 518.824L269.3 517.242L268.925 519.058L270.507 520.025L268.691 519.651L267.724 521.232Z" fill="white"/>
</g>
<g opacity="0.915025" filter="url(#filter42_f_345_11884)">
<path d="M214.538 338.073L212.802 337.422L211.602 338.836L212.253 337.099L210.839 335.9L212.576 336.55L213.775 335.137L213.125 336.873L214.538 338.073Z" fill="white"/>
</g>
<g opacity="0.215568" filter="url(#filter43_f_345_11884)">
<path d="M145.7 243.267L143.913 243.761L143.773 245.61L143.279 243.823L141.43 243.683L143.217 243.189L143.357 241.34L143.851 243.127L145.7 243.267Z" fill="white"/>
</g>
<g opacity="0.568229" filter="url(#filter44_f_345_11884)">
<path d="M89.7295 386.026L90.9721 387.403L92.6876 386.699L91.3114 387.942L92.0148 389.657L90.7722 388.281L89.0567 388.984L90.4329 387.742L89.7295 386.026Z" fill="white"/>
</g>
<g opacity="0.885141" filter="url(#filter45_f_345_11884)">
<path d="M55.6093 189.122L56.8399 187.735L55.9515 186.108L57.3383 187.338L58.9657 186.45L57.7351 187.837L58.6235 189.464L57.2367 188.234L55.6093 189.122Z" fill="white"/>
</g>
<g opacity="0.405558" filter="url(#filter46_f_345_11884)">
<path d="M62.2099 419.687L60.369 419.908L59.9536 421.715L59.7328 419.874L57.9258 419.459L59.7668 419.238L60.1822 417.431L60.4029 419.272L62.2099 419.687Z" fill="white"/>
</g>
<g opacity="0.523745" filter="url(#filter47_f_345_11884)">
<path d="M249.558 512.575L248.824 510.872L246.974 510.986L248.676 510.252L248.562 508.402L249.296 510.104L251.147 509.99L249.444 510.724L249.558 512.575Z" fill="white"/>
</g>
<g opacity="0.477541" filter="url(#filter48_f_345_11884)">
<path d="M97.4836 246.292L99.3377 246.3L99.9732 244.558L99.9648 246.413L101.707 247.048L99.8525 247.04L99.217 248.781L99.2254 246.927L97.4836 246.292Z" fill="white"/>
</g>
</g>
<defs>
<filter id="filter0_iif_345_11884" x="-267.892" y="105.774" width="896.093" height="534.908" filterUnits="userSpaceOnUse" color-interpolation-filters="sRGB">
<feFlood flood-opacity="0" result="BackgroundImageFix"/>
<feBlend mode="normal" in="SourceGraphic" in2="BackgroundImageFix" result="shape"/>
<feColorMatrix in="SourceAlpha" type="matrix" values="0 0 0 0 0 0 0 0 0 0 0 0 0 0 0 0 0 0 127 0" result="hardAlpha"/>
<feOffset dy="2.1451"/>
<feGaussianBlur stdDeviation="22.7917"/>
<feComposite in2="hardAlpha" operator="arithmetic" k2="-1" k3="1"/>
<feColorMatrix type="matrix" values="0 0 0 0 0.208333 0 0 0 0 0 0 0 0 0 1 0 0 0 1 0"/>
<feBlend mode="color-burn" in2="shape" result="effect1_innerShadow_345_11884"/>
<feColorMatrix in="SourceAlpha" type="matrix" values="0 0 0 0 0 0 0 0 0 0 0 0 0 0 0 0 0 0 127 0" result="hardAlpha"/>
<feOffset/>
<feGaussianBlur stdDeviation="9.38482"/>
<feComposite in2="hardAlpha" operator="arithmetic" k2="-1" k3="1"/>
<feColorMatrix type="matrix" values="0 0 0 0 1 0 0 0 0 0 0 0 0 0 0.84 0 0 0 1 0"/>
<feBlend mode="color-dodge" in2="effect1_innerShadow_345_11884" result="effect2_innerShadow_345_11884"/>
<feGaussianBlur stdDeviation="32.1765" result="effect3_foregroundBlur_345_11884"/>
</filter>
<filter id="filter1_f_345_11884" x="-206.957" y="157.745" width="776.109" height="428.136" filterUnits="userSpaceOnUse" color-interpolation-filters="sRGB">
<feFlood flood-opacity="0" result="BackgroundImageFix"/>
<feBlend mode="normal" in="SourceGraphic" in2="BackgroundImageFix" result="shape"/>
<feGaussianBlur stdDeviation="12.0662" result="effect1_foregroundBlur_345_11884"/>
</filter>
<filter id="filter2_f_345_11884" x="314.843" y="435.524" width="4.63114" height="4.63017" filterUnits="userSpaceOnUse" color-interpolation-filters="sRGB">
<feFlood flood-opacity="0" result="BackgroundImageFix"/>
<feBlend mode="normal" in="SourceGraphic" in2="BackgroundImageFix" result="shape"/>
<feGaussianBlur stdDeviation="0.268138" result="effect1_foregroundBlur_345_11884"/>
</filter>
<filter id="filter3_f_345_11884" x="350.335" y="373.687" width="5.01005" height="5.01152" filterUnits="userSpaceOnUse" color-interpolation-filters="sRGB">
<feFlood flood-opacity="0" result="BackgroundImageFix"/>
<feBlend mode="normal" in="SourceGraphic" in2="BackgroundImageFix" result="shape"/>
<feGaussianBlur stdDeviation="0.268138" result="effect1_foregroundBlur_345_11884"/>
</filter>
<filter id="filter4_f_345_11884" x="0.5731" y="172.796" width="5.34599" height="5.34745" filterUnits="userSpaceOnUse" color-interpolation-filters="sRGB">
<feFlood flood-opacity="0" result="BackgroundImageFix"/>
<feBlend mode="normal" in="SourceGraphic" in2="BackgroundImageFix" result="shape"/>
<feGaussianBlur stdDeviation="0.268138" result="effect1_foregroundBlur_345_11884"/>
</filter>
<filter id="filter5_f_345_11884" x="234.347" y="312.317" width="4.88896" height="4.89042" filterUnits="userSpaceOnUse" color-interpolation-filters="sRGB">
<feFlood flood-opacity="0" result="BackgroundImageFix"/>
<feBlend mode="normal" in="SourceGraphic" in2="BackgroundImageFix" result="shape"/>
<feGaussianBlur stdDeviation="0.268138" result="effect1_foregroundBlur_345_11884"/>
</filter>
<filter id="filter6_f_345_11884" x="249.464" y="452.355" width="5.35771" height="5.36112" filterUnits="userSpaceOnUse" color-interpolation-filters="sRGB">
<feFlood flood-opacity="0" result="BackgroundImageFix"/>
<feBlend mode="normal" in="SourceGraphic" in2="BackgroundImageFix" result="shape"/>
<feGaussianBlur stdDeviation="0.268138" result="effect1_foregroundBlur_345_11884"/>
</filter>
<filter id="filter7_f_345_11884" x="329.159" y="340.662" width="4.86552" height="4.86405" filterUnits="userSpaceOnUse" color-interpolation-filters="sRGB">
<feFlood flood-opacity="0" result="BackgroundImageFix"/>
<feBlend mode="normal" in="SourceGraphic" in2="BackgroundImageFix" result="shape"/>
<feGaussianBlur stdDeviation="0.268138" result="effect1_foregroundBlur_345_11884"/>
</filter>
<filter id="filter8_f_345_11884" x="160.421" y="357.172" width="5.36161" height="5.36161" filterUnits="userSpaceOnUse" color-interpolation-filters="sRGB">
<feFlood flood-opacity="0" result="BackgroundImageFix"/>
<feBlend mode="normal" in="SourceGraphic" in2="BackgroundImageFix" result="shape"/>
<feGaussianBlur stdDeviation="0.268138" result="effect1_foregroundBlur_345_11884"/>
</filter>
<filter id="filter9_f_345_11884" x="371.097" y="472.853" width="5.17021" height="5.17021" filterUnits="userSpaceOnUse" color-interpolation-filters="sRGB">
<feFlood flood-opacity="0" result="BackgroundImageFix"/>
<feBlend mode="normal" in="SourceGraphic" in2="BackgroundImageFix" result="shape"/>
<feGaussianBlur stdDeviation="0.268138" result="effect1_foregroundBlur_345_11884"/>
</filter>
<filter id="filter10_f_345_11884" x="345.518" y="365.616" width="4.1663" height="4.16532" filterUnits="userSpaceOnUse" color-interpolation-filters="sRGB">
<feFlood flood-opacity="0" result="BackgroundImageFix"/>
<feBlend mode="normal" in="SourceGraphic" in2="BackgroundImageFix" result="shape"/>
<feGaussianBlur stdDeviation="0.268138" result="effect1_foregroundBlur_345_11884"/>
</filter>
<filter id="filter11_f_345_11884" x="370.686" y="532.668" width="5.18974" height="5.19169" filterUnits="userSpaceOnUse" color-interpolation-filters="sRGB">
<feFlood flood-opacity="0" result="BackgroundImageFix"/>
<feBlend mode="normal" in="SourceGraphic" in2="BackgroundImageFix" result="shape"/>
<feGaussianBlur stdDeviation="0.268138" result="effect1_foregroundBlur_345_11884"/>
</filter>
<filter id="filter12_f_345_11884" x="165.702" y="471.089" width="5.33818" height="5.33622" filterUnits="userSpaceOnUse" color-interpolation-filters="sRGB">
<feFlood flood-opacity="0" result="BackgroundImageFix"/>
<feBlend mode="normal" in="SourceGraphic" in2="BackgroundImageFix" result="shape"/>
<feGaussianBlur stdDeviation="0.268138" result="effect1_foregroundBlur_345_11884"/>
</filter>
<filter id="filter13_f_345_11884" x="55.202" y="480.859" width="4.81083" height="4.81034" filterUnits="userSpaceOnUse" color-interpolation-filters="sRGB">
<feFlood flood-opacity="0" result="BackgroundImageFix"/>
<feBlend mode="normal" in="SourceGraphic" in2="BackgroundImageFix" result="shape"/>
<feGaussianBlur stdDeviation="0.268138" result="effect1_foregroundBlur_345_11884"/>
</filter>
<filter id="filter14_f_345_11884" x="265.675" y="537.944" width="4.49052" height="4.4871" filterUnits="userSpaceOnUse" color-interpolation-filters="sRGB">
<feFlood flood-opacity="0" result="BackgroundImageFix"/>
<feBlend mode="normal" in="SourceGraphic" in2="BackgroundImageFix" result="shape"/>
<feGaussianBlur stdDeviation="0.268138" result="effect1_foregroundBlur_345_11884"/>
</filter>
<filter id="filter15_f_345_11884" x="14.5614" y="177.464" width="5.30302" height="5.30253" filterUnits="userSpaceOnUse" color-interpolation-filters="sRGB">
<feFlood flood-opacity="0" result="BackgroundImageFix"/>
<feBlend mode="normal" in="SourceGraphic" in2="BackgroundImageFix" result="shape"/>
<feGaussianBlur stdDeviation="0.268138" result="effect1_foregroundBlur_345_11884"/>
</filter>
<filter id="filter16_f_345_11884" x="183.132" y="318.804" width="4.60771" height="4.60868" filterUnits="userSpaceOnUse" color-interpolation-filters="sRGB">
<feFlood flood-opacity="0" result="BackgroundImageFix"/>
<feBlend mode="normal" in="SourceGraphic" in2="BackgroundImageFix" result="shape"/>
<feGaussianBlur stdDeviation="0.268138" result="effect1_foregroundBlur_345_11884"/>
</filter>
<filter id="filter17_f_345_11884" x="15.4208" y="181.145" width="5.12333" height="5.12236" filterUnits="userSpaceOnUse" color-interpolation-filters="sRGB">
<feFlood flood-opacity="0" result="BackgroundImageFix"/>
<feBlend mode="normal" in="SourceGraphic" in2="BackgroundImageFix" result="shape"/>
<feGaussianBlur stdDeviation="0.268138" result="effect1_foregroundBlur_345_11884"/>
</filter>
<filter id="filter18_f_345_11884" x="113.518" y="480.167" width="5.26396" height="5.2664" filterUnits="userSpaceOnUse" color-interpolation-filters="sRGB">
<feFlood flood-opacity="0" result="BackgroundImageFix"/>
<feBlend mode="normal" in="SourceGraphic" in2="BackgroundImageFix" result="shape"/>
<feGaussianBlur stdDeviation="0.268138" result="effect1_foregroundBlur_345_11884"/>
</filter>
<filter id="filter19_f_345_11884" x="95.4442" y="482.927" width="5.24052" height="5.24101" filterUnits="userSpaceOnUse" color-interpolation-filters="sRGB">
<feFlood flood-opacity="0" result="BackgroundImageFix"/>
<feBlend mode="normal" in="SourceGraphic" in2="BackgroundImageFix" result="shape"/>
<feGaussianBlur stdDeviation="0.268138" result="effect1_foregroundBlur_345_11884"/>
</filter>
<filter id="filter20_f_345_11884" x="84.2879" y="413.967" width="4.7288" height="4.73271" filterUnits="userSpaceOnUse" color-interpolation-filters="sRGB">
<feFlood flood-opacity="0" result="BackgroundImageFix"/>
<feBlend mode="normal" in="SourceGraphic" in2="BackgroundImageFix" result="shape"/>
<feGaussianBlur stdDeviation="0.268138" result="effect1_foregroundBlur_345_11884"/>
</filter>
<filter id="filter21_f_345_11884" x="266.909" y="280.617" width="5.33036" height="5.32987" filterUnits="userSpaceOnUse" color-interpolation-filters="sRGB">
<feFlood flood-opacity="0" result="BackgroundImageFix"/>
<feBlend mode="normal" in="SourceGraphic" in2="BackgroundImageFix" result="shape"/>
<feGaussianBlur stdDeviation="0.268138" result="effect1_foregroundBlur_345_11884"/>
</filter>
<filter id="filter22_f_345_11884" x="235.772" y="452.787" width="5.28349" height="5.28154" filterUnits="userSpaceOnUse" color-interpolation-filters="sRGB">
<feFlood flood-opacity="0" result="BackgroundImageFix"/>
<feBlend mode="normal" in="SourceGraphic" in2="BackgroundImageFix" result="shape"/>
<feGaussianBlur stdDeviation="0.268138" result="effect1_foregroundBlur_345_11884"/>
</filter>
<filter id="filter23_f_345_11884" x="28.3192" y="443.271" width="4.75224" height="4.75224" filterUnits="userSpaceOnUse" color-interpolation-filters="sRGB">
<feFlood flood-opacity="0" result="BackgroundImageFix"/>
<feBlend mode="normal" in="SourceGraphic" in2="BackgroundImageFix" result="shape"/>
<feGaussianBlur stdDeviation="0.268138" result="effect1_foregroundBlur_345_11884"/>
</filter>
<filter id="filter24_f_345_11884" x="87.0458" y="157.062" width="4.20536" height="4.20585" filterUnits="userSpaceOnUse" color-interpolation-filters="sRGB">
<feFlood flood-opacity="0" result="BackgroundImageFix"/>
<feBlend mode="normal" in="SourceGraphic" in2="BackgroundImageFix" result="shape"/>
<feGaussianBlur stdDeviation="0.268138" result="effect1_foregroundBlur_345_11884"/>
</filter>
<filter id="filter25_f_345_11884" x="91.534" y="424.855" width="4.37724" height="4.38017" filterUnits="userSpaceOnUse" color-interpolation-filters="sRGB">
<feFlood flood-opacity="0" result="BackgroundImageFix"/>
<feBlend mode="normal" in="SourceGraphic" in2="BackgroundImageFix" result="shape"/>
<feGaussianBlur stdDeviation="0.268138" result="effect1_foregroundBlur_345_11884"/>
</filter>
<filter id="filter26_f_345_11884" x="45.4364" y="156.824" width="4.40458" height="4.40507" filterUnits="userSpaceOnUse" color-interpolation-filters="sRGB">
<feFlood flood-opacity="0" result="BackgroundImageFix"/>
<feBlend mode="normal" in="SourceGraphic" in2="BackgroundImageFix" result="shape"/>
<feGaussianBlur stdDeviation="0.268138" result="effect1_foregroundBlur_345_11884"/>
</filter>
<filter id="filter27_f_345_11884" x="91.5262" y="493.169" width="5.25224" height="5.2537" filterUnits="userSpaceOnUse" color-interpolation-filters="sRGB">
<feFlood flood-opacity="0" result="BackgroundImageFix"/>
<feBlend mode="normal" in="SourceGraphic" in2="BackgroundImageFix" result="shape"/>
<feGaussianBlur stdDeviation="0.268138" result="effect1_foregroundBlur_345_11884"/>
</filter>
<filter id="filter28_f_345_11884" x="119.116" y="439.732" width="4.12724" height="4.12675" filterUnits="userSpaceOnUse" color-interpolation-filters="sRGB">
<feFlood flood-opacity="0" result="BackgroundImageFix"/>
<feBlend mode="normal" in="SourceGraphic" in2="BackgroundImageFix" result="shape"/>
<feGaussianBlur stdDeviation="0.268138" result="effect1_foregroundBlur_345_11884"/>
</filter>
<filter id="filter29_f_345_11884" x="259.366" y="421.372" width="5.36161" height="5.36259" filterUnits="userSpaceOnUse" color-interpolation-filters="sRGB">
<feFlood flood-opacity="0" result="BackgroundImageFix"/>
<feBlend mode="normal" in="SourceGraphic" in2="BackgroundImageFix" result="shape"/>
<feGaussianBlur stdDeviation="0.268138" result="effect1_foregroundBlur_345_11884"/>
</filter>
<filter id="filter30_f_345_11884" x="33.7684" y="446.766" width="4.77177" height="4.77128" filterUnits="userSpaceOnUse" color-interpolation-filters="sRGB">
<feFlood flood-opacity="0" result="BackgroundImageFix"/>
<feBlend mode="normal" in="SourceGraphic" in2="BackgroundImageFix" result="shape"/>
<feGaussianBlur stdDeviation="0.268138" result="effect1_foregroundBlur_345_11884"/>
</filter>
<filter id="filter31_f_345_11884" x="305.561" y="360.609" width="4.63114" height="4.63114" filterUnits="userSpaceOnUse" color-interpolation-filters="sRGB">
<feFlood flood-opacity="0" result="BackgroundImageFix"/>
<feBlend mode="normal" in="SourceGraphic" in2="BackgroundImageFix" result="shape"/>
<feGaussianBlur stdDeviation="0.268138" result="effect1_foregroundBlur_345_11884"/>
</filter>
<filter id="filter32_f_345_11884" x="45.5497" y="215.689" width="5.31083" height="5.30839" filterUnits="userSpaceOnUse" color-interpolation-filters="sRGB">
<feFlood flood-opacity="0" result="BackgroundImageFix"/>
<feBlend mode="normal" in="SourceGraphic" in2="BackgroundImageFix" result="shape"/>
<feGaussianBlur stdDeviation="0.268138" result="effect1_foregroundBlur_345_11884"/>
</filter>
<filter id="filter33_f_345_11884" x="65.5028" y="358.724" width="5.12333" height="5.12284" filterUnits="userSpaceOnUse" color-interpolation-filters="sRGB">
<feFlood flood-opacity="0" result="BackgroundImageFix"/>
<feBlend mode="normal" in="SourceGraphic" in2="BackgroundImageFix" result="shape"/>
<feGaussianBlur stdDeviation="0.268138" result="effect1_foregroundBlur_345_11884"/>
</filter>
<filter id="filter34_f_345_11884" x="313.116" y="413.285" width="5.09989" height="5.09648" filterUnits="userSpaceOnUse" color-interpolation-filters="sRGB">
<feFlood flood-opacity="0" result="BackgroundImageFix"/>
<feBlend mode="normal" in="SourceGraphic" in2="BackgroundImageFix" result="shape"/>
<feGaussianBlur stdDeviation="0.268138" result="effect1_foregroundBlur_345_11884"/>
</filter>
<filter id="filter35_f_345_11884" x="258.28" y="361.005" width="4.15458" height="4.15361" filterUnits="userSpaceOnUse" color-interpolation-filters="sRGB">
<feFlood flood-opacity="0" result="BackgroundImageFix"/>
<feBlend mode="normal" in="SourceGraphic" in2="BackgroundImageFix" result="shape"/>
<feGaussianBlur stdDeviation="0.268138" result="effect1_foregroundBlur_345_11884"/>
</filter>
<filter id="filter36_f_345_11884" x="195.046" y="461.026" width="4.42802" height="4.429" filterUnits="userSpaceOnUse" color-interpolation-filters="sRGB">
<feFlood flood-opacity="0" result="BackgroundImageFix"/>
<feBlend mode="normal" in="SourceGraphic" in2="BackgroundImageFix" result="shape"/>
<feGaussianBlur stdDeviation="0.268138" result="effect1_foregroundBlur_345_11884"/>
</filter>
<filter id="filter37_f_345_11884" x="360.921" y="453.746" width="4.63114" height="4.63114" filterUnits="userSpaceOnUse" color-interpolation-filters="sRGB">
<feFlood flood-opacity="0" result="BackgroundImageFix"/>
<feBlend mode="normal" in="SourceGraphic" in2="BackgroundImageFix" result="shape"/>
<feGaussianBlur stdDeviation="0.268138" result="effect1_foregroundBlur_345_11884"/>
</filter>
<filter id="filter38_f_345_11884" x="18.6942" y="295.275" width="4.61943" height="4.6204" filterUnits="userSpaceOnUse" color-interpolation-filters="sRGB">
<feFlood flood-opacity="0" result="BackgroundImageFix"/>
<feBlend mode="normal" in="SourceGraphic" in2="BackgroundImageFix" result="shape"/>
<feGaussianBlur stdDeviation="0.268138" result="effect1_foregroundBlur_345_11884"/>
</filter>
<filter id="filter39_f_345_11884" x="344.878" y="386.063" width="5.28739" height="5.28886" filterUnits="userSpaceOnUse" color-interpolation-filters="sRGB">
<feFlood flood-opacity="0" result="BackgroundImageFix"/>
<feBlend mode="normal" in="SourceGraphic" in2="BackgroundImageFix" result="shape"/>
<feGaussianBlur stdDeviation="0.268138" result="effect1_foregroundBlur_345_11884"/>
</filter>
<filter id="filter40_f_345_11884" x="160.327" y="480.952" width="5.30693" height="5.30839" filterUnits="userSpaceOnUse" color-interpolation-filters="sRGB">
<feFlood flood-opacity="0" result="BackgroundImageFix"/>
<feBlend mode="normal" in="SourceGraphic" in2="BackgroundImageFix" result="shape"/>
<feGaussianBlur stdDeviation="0.268138" result="effect1_foregroundBlur_345_11884"/>
</filter>
<filter id="filter41_f_345_11884" x="265.979" y="516.706" width="5.06474" height="5.06279" filterUnits="userSpaceOnUse" color-interpolation-filters="sRGB">
<feFlood flood-opacity="0" result="BackgroundImageFix"/>
<feBlend mode="normal" in="SourceGraphic" in2="BackgroundImageFix" result="shape"/>
<feGaussianBlur stdDeviation="0.268138" result="effect1_foregroundBlur_345_11884"/>
</filter>
<filter id="filter42_f_345_11884" x="210.304" y="334.6" width="4.77177" height="4.77128" filterUnits="userSpaceOnUse" color-interpolation-filters="sRGB">
<feFlood flood-opacity="0" result="BackgroundImageFix"/>
<feBlend mode="normal" in="SourceGraphic" in2="BackgroundImageFix" result="shape"/>
<feGaussianBlur stdDeviation="0.268138" result="effect1_foregroundBlur_345_11884"/>
</filter>
<filter id="filter43_f_345_11884" x="140.893" y="240.804" width="5.34208" height="5.34257" filterUnits="userSpaceOnUse" color-interpolation-filters="sRGB">
<feFlood flood-opacity="0" result="BackgroundImageFix"/>
<feBlend mode="normal" in="SourceGraphic" in2="BackgroundImageFix" result="shape"/>
<feGaussianBlur stdDeviation="0.268138" result="effect1_foregroundBlur_345_11884"/>
</filter>
<filter id="filter44_f_345_11884" x="88.5223" y="385.49" width="4.70146" height="4.70341" filterUnits="userSpaceOnUse" color-interpolation-filters="sRGB">
<feFlood flood-opacity="0" result="BackgroundImageFix"/>
<feBlend mode="normal" in="SourceGraphic" in2="BackgroundImageFix" result="shape"/>
<feGaussianBlur stdDeviation="0.268138" result="effect1_foregroundBlur_345_11884"/>
</filter>
<filter id="filter45_f_345_11884" x="55.0731" y="185.572" width="4.42802" height="4.429" filterUnits="userSpaceOnUse" color-interpolation-filters="sRGB">
<feFlood flood-opacity="0" result="BackgroundImageFix"/>
<feBlend mode="normal" in="SourceGraphic" in2="BackgroundImageFix" result="shape"/>
<feGaussianBlur stdDeviation="0.268138" result="effect1_foregroundBlur_345_11884"/>
</filter>
<filter id="filter46_f_345_11884" x="57.3895" y="416.895" width="5.35771" height="5.35673" filterUnits="userSpaceOnUse" color-interpolation-filters="sRGB">
<feFlood flood-opacity="0" result="BackgroundImageFix"/>
<feBlend mode="normal" in="SourceGraphic" in2="BackgroundImageFix" result="shape"/>
<feGaussianBlur stdDeviation="0.268138" result="effect1_foregroundBlur_345_11884"/>
</filter>
<filter id="filter47_f_345_11884" x="246.436" y="507.866" width="5.24833" height="5.2454" filterUnits="userSpaceOnUse" color-interpolation-filters="sRGB">
<feFlood flood-opacity="0" result="BackgroundImageFix"/>
<feBlend mode="normal" in="SourceGraphic" in2="BackgroundImageFix" result="shape"/>
<feGaussianBlur stdDeviation="0.268138" result="effect1_foregroundBlur_345_11884"/>
</filter>
<filter id="filter48_f_345_11884" x="96.9481" y="244.022" width="5.29521" height="5.29521" filterUnits="userSpaceOnUse" color-interpolation-filters="sRGB">
<feFlood flood-opacity="0" result="BackgroundImageFix"/>
<feBlend mode="normal" in="SourceGraphic" in2="BackgroundImageFix" result="shape"/>
<feGaussianBlur stdDeviation="0.268138" result="effect1_foregroundBlur_345_11884"/>
</filter>
<linearGradient id="paint0_linear_345_11884" x1="187.5" y1="0" x2="187.5" y2="812" gradientUnits="userSpaceOnUse">
<stop stop-color="#0B0C1E"/>
<stop offset="0.908654" stop-color="#393084"/>
</linearGradient>
<clipPath id="clip0_345_11884">
<rect width="375" height="812" fill="white"/>
</clipPath>
</defs>
</svg>
