<svg width="375" height="812" viewBox="0 0 375 812" fill="none" xmlns="http://www.w3.org/2000/svg">
<g clip-path="url(#clip0_345_12329)">
<rect width="375" height="812" fill="url(#paint0_linear_345_12329)"/>
<g filter="url(#filter0_iif_345_12329)">
<path d="M569.929 719.8L533.662 725.964C385.842 751.085 236.891 688.053 152.005 564.455V564.455C78.2758 457.104 -44.749 394.33 -174.939 397.632L-178.8 397.73" stroke="#8C84FB" stroke-opacity="0.8" stroke-width="53.6275"/>
</g>
<g style="mix-blend-mode:color-dodge" opacity="0.2" filter="url(#filter1_f_345_12329)">
<path d="M569.929 719.8L533.662 725.964C385.842 751.085 236.891 688.053 152.005 564.455V564.455C78.2758 457.104 -44.749 394.33 -174.939 397.632L-178.8 397.73" stroke="#DACEFD" stroke-width="6"/>
</g>
<g opacity="0.62992" filter="url(#filter2_f_345_12329)">
<path d="M60.3859 495.903L58.7295 495.07L58.9527 493.229L58.1196 494.886L56.279 494.663L57.9354 495.496L57.7122 497.336L58.5453 495.68L60.3859 495.903Z" fill="white"/>
</g>
<g opacity="0.152704" filter="url(#filter3_f_345_12329)">
<path d="M85.4422 429.654L83.9682 428.529L84.5277 426.762L83.4029 428.236L81.6352 427.676L83.1092 428.801L82.5496 430.569L83.6745 429.095L85.4422 429.654Z" fill="white"/>
</g>
<g opacity="0.950977" filter="url(#filter4_f_345_12329)">
<path d="M320.271 768.581L321.332 770.101L320.26 771.614L321.781 770.553L323.294 771.625L322.233 770.105L323.304 768.592L321.784 769.652L320.271 768.581Z" fill="white"/>
</g>
<g opacity="0.245719" filter="url(#filter5_f_345_12329)">
<path d="M205.359 477.787L204.335 479.332L202.534 478.891L204.079 479.916L203.638 481.717L204.663 480.171L206.464 480.612L204.918 479.588L205.359 477.787Z" fill="white"/>
</g>
<g opacity="0.510533" filter="url(#filter6_f_345_12329)">
<path d="M87.416 558.228L86.5511 556.588L87.8016 555.219L86.1615 556.084L84.7925 554.834L85.6575 556.474L84.407 557.843L86.047 556.978L87.416 558.228Z" fill="white"/>
</g>
<g opacity="0.449485" filter="url(#filter7_f_345_12329)">
<path d="M120.642 423.371L122.201 424.375L121.784 426.181L122.788 424.622L124.594 425.04L123.036 424.036L123.453 422.229L122.449 423.788L120.642 423.371Z" fill="white"/>
</g>
<g opacity="0.670848" filter="url(#filter8_f_345_12329)">
<path d="M217.775 563.96L216.179 564.904L214.751 563.722L215.695 565.318L214.512 566.746L216.108 565.802L217.537 566.985L216.593 565.389L217.775 563.96Z" fill="white"/>
</g>
<g opacity="0.452967" filter="url(#filter9_f_345_12329)">
<path d="M93.1764 429.486L93.7126 427.711L95.5643 427.615L93.7894 427.079L93.6933 425.227L93.157 427.002L91.3053 427.098L93.0802 427.634L93.1764 429.486Z" fill="white"/>
</g>
<g opacity="0.988091" filter="url(#filter10_f_345_12329)">
<path d="M123.055 634.807L124.561 633.726L126.088 634.778L125.007 633.271L126.059 631.744L124.553 632.825L123.025 631.774L124.106 633.28L123.055 634.807Z" fill="white"/>
</g>
<g opacity="0.0105304" filter="url(#filter11_f_345_12329)">
<path d="M186.843 722.996L186.841 724.851L185.095 725.476L186.949 725.478L187.574 727.224L187.577 725.37L189.323 724.745L187.468 724.742L186.843 722.996Z" fill="white"/>
</g>
<g opacity="0.453668" filter="url(#filter12_f_345_12329)">
<path d="M8.00671 598.209L9.84308 598.465L10.2237 600.28L10.4798 598.443L12.2944 598.063L10.4581 597.806L10.0774 595.992L9.82136 597.828L8.00671 598.209Z" fill="white"/>
</g>
<g opacity="0.629134" filter="url(#filter13_f_345_12329)">
<path d="M229.988 522.955L231.652 523.774L231.445 525.616L232.263 523.953L234.106 524.16L232.442 523.341L232.649 521.499L231.83 523.162L229.988 522.955Z" fill="white"/>
</g>
<g opacity="0.65706" filter="url(#filter14_f_345_12329)">
<path d="M152.237 680.793L151.008 679.404L151.899 677.778L150.511 679.007L148.885 678.116L150.113 679.505L149.222 681.131L150.611 679.902L152.237 680.793Z" fill="white"/>
</g>
<g opacity="0.203056" filter="url(#filter15_f_345_12329)">
<path d="M160.787 697.142L160.287 695.356L161.798 694.282L160.013 694.782L158.938 693.271L159.438 695.056L157.927 696.131L159.713 695.631L160.787 697.142Z" fill="white"/>
</g>
<g opacity="0.773962" filter="url(#filter16_f_345_12329)">
<path d="M218.684 659.583L220.302 660.489L219.997 662.318L220.903 660.7L222.732 661.004L221.114 660.099L221.419 658.27L220.513 659.888L218.684 659.583Z" fill="white"/>
</g>
<g opacity="0.85875" filter="url(#filter17_f_345_12329)">
<path d="M209.309 436.266L208.607 434.55L209.985 433.309L208.269 434.01L207.028 432.633L207.729 434.349L206.352 435.59L208.068 434.889L209.309 436.266Z" fill="white"/>
</g>
<g opacity="0.195966" filter="url(#filter18_f_345_12329)">
<path d="M96.1298 568.783L94.926 567.373L95.8456 565.763L94.4353 566.966L92.8253 566.047L94.029 567.457L93.1095 569.067L94.5197 567.863L96.1298 568.783Z" fill="white"/>
</g>
<g opacity="0.067763" filter="url(#filter19_f_345_12329)">
<path d="M235.385 722.912L233.775 721.992L234.095 720.166L233.176 721.776L231.349 721.455L232.959 722.375L232.639 724.201L233.558 722.591L235.385 722.912Z" fill="white"/>
</g>
<g opacity="0.970812" filter="url(#filter20_f_345_12329)">
<path d="M336.723 752.267L337.788 750.75L339.576 751.239L338.059 750.173L338.548 748.385L337.482 749.902L335.694 749.414L337.211 750.479L336.723 752.267Z" fill="white"/>
</g>
<g opacity="0.01" filter="url(#filter21_f_345_12329)">
<path d="M210.043 662.006L208.313 661.338L208.357 659.484L207.688 661.214L205.835 661.17L207.564 661.838L207.521 663.692L208.189 661.963L210.043 662.006Z" fill="white"/>
</g>
<g opacity="0.437286" filter="url(#filter22_f_345_12329)">
<path d="M155.712 703.02L154.34 704.267L152.702 703.398L153.949 704.77L153.08 706.408L154.452 705.161L156.09 706.03L154.843 704.658L155.712 703.02Z" fill="white"/>
</g>
<g opacity="0.0579462" filter="url(#filter23_f_345_12329)">
<path d="M179.357 647.504L178.868 649.292L177.019 649.438L178.808 649.926L178.953 651.775L179.442 649.986L181.29 649.841L179.502 649.352L179.357 647.504Z" fill="white"/>
</g>
<g opacity="0.725187" filter="url(#filter24_f_345_12329)">
<path d="M105.22 530.92L104.298 529.312L105.499 527.899L103.89 528.822L102.478 527.62L103.401 529.229L102.199 530.641L103.808 529.719L105.22 530.92Z" fill="white"/>
</g>
<g opacity="0.44025" filter="url(#filter25_f_345_12329)">
<path d="M225.191 719.423L226.793 720.357L226.456 722.18L227.39 720.578L229.213 720.915L227.612 719.981L227.949 718.158L227.015 719.76L225.191 719.423Z" fill="white"/>
</g>
<g opacity="0.0761755" filter="url(#filter26_f_345_12329)">
<path d="M24.1206 432.481L25.7843 433.299L25.5774 435.142L26.3958 433.478L28.2383 433.685L26.5746 432.867L26.7815 431.024L25.9631 432.688L24.1206 432.481Z" fill="white"/>
</g>
<g opacity="0.260074" filter="url(#filter27_f_345_12329)">
<path d="M122.441 457.253L122.591 455.405L124.381 454.921L122.533 454.771L122.048 452.981L121.898 454.829L120.108 455.314L121.957 455.464L122.441 457.253Z" fill="white"/>
</g>
<g opacity="0.974196" filter="url(#filter28_f_345_12329)">
<path d="M274.378 637.881L274.702 639.707L273.094 640.63L274.919 640.306L275.842 641.914L275.518 640.088L277.127 639.166L275.301 639.49L274.378 637.881Z" fill="white"/>
</g>
<g opacity="0.480992" filter="url(#filter29_f_345_12329)">
<path d="M74.4739 481.438L75.8861 482.64L75.2336 484.375L76.435 482.963L78.1705 483.615L76.7583 482.414L77.4108 480.678L76.2094 482.091L74.4739 481.438Z" fill="white"/>
</g>
<g opacity="0.250052" filter="url(#filter30_f_345_12329)">
<path d="M151.981 494.175L152.454 492.382L154.301 492.221L152.508 491.748L152.347 489.901L151.874 491.693L150.027 491.855L151.819 492.328L151.981 494.175Z" fill="white"/>
</g>
<g opacity="0.687632" filter="url(#filter31_f_345_12329)">
<path d="M114.465 606.387L114.762 604.557L116.585 604.216L114.754 603.92L114.414 602.097L114.117 603.927L112.295 604.268L114.125 604.564L114.465 606.387Z" fill="white"/>
</g>
<g opacity="0.924909" filter="url(#filter32_f_345_12329)">
<path d="M55.1866 411.956L57.0406 411.934L57.6889 413.671L57.6668 411.817L59.4039 411.169L57.5499 411.191L56.9017 409.454L56.9237 411.308L55.1866 411.956Z" fill="white"/>
</g>
<g opacity="0.960968" filter="url(#filter33_f_345_12329)">
<path d="M15.2767 473.233L15.4269 471.385L17.2166 470.901L15.3686 470.751L14.8843 468.961L14.7342 470.809L12.9444 471.294L14.7925 471.444L15.2767 473.233Z" fill="white"/>
</g>
<g opacity="0.630803" filter="url(#filter34_f_345_12329)">
<path d="M356.356 635.91L354.509 635.752L354.033 633.96L353.874 635.808L352.082 636.284L353.93 636.442L354.406 638.234L354.564 636.387L356.356 635.91Z" fill="white"/>
</g>
<g opacity="0.82363" filter="url(#filter35_f_345_12329)">
<path d="M76.1786 438.813L76.7725 440.569L75.3207 441.723L77.0771 441.129L78.2305 442.581L77.6366 440.824L79.0884 439.671L77.3319 440.265L76.1786 438.813Z" fill="white"/>
</g>
<g opacity="0.300281" filter="url(#filter36_f_345_12329)">
<path d="M121.407 645.534L120.766 643.794L122.187 642.602L120.447 643.243L119.256 641.822L119.896 643.562L118.475 644.753L120.215 644.113L121.407 645.534Z" fill="white"/>
</g>
<g opacity="0.830366" filter="url(#filter37_f_345_12329)">
<path d="M24.9618 586.303L26.1317 584.864L27.8812 585.478L26.4428 584.309L27.0568 582.559L25.8869 583.997L24.1374 583.383L25.5758 584.553L24.9618 586.303Z" fill="white"/>
</g>
<g opacity="0.915025" filter="url(#filter38_f_345_12329)">
<path d="M200.504 511.728L202.105 512.662L201.769 514.486L202.703 512.884L204.526 513.221L202.924 512.287L203.261 510.464L202.327 512.065L200.504 511.728Z" fill="white"/>
</g>
<g opacity="0.215568" filter="url(#filter39_f_345_12329)">
<path d="M317.48 505.137L318.227 506.834L316.882 508.111L318.58 507.365L319.857 508.709L319.11 507.012L320.454 505.735L318.757 506.481L317.48 505.137Z" fill="white"/>
</g>
<g opacity="0.568229" filter="url(#filter40_f_345_12329)">
<path d="M242.246 638.753L240.394 638.66L239.854 636.886L239.761 638.738L237.988 639.277L239.839 639.37L240.379 641.144L240.472 639.292L242.246 638.753Z" fill="white"/>
</g>
<g opacity="0.405558" filter="url(#filter41_f_345_12329)">
<path d="M233.561 681.353L234.554 682.919L233.416 684.383L234.982 683.391L236.446 684.528L235.454 682.962L236.591 681.498L235.025 682.491L233.561 681.353Z" fill="white"/>
</g>
<g opacity="0.523745" filter="url(#filter42_f_345_12329)">
<path d="M43.1557 594.908L44.939 594.4L46.0204 595.906L45.5126 594.123L47.0188 593.041L45.2355 593.549L44.1542 592.043L44.6619 593.826L43.1557 594.908Z" fill="white"/>
</g>
<g opacity="0.477541" filter="url(#filter43_f_345_12329)">
<path d="M345.616 544.41L344.437 542.978L345.385 541.385L343.954 542.564L342.36 541.616L343.539 543.047L342.591 544.641L344.022 543.462L345.616 544.41Z" fill="white"/>
</g>
</g>
<defs>
<filter id="filter0_iif_345_12329" x="-243.834" y="306.341" width="882.608" height="516.242" filterUnits="userSpaceOnUse" color-interpolation-filters="sRGB">
<feFlood flood-opacity="0" result="BackgroundImageFix"/>
<feBlend mode="normal" in="SourceGraphic" in2="BackgroundImageFix" result="shape"/>
<feColorMatrix in="SourceAlpha" type="matrix" values="0 0 0 0 0 0 0 0 0 0 0 0 0 0 0 0 0 0 127 0" result="hardAlpha"/>
<feOffset dy="2.1451"/>
<feGaussianBlur stdDeviation="22.7917"/>
<feComposite in2="hardAlpha" operator="arithmetic" k2="-1" k3="1"/>
<feColorMatrix type="matrix" values="0 0 0 0 0.208333 0 0 0 0 0 0 0 0 0 1 0 0 0 1 0"/>
<feBlend mode="color-burn" in2="shape" result="effect1_innerShadow_345_12329"/>
<feColorMatrix in="SourceAlpha" type="matrix" values="0 0 0 0 0 0 0 0 0 0 0 0 0 0 0 0 0 0 127 0" result="hardAlpha"/>
<feOffset/>
<feGaussianBlur stdDeviation="9.38482"/>
<feComposite in2="hardAlpha" operator="arithmetic" k2="-1" k3="1"/>
<feColorMatrix type="matrix" values="0 0 0 0 1 0 0 0 0 0 0 0 0 0 0.84 0 0 0 1 0"/>
<feBlend mode="color-dodge" in2="effect1_innerShadow_345_12329" result="effect2_innerShadow_345_12329"/>
<feGaussianBlur stdDeviation="32.1765" result="effect3_foregroundBlur_345_12329"/>
</filter>
<filter id="filter1_f_345_12329" x="-203.007" y="370.375" width="797.569" height="388.173" filterUnits="userSpaceOnUse" color-interpolation-filters="sRGB">
<feFlood flood-opacity="0" result="BackgroundImageFix"/>
<feBlend mode="normal" in="SourceGraphic" in2="BackgroundImageFix" result="shape"/>
<feGaussianBlur stdDeviation="12.0662" result="effect1_foregroundBlur_345_12329"/>
</filter>
<filter id="filter2_f_345_12329" x="55.7411" y="492.693" width="5.18193" height="5.17948" filterUnits="userSpaceOnUse" color-interpolation-filters="sRGB">
<feFlood flood-opacity="0" result="BackgroundImageFix"/>
<feBlend mode="normal" in="SourceGraphic" in2="BackgroundImageFix" result="shape"/>
<feGaussianBlur stdDeviation="0.268138" result="effect1_foregroundBlur_345_12329"/>
</filter>
<filter id="filter3_f_345_12329" x="81.1004" y="426.225" width="4.87724" height="4.87919" filterUnits="userSpaceOnUse" color-interpolation-filters="sRGB">
<feFlood flood-opacity="0" result="BackgroundImageFix"/>
<feBlend mode="normal" in="SourceGraphic" in2="BackgroundImageFix" result="shape"/>
<feGaussianBlur stdDeviation="0.268138" result="effect1_foregroundBlur_345_12329"/>
</filter>
<filter id="filter4_f_345_12329" x="319.725" y="768.045" width="4.11552" height="4.1165" filterUnits="userSpaceOnUse" color-interpolation-filters="sRGB">
<feFlood flood-opacity="0" result="BackgroundImageFix"/>
<feBlend mode="normal" in="SourceGraphic" in2="BackgroundImageFix" result="shape"/>
<feGaussianBlur stdDeviation="0.268138" result="effect1_foregroundBlur_345_12329"/>
</filter>
<filter id="filter5_f_345_12329" x="201.999" y="477.251" width="5.00224" height="5.00224" filterUnits="userSpaceOnUse" color-interpolation-filters="sRGB">
<feFlood flood-opacity="0" result="BackgroundImageFix"/>
<feBlend mode="normal" in="SourceGraphic" in2="BackgroundImageFix" result="shape"/>
<feGaussianBlur stdDeviation="0.268138" result="effect1_foregroundBlur_345_12329"/>
</filter>
<filter id="filter6_f_345_12329" x="83.87" y="554.297" width="4.46708" height="4.46757" filterUnits="userSpaceOnUse" color-interpolation-filters="sRGB">
<feFlood flood-opacity="0" result="BackgroundImageFix"/>
<feBlend mode="normal" in="SourceGraphic" in2="BackgroundImageFix" result="shape"/>
<feGaussianBlur stdDeviation="0.268138" result="effect1_foregroundBlur_345_12329"/>
</filter>
<filter id="filter7_f_345_12329" x="120.104" y="421.693" width="5.02568" height="5.0247" filterUnits="userSpaceOnUse" color-interpolation-filters="sRGB">
<feFlood flood-opacity="0" result="BackgroundImageFix"/>
<feBlend mode="normal" in="SourceGraphic" in2="BackgroundImageFix" result="shape"/>
<feGaussianBlur stdDeviation="0.268138" result="effect1_foregroundBlur_345_12329"/>
</filter>
<filter id="filter8_f_345_12329" x="213.975" y="563.185" width="4.33427" height="4.33525" filterUnits="userSpaceOnUse" color-interpolation-filters="sRGB">
<feFlood flood-opacity="0" result="BackgroundImageFix"/>
<feBlend mode="normal" in="SourceGraphic" in2="BackgroundImageFix" result="shape"/>
<feGaussianBlur stdDeviation="0.268138" result="effect1_foregroundBlur_345_12329"/>
</filter>
<filter id="filter9_f_345_12329" x="90.7684" y="424.691" width="5.33036" height="5.33134" filterUnits="userSpaceOnUse" color-interpolation-filters="sRGB">
<feFlood flood-opacity="0" result="BackgroundImageFix"/>
<feBlend mode="normal" in="SourceGraphic" in2="BackgroundImageFix" result="shape"/>
<feGaussianBlur stdDeviation="0.268138" result="effect1_foregroundBlur_345_12329"/>
</filter>
<filter id="filter10_f_345_12329" x="122.491" y="631.208" width="4.13505" height="4.13554" filterUnits="userSpaceOnUse" color-interpolation-filters="sRGB">
<feFlood flood-opacity="0" result="BackgroundImageFix"/>
<feBlend mode="normal" in="SourceGraphic" in2="BackgroundImageFix" result="shape"/>
<feGaussianBlur stdDeviation="0.268138" result="effect1_foregroundBlur_345_12329"/>
</filter>
<filter id="filter11_f_345_12329" x="184.557" y="722.46" width="5.30302" height="5.2996" filterUnits="userSpaceOnUse" color-interpolation-filters="sRGB">
<feFlood flood-opacity="0" result="BackgroundImageFix"/>
<feBlend mode="normal" in="SourceGraphic" in2="BackgroundImageFix" result="shape"/>
<feGaussianBlur stdDeviation="0.268138" result="effect1_foregroundBlur_345_12329"/>
</filter>
<filter id="filter12_f_345_12329" x="7.47154" y="595.455" width="5.35771" height="5.36015" filterUnits="userSpaceOnUse" color-interpolation-filters="sRGB">
<feFlood flood-opacity="0" result="BackgroundImageFix"/>
<feBlend mode="normal" in="SourceGraphic" in2="BackgroundImageFix" result="shape"/>
<feGaussianBlur stdDeviation="0.268138" result="effect1_foregroundBlur_345_12329"/>
</filter>
<filter id="filter13_f_345_12329" x="229.452" y="520.962" width="5.18974" height="5.19023" filterUnits="userSpaceOnUse" color-interpolation-filters="sRGB">
<feFlood flood-opacity="0" result="BackgroundImageFix"/>
<feBlend mode="normal" in="SourceGraphic" in2="BackgroundImageFix" result="shape"/>
<feGaussianBlur stdDeviation="0.268138" result="effect1_foregroundBlur_345_12329"/>
</filter>
<filter id="filter14_f_345_12329" x="148.347" y="677.242" width="4.42802" height="4.42509" filterUnits="userSpaceOnUse" color-interpolation-filters="sRGB">
<feFlood flood-opacity="0" result="BackgroundImageFix"/>
<feBlend mode="normal" in="SourceGraphic" in2="BackgroundImageFix" result="shape"/>
<feGaussianBlur stdDeviation="0.268138" result="effect1_foregroundBlur_345_12329"/>
</filter>
<filter id="filter15_f_345_12329" x="157.39" y="692.734" width="4.94364" height="4.94413" filterUnits="userSpaceOnUse" color-interpolation-filters="sRGB">
<feFlood flood-opacity="0" result="BackgroundImageFix"/>
<feBlend mode="normal" in="SourceGraphic" in2="BackgroundImageFix" result="shape"/>
<feGaussianBlur stdDeviation="0.268138" result="effect1_foregroundBlur_345_12329"/>
</filter>
<filter id="filter16_f_345_12329" x="218.147" y="657.733" width="5.11943" height="5.1204" filterUnits="userSpaceOnUse" color-interpolation-filters="sRGB">
<feFlood flood-opacity="0" result="BackgroundImageFix"/>
<feBlend mode="normal" in="SourceGraphic" in2="BackgroundImageFix" result="shape"/>
<feGaussianBlur stdDeviation="0.268138" result="effect1_foregroundBlur_345_12329"/>
</filter>
<filter id="filter17_f_345_12329" x="205.815" y="432.097" width="4.70536" height="4.70585" filterUnits="userSpaceOnUse" color-interpolation-filters="sRGB">
<feFlood flood-opacity="0" result="BackgroundImageFix"/>
<feBlend mode="normal" in="SourceGraphic" in2="BackgroundImageFix" result="shape"/>
<feGaussianBlur stdDeviation="0.268138" result="effect1_foregroundBlur_345_12329"/>
</filter>
<filter id="filter18_f_345_12329" x="92.2879" y="565.226" width="4.37724" height="4.37675" filterUnits="userSpaceOnUse" color-interpolation-filters="sRGB">
<feFlood flood-opacity="0" result="BackgroundImageFix"/>
<feBlend mode="normal" in="SourceGraphic" in2="BackgroundImageFix" result="shape"/>
<feGaussianBlur stdDeviation="0.268138" result="effect1_foregroundBlur_345_12329"/>
</filter>
<filter id="filter19_f_345_12329" x="230.811" y="719.63" width="5.10771" height="5.10771" filterUnits="userSpaceOnUse" color-interpolation-filters="sRGB">
<feFlood flood-opacity="0" result="BackgroundImageFix"/>
<feBlend mode="normal" in="SourceGraphic" in2="BackgroundImageFix" result="shape"/>
<feGaussianBlur stdDeviation="0.268138" result="effect1_foregroundBlur_345_12329"/>
</filter>
<filter id="filter20_f_345_12329" x="335.159" y="747.848" width="4.95536" height="4.95536" filterUnits="userSpaceOnUse" color-interpolation-filters="sRGB">
<feFlood flood-opacity="0" result="BackgroundImageFix"/>
<feBlend mode="normal" in="SourceGraphic" in2="BackgroundImageFix" result="shape"/>
<feGaussianBlur stdDeviation="0.268138" result="effect1_foregroundBlur_345_12329"/>
</filter>
<filter id="filter21_f_345_12329" x="205.3" y="658.948" width="5.27958" height="5.28056" filterUnits="userSpaceOnUse" color-interpolation-filters="sRGB">
<feFlood flood-opacity="0" result="BackgroundImageFix"/>
<feBlend mode="normal" in="SourceGraphic" in2="BackgroundImageFix" result="shape"/>
<feGaussianBlur stdDeviation="0.268138" result="effect1_foregroundBlur_345_12329"/>
</filter>
<filter id="filter22_f_345_12329" x="152.167" y="702.484" width="4.45927" height="4.46025" filterUnits="userSpaceOnUse" color-interpolation-filters="sRGB">
<feFlood flood-opacity="0" result="BackgroundImageFix"/>
<feBlend mode="normal" in="SourceGraphic" in2="BackgroundImageFix" result="shape"/>
<feGaussianBlur stdDeviation="0.268138" result="effect1_foregroundBlur_345_12329"/>
</filter>
<filter id="filter23_f_345_12329" x="176.483" y="646.968" width="5.34208" height="5.34355" filterUnits="userSpaceOnUse" color-interpolation-filters="sRGB">
<feFlood flood-opacity="0" result="BackgroundImageFix"/>
<feBlend mode="normal" in="SourceGraphic" in2="BackgroundImageFix" result="shape"/>
<feGaussianBlur stdDeviation="0.268138" result="effect1_foregroundBlur_345_12329"/>
</filter>
<filter id="filter24_f_345_12329" x="101.663" y="527.084" width="4.37333" height="4.37187" filterUnits="userSpaceOnUse" color-interpolation-filters="sRGB">
<feFlood flood-opacity="0" result="BackgroundImageFix"/>
<feBlend mode="normal" in="SourceGraphic" in2="BackgroundImageFix" result="shape"/>
<feGaussianBlur stdDeviation="0.268138" result="effect1_foregroundBlur_345_12329"/>
</filter>
<filter id="filter25_f_345_12329" x="224.655" y="717.621" width="5.09599" height="5.09501" filterUnits="userSpaceOnUse" color-interpolation-filters="sRGB">
<feFlood flood-opacity="0" result="BackgroundImageFix"/>
<feBlend mode="normal" in="SourceGraphic" in2="BackgroundImageFix" result="shape"/>
<feGaussianBlur stdDeviation="0.268138" result="effect1_foregroundBlur_345_12329"/>
</filter>
<filter id="filter26_f_345_12329" x="23.5848" y="430.488" width="5.18974" height="5.19023" filterUnits="userSpaceOnUse" color-interpolation-filters="sRGB">
<feFlood flood-opacity="0" result="BackgroundImageFix"/>
<feBlend mode="normal" in="SourceGraphic" in2="BackgroundImageFix" result="shape"/>
<feGaussianBlur stdDeviation="0.268138" result="effect1_foregroundBlur_345_12329"/>
</filter>
<filter id="filter27_f_345_12329" x="119.573" y="452.445" width="5.34208" height="5.34452" filterUnits="userSpaceOnUse" color-interpolation-filters="sRGB">
<feFlood flood-opacity="0" result="BackgroundImageFix"/>
<feBlend mode="normal" in="SourceGraphic" in2="BackgroundImageFix" result="shape"/>
<feGaussianBlur stdDeviation="0.268138" result="effect1_foregroundBlur_345_12329"/>
</filter>
<filter id="filter28_f_345_12329" x="272.557" y="637.345" width="5.1038" height="5.10527" filterUnits="userSpaceOnUse" color-interpolation-filters="sRGB">
<feFlood flood-opacity="0" result="BackgroundImageFix"/>
<feBlend mode="normal" in="SourceGraphic" in2="BackgroundImageFix" result="shape"/>
<feGaussianBlur stdDeviation="0.268138" result="effect1_foregroundBlur_345_12329"/>
</filter>
<filter id="filter29_f_345_12329" x="73.9364" y="480.142" width="4.77177" height="4.76884" filterUnits="userSpaceOnUse" color-interpolation-filters="sRGB">
<feFlood flood-opacity="0" result="BackgroundImageFix"/>
<feBlend mode="normal" in="SourceGraphic" in2="BackgroundImageFix" result="shape"/>
<feGaussianBlur stdDeviation="0.268138" result="effect1_foregroundBlur_345_12329"/>
</filter>
<filter id="filter30_f_345_12329" x="149.491" y="489.364" width="5.34599" height="5.34745" filterUnits="userSpaceOnUse" color-interpolation-filters="sRGB">
<feFlood flood-opacity="0" result="BackgroundImageFix"/>
<feBlend mode="normal" in="SourceGraphic" in2="BackgroundImageFix" result="shape"/>
<feGaussianBlur stdDeviation="0.268138" result="effect1_foregroundBlur_345_12329"/>
</filter>
<filter id="filter31_f_345_12329" x="111.757" y="601.561" width="5.36552" height="5.3621" filterUnits="userSpaceOnUse" color-interpolation-filters="sRGB">
<feFlood flood-opacity="0" result="BackgroundImageFix"/>
<feBlend mode="normal" in="SourceGraphic" in2="BackgroundImageFix" result="shape"/>
<feGaussianBlur stdDeviation="0.268138" result="effect1_foregroundBlur_345_12329"/>
</filter>
<filter id="filter32_f_345_12329" x="54.6512" y="408.917" width="5.28739" height="5.28984" filterUnits="userSpaceOnUse" color-interpolation-filters="sRGB">
<feFlood flood-opacity="0" result="BackgroundImageFix"/>
<feBlend mode="normal" in="SourceGraphic" in2="BackgroundImageFix" result="shape"/>
<feGaussianBlur stdDeviation="0.268138" result="effect1_foregroundBlur_345_12329"/>
</filter>
<filter id="filter33_f_345_12329" x="12.409" y="468.425" width="5.34208" height="5.34452" filterUnits="userSpaceOnUse" color-interpolation-filters="sRGB">
<feFlood flood-opacity="0" result="BackgroundImageFix"/>
<feBlend mode="normal" in="SourceGraphic" in2="BackgroundImageFix" result="shape"/>
<feGaussianBlur stdDeviation="0.268138" result="effect1_foregroundBlur_345_12329"/>
</filter>
<filter id="filter34_f_345_12329" x="351.546" y="633.424" width="5.34599" height="5.34648" filterUnits="userSpaceOnUse" color-interpolation-filters="sRGB">
<feFlood flood-opacity="0" result="BackgroundImageFix"/>
<feBlend mode="normal" in="SourceGraphic" in2="BackgroundImageFix" result="shape"/>
<feGaussianBlur stdDeviation="0.268138" result="effect1_foregroundBlur_345_12329"/>
</filter>
<filter id="filter35_f_345_12329" x="74.784" y="438.277" width="4.84208" height="4.84013" filterUnits="userSpaceOnUse" color-interpolation-filters="sRGB">
<feFlood flood-opacity="0" result="BackgroundImageFix"/>
<feBlend mode="normal" in="SourceGraphic" in2="BackgroundImageFix" result="shape"/>
<feGaussianBlur stdDeviation="0.268138" result="effect1_foregroundBlur_345_12329"/>
</filter>
<filter id="filter36_f_345_12329" x="117.94" y="641.286" width="4.78349" height="4.78446" filterUnits="userSpaceOnUse" color-interpolation-filters="sRGB">
<feFlood flood-opacity="0" result="BackgroundImageFix"/>
<feBlend mode="normal" in="SourceGraphic" in2="BackgroundImageFix" result="shape"/>
<feGaussianBlur stdDeviation="0.268138" result="effect1_foregroundBlur_345_12329"/>
</filter>
<filter id="filter37_f_345_12329" x="23.6004" y="582.023" width="4.81864" height="4.8162" filterUnits="userSpaceOnUse" color-interpolation-filters="sRGB">
<feFlood flood-opacity="0" result="BackgroundImageFix"/>
<feBlend mode="normal" in="SourceGraphic" in2="BackgroundImageFix" result="shape"/>
<feGaussianBlur stdDeviation="0.268138" result="effect1_foregroundBlur_345_12329"/>
</filter>
<filter id="filter38_f_345_12329" x="199.968" y="509.927" width="5.09599" height="5.09501" filterUnits="userSpaceOnUse" color-interpolation-filters="sRGB">
<feFlood flood-opacity="0" result="BackgroundImageFix"/>
<feBlend mode="normal" in="SourceGraphic" in2="BackgroundImageFix" result="shape"/>
<feGaussianBlur stdDeviation="0.268138" result="effect1_foregroundBlur_345_12329"/>
</filter>
<filter id="filter39_f_345_12329" x="316.347" y="504.601" width="4.64286" height="4.64433" filterUnits="userSpaceOnUse" color-interpolation-filters="sRGB">
<feFlood flood-opacity="0" result="BackgroundImageFix"/>
<feBlend mode="normal" in="SourceGraphic" in2="BackgroundImageFix" result="shape"/>
<feGaussianBlur stdDeviation="0.268138" result="effect1_foregroundBlur_345_12329"/>
</filter>
<filter id="filter40_f_345_12329" x="237.452" y="636.35" width="5.33036" height="5.33036" filterUnits="userSpaceOnUse" color-interpolation-filters="sRGB">
<feFlood flood-opacity="0" result="BackgroundImageFix"/>
<feBlend mode="normal" in="SourceGraphic" in2="BackgroundImageFix" result="shape"/>
<feGaussianBlur stdDeviation="0.268138" result="effect1_foregroundBlur_345_12329"/>
</filter>
<filter id="filter41_f_345_12329" x="232.882" y="680.817" width="4.24443" height="4.24736" filterUnits="userSpaceOnUse" color-interpolation-filters="sRGB">
<feFlood flood-opacity="0" result="BackgroundImageFix"/>
<feBlend mode="normal" in="SourceGraphic" in2="BackgroundImageFix" result="shape"/>
<feGaussianBlur stdDeviation="0.268138" result="effect1_foregroundBlur_345_12329"/>
</filter>
<filter id="filter42_f_345_12329" x="42.62" y="591.507" width="4.93583" height="4.93583" filterUnits="userSpaceOnUse" color-interpolation-filters="sRGB">
<feFlood flood-opacity="0" result="BackgroundImageFix"/>
<feBlend mode="normal" in="SourceGraphic" in2="BackgroundImageFix" result="shape"/>
<feGaussianBlur stdDeviation="0.268138" result="effect1_foregroundBlur_345_12329"/>
</filter>
<filter id="filter43_f_345_12329" x="341.823" y="540.848" width="4.33036" height="4.32841" filterUnits="userSpaceOnUse" color-interpolation-filters="sRGB">
<feFlood flood-opacity="0" result="BackgroundImageFix"/>
<feBlend mode="normal" in="SourceGraphic" in2="BackgroundImageFix" result="shape"/>
<feGaussianBlur stdDeviation="0.268138" result="effect1_foregroundBlur_345_12329"/>
</filter>
<linearGradient id="paint0_linear_345_12329" x1="187.5" y1="0" x2="187.5" y2="812" gradientUnits="userSpaceOnUse">
<stop stop-color="#0B0C1E"/>
<stop offset="0.908654" stop-color="#393084"/>
</linearGradient>
<clipPath id="clip0_345_12329">
<rect width="375" height="812" fill="white"/>
</clipPath>
</defs>
</svg>
