<svg width="86" height="28" viewBox="0 0 86 28" fill="none" xmlns="http://www.w3.org/2000/svg">
<rect width="86" height="28" rx="14" fill="#5863F8"/>
<rect x="0.5" y="0.5" width="85" height="27" rx="13.5" stroke="#FAFAFA" stroke-opacity="0.3"/>
<circle cx="16" cy="14" r="8.5" stroke="white"/>
<path d="M17.166 9.51562V18H16.0996V10.6172H16.0527L13.9902 11.9883V10.9219L16.0996 9.51562H17.166Z" fill="white"/>
<path d="M36.6758 15.8965H38.0156L39.0684 17.2637C39.8066 16.6211 40.2715 15.5342 40.2715 14.0508C40.2715 11.4941 38.877 10.1133 37.0859 10.1133C35.2949 10.1133 33.9004 11.4941 33.9004 14.0508C33.9004 16.6074 35.2949 17.9883 37.0859 17.9883C37.4551 17.9883 37.8105 17.9268 38.1387 17.8105L36.6758 15.8965ZM41.4609 14.0508C41.4609 15.8965 40.8184 17.3389 39.7793 18.207L41.0645 19.9297H39.7246L38.8633 18.7676C38.3232 19.0137 37.7285 19.1367 37.0859 19.1367C34.543 19.1367 32.7109 17.1816 32.7109 14.0508C32.7109 10.9199 34.543 8.96484 37.0859 8.96484C39.6152 8.96484 41.4609 10.9199 41.4609 14.0508ZM42.9456 19V9.10156H46.3089C48.6331 9.10156 49.6859 10.3867 49.6859 12.1504C49.6859 13.4561 49.098 14.4883 47.8402 14.9258L50.0687 19H48.6331L46.5687 15.1445L46.3226 15.1582H44.1761V19H42.9456ZM44.1761 14.0371H46.2679C47.8402 14.0371 48.4691 13.3262 48.4691 12.1504C48.4691 10.9609 47.8402 10.1953 46.2542 10.1953H44.1761V14.0371ZM63.7705 7.9668V16.8535H62.7041V7.9668H63.7705ZM64.1533 18.9453V19.8477H55.9228V15.9512H56.9892V18.9453H64.1533ZM57.208 8.81445C59.0263 8.81445 60.3935 10.0449 60.3935 11.7949C60.3935 13.5723 59.0263 14.7891 57.208 14.7891C55.3896 14.7891 54.0224 13.5723 54.0224 11.7949C54.0224 10.0449 55.3896 8.81445 57.208 8.81445ZM57.208 9.75781C55.9775 9.75781 55.0615 10.6055 55.0752 11.7949C55.0615 13.0117 55.9775 13.8457 57.208 13.8457C58.4111 13.8457 59.3408 13.0117 59.3408 11.7949C59.3408 10.6055 58.4111 9.75781 57.208 9.75781ZM76.5891 13.7363V14.625H65.5149V13.7363H76.5891ZM71.052 15.6914C73.6634 15.6914 75.222 16.498 75.2356 17.8926C75.222 19.3008 73.6634 20.0801 71.052 20.0801C68.427 20.0801 66.8548 19.3008 66.8548 17.8926C66.8548 16.498 68.427 15.6914 71.052 15.6914ZM71.052 16.5391C69.097 16.5527 67.9348 17.0312 67.9485 17.8926C67.9348 18.7402 69.097 19.2188 71.052 19.2188C72.9798 19.2188 74.1555 18.7402 74.1555 17.8926C74.1555 17.0312 72.9798 16.5527 71.052 16.5391ZM75.6048 8.58203V9.4707H71.7493C71.7903 10.8516 73.8138 11.9043 75.9739 12.1504L75.5774 13.0117C73.5882 12.7588 71.722 11.8701 71.052 10.5098C70.3889 11.8701 68.5296 12.7588 66.5266 13.0117L66.1438 12.1504C68.263 11.9043 70.3001 10.8516 70.3548 9.4707H66.5266V8.58203H75.6048Z" fill="white"/>
</svg>
