<svg width="91" height="28" viewBox="0 0 91 28" fill="none" xmlns="http://www.w3.org/2000/svg">
<rect width="91" height="28" rx="14" fill="#5863F8"/>
<rect x="0.5" y="0.5" width="90" height="27" rx="13.5" stroke="#FAFAFA" stroke-opacity="0.3"/>
<circle cx="16" cy="14" r="8.5" stroke="white"/>
<path d="M13.2754 18L13.2637 17.2266L16.1582 14.1797C17.166 13.1133 17.6465 12.5391 17.6465 11.7539C17.6465 10.8867 16.9082 10.3125 15.959 10.3125C14.9512 10.3125 14.3066 10.957 14.3066 11.9062H13.3105C13.2988 10.4062 14.459 9.39844 15.9941 9.39844C17.5293 9.39844 18.6309 10.4297 18.6309 11.7539C18.6309 12.7031 18.1855 13.4414 16.6855 14.9883L14.7402 16.9922V17.0625H18.7832V18H13.2754Z" fill="white"/>
<path d="M42.5684 7.95312V15.1992H41.4883V12.0137H39.041V11.125H41.4883V7.95312H42.5684ZM38.5352 15.582C41.0645 15.582 42.6094 16.4023 42.6094 17.8379C42.6094 19.2734 41.0645 20.0938 38.5352 20.1074C36.0059 20.0938 34.4609 19.2734 34.4609 17.8379C34.4609 16.4023 36.0059 15.582 38.5352 15.582ZM38.5352 16.416C36.6758 16.416 35.5137 16.9492 35.5273 17.8379C35.5137 18.7129 36.6758 19.2461 38.5352 19.2461C40.3945 19.2461 41.543 18.7129 41.543 17.8379C41.543 16.9492 40.3945 16.416 38.5352 16.416ZM36.7168 10.1816C36.7168 11.7676 37.9336 13.2715 39.7109 13.8867L39.1504 14.748C37.7832 14.2559 36.7236 13.2373 36.2109 11.9727C35.6777 13.4014 34.5498 14.543 33.1074 15.0898L32.5469 14.2285C34.3516 13.5723 35.6367 11.9316 35.6367 10.1953V9.74414H32.8887V8.8418H39.4375V9.74414H36.7168V10.1816ZM55.4007 17.6602V18.5488H44.2718V17.6602H49.2757V15.0352H45.5843V8.81445H46.6644V11.0156H52.9808V8.81445H54.0335V15.0352H50.3284V17.6602H55.4007ZM46.6644 14.1602H52.9808V11.8906H46.6644V14.1602ZM68.7334 7.9668V11.6445H70.5517V12.5469H68.7334V16.1152H67.6533V7.9668H68.7334ZM59.1904 14.8711C60.1611 14.8711 61.2959 14.8711 62.4853 14.8301V13.9414C61.0703 13.8184 60.1611 13.1553 60.1611 12.1504C60.1611 11.043 61.2959 10.3594 63.0048 10.3594C64.7275 10.3594 65.8486 11.043 65.8623 12.1504C65.8486 13.1484 64.9599 13.8115 63.5517 13.9414V14.7891C64.6865 14.7344 65.8349 14.6455 66.9013 14.4883L66.997 15.2676C64.3584 15.7324 61.4463 15.7461 59.3134 15.7461L59.1904 14.8711ZM68.7334 16.7168V20.1074H67.6533V17.5781H60.6806V16.7168H68.7334ZM66.5322 9.07422V9.89453H59.4912V9.07422H62.4853V7.85742H63.5517V9.07422H66.5322ZM63.0048 11.125C61.8838 11.1113 61.1865 11.5078 61.1865 12.1504C61.1865 12.7793 61.8838 13.2168 63.0048 13.2031C64.1259 13.2168 64.8369 12.7793 64.8369 12.1504C64.8369 11.5078 64.1259 11.1113 63.0048 11.125ZM81.0598 7.9668V16.8535H79.9934V7.9668H81.0598ZM81.4427 18.9453V19.8477H73.2122V15.9512H74.2786V18.9453H81.4427ZM74.4973 8.81445C76.3157 8.81445 77.6829 10.0449 77.6829 11.7949C77.6829 13.5723 76.3157 14.7891 74.4973 14.7891C72.679 14.7891 71.3118 13.5723 71.3118 11.7949C71.3118 10.0449 72.679 8.81445 74.4973 8.81445ZM74.4973 9.75781C73.2669 9.75781 72.3509 10.6055 72.3645 11.7949C72.3509 13.0117 73.2669 13.8457 74.4973 13.8457C75.7005 13.8457 76.6302 13.0117 76.6302 11.7949C76.6302 10.6055 75.7005 9.75781 74.4973 9.75781Z" fill="white"/>
</svg>
