<svg width="18" height="18" viewBox="0 0 18 18" fill="none" xmlns="http://www.w3.org/2000/svg">
<circle cx="9" cy="9" r="8.5" fill="#8888AA" stroke="#F1F1F3"/>
<path d="M9.02344 13.1172C7.33594 13.1172 6.12891 12.2148 6.07031 10.8672H7.13672C7.19531 11.6758 8.00391 12.1797 9.01172 12.1797C10.125 12.1797 10.9453 11.5703 10.9453 10.6914C10.9453 9.76562 10.207 9.10938 8.88281 9.10938H8.19141V8.18359H8.88281C9.91406 8.18359 10.6289 7.60938 10.6289 6.73047C10.6289 5.88672 10.0078 5.3125 9.04688 5.3125C8.14453 5.3125 7.3125 5.81641 7.26562 6.64844H6.24609C6.30469 5.30078 7.54688 4.39844 9.05859 4.39844C10.6758 4.39844 11.6602 5.45312 11.6484 6.67188C11.6602 7.63281 11.0977 8.34766 10.207 8.59375V8.65234C11.3086 8.82812 11.9883 9.61328 11.9766 10.6914C11.9883 12.0859 10.7109 13.1172 9.02344 13.1172Z" fill="#F1F1F3"/>
</svg>
