<svg width="103" height="28" viewBox="0 0 103 28" fill="none" xmlns="http://www.w3.org/2000/svg">
<rect width="103" height="28" rx="14" fill="#5863F8"/>
<rect x="0.5" y="0.5" width="102" height="27" rx="13.5" stroke="#FAFAFA" stroke-opacity="0.3"/>
<circle cx="16" cy="14" r="8.5" stroke="white"/>
<path d="M16.0234 18.1172C14.3359 18.1172 13.1289 17.2148 13.0703 15.8672H14.1367C14.1953 16.6758 15.0039 17.1797 16.0117 17.1797C17.125 17.1797 17.9453 16.5703 17.9453 15.6914C17.9453 14.7656 17.207 14.1094 15.8828 14.1094H15.1914V13.1836H15.8828C16.9141 13.1836 17.6289 12.6094 17.6289 11.7305C17.6289 10.8867 17.0078 10.3125 16.0469 10.3125C15.1445 10.3125 14.3125 10.8164 14.2656 11.6484H13.2461C13.3047 10.3008 14.5469 9.39844 16.0586 9.39844C17.6758 9.39844 18.6602 10.4531 18.6484 11.6719C18.6602 12.6328 18.0977 13.3477 17.207 13.5938V13.6523C18.3086 13.8281 18.9883 14.6133 18.9766 15.6914C18.9883 17.0859 17.7109 18.1172 16.0234 18.1172Z" fill="white"/>
<path d="M43.6211 17.7012V18.6035H32.4922V17.7012H37.4961V15.4043H33.8867V11.6582H41.1602V9.74414H33.8594V8.85547H42.2129V12.5332H34.9531V14.5156H42.5V15.4043H38.5488V17.7012H43.6211ZM53.8558 9.25195V10.4688C53.8558 12 53.8558 13.7363 53.4046 16.375L52.3109 16.2656C52.803 13.7773 52.803 11.959 52.803 10.4688V10.1406H45.4749V9.25195H53.8558ZM55.346 17.4277V18.3164H44.2718V17.4277H55.346ZM66.0866 7.9668V16.8535H65.0202V7.9668H66.0866ZM66.4694 18.9453V19.8477H58.2389V15.9512H59.3053V18.9453H66.4694ZM59.5241 8.81445C61.3424 8.81445 62.7096 10.0449 62.7096 11.7949C62.7096 13.5723 61.3424 14.7891 59.5241 14.7891C57.7057 14.7891 56.3385 13.5723 56.3385 11.7949C56.3385 10.0449 57.7057 8.81445 59.5241 8.81445ZM59.5241 9.75781C58.2936 9.75781 57.3776 10.6055 57.3913 11.7949C57.3776 13.0117 58.2936 13.8457 59.5241 13.8457C60.7272 13.8457 61.6569 13.0117 61.6569 11.7949C61.6569 10.6055 60.7272 9.75781 59.5241 9.75781ZM74.7298 8.52734C76.5071 8.52734 77.7513 9.48438 77.7513 10.9336C77.7513 12.1846 76.7669 13.0938 75.304 13.2715V14.4609C76.4388 14.4131 77.594 14.3105 78.6536 14.1465L78.7356 14.9531C76.1653 15.418 73.2532 15.4453 71.1477 15.4453L71.011 14.5566C71.9544 14.5635 73.0618 14.5566 74.2239 14.5156V13.2852C72.72 13.1211 71.7083 12.2051 71.722 10.9336C71.7083 9.48438 72.9524 8.52734 74.7298 8.52734ZM74.7298 9.36133C73.554 9.36133 72.72 9.99023 72.7337 10.9336C72.72 11.8496 73.554 12.4785 74.7298 12.4922C75.9192 12.4785 76.7259 11.8496 76.7395 10.9336C76.7259 9.99023 75.9192 9.36133 74.7298 9.36133ZM80.513 7.9668V12.082H82.3313V12.998H80.513V17.2637H79.4329V7.9668H80.513ZM80.9505 18.9316V19.834H72.7884V16.457H73.8684V18.9316H80.9505ZM93.9332 17.7012V18.6035H82.8043V17.7012H85.9352V15.3906H84.1988V11.6445H91.4723V9.74414H84.1715V8.85547H92.525V12.5332H85.2652V14.502H92.8121V15.3906H90.9117V17.7012H93.9332ZM86.9879 17.7012H89.859V15.3906H86.9879V17.7012Z" fill="white"/>
</svg>
