<svg width="16" height="16" viewBox="0 0 16 16" fill="none" xmlns="http://www.w3.org/2000/svg">
<g id="iconoir:credit-card-Small">
<path id="Vector" d="M14.6668 6.00004V11.3334C14.6668 11.687 14.5264 12.0261 14.2763 12.2762C14.0263 12.5262 13.6871 12.6667 13.3335 12.6667H2.66683C2.31321 12.6667 1.97407 12.5262 1.72402 12.2762C1.47397 12.0261 1.3335 11.687 1.3335 11.3334V4.66671C1.3335 4.31309 1.47397 3.97395 1.72402 3.7239C1.97407 3.47385 2.31321 3.33337 2.66683 3.33337H13.3335C13.6871 3.33337 14.0263 3.47385 14.2763 3.7239C14.5264 3.97395 14.6668 4.31309 14.6668 4.66671V6.00004ZM14.6668 6.00004H4.00016" stroke="#CACAD0" stroke-linecap="round" stroke-linejoin="round"/>
</g>
</svg>
