<svg width="14" height="14" viewBox="0 0 14 14" fill="none" xmlns="http://www.w3.org/2000/svg">
<g id="Group">
<path id="Vector (Stroke)" d="M8.66679 2.5L8.87512 2.50781C9.91238 2.58613 10.8689 3.24369 11.284 4.24284L11.3536 4.42773C11.6681 5.34554 11.4389 6.14023 11.0138 6.80273C10.6915 7.30504 10.2374 7.75844 9.82499 8.15169L9.43307 8.52474C9.22733 8.72313 8.9526 8.83395 8.66679 8.83398C8.38088 8.83398 8.10565 8.72324 7.89986 8.52474L7.89921 8.52344C7.41479 8.05377 6.75013 7.47085 6.32044 6.80273C5.86643 6.09681 5.63492 5.24039 6.0496 4.24284L6.05091 4.23958L6.13945 4.05078C6.36131 3.61838 6.69065 3.24843 7.09713 2.97786C7.56153 2.66881 8.10636 2.50269 8.66419 2.5H8.66679ZM8.66744 3.5C8.30563 3.50205 7.95239 3.61007 7.65117 3.81055C7.34953 4.01133 7.11296 4.29597 6.97148 4.62956C6.71522 5.24858 6.8373 5.7575 7.16158 6.26172C7.51041 6.80411 8.04942 7.27688 8.59387 7.80469C8.61326 7.82339 8.63986 7.83398 8.66679 7.83398C8.69368 7.83395 8.71971 7.82335 8.73906 7.80469L9.14401 7.41862C9.54196 7.03852 9.91086 6.66995 10.172 6.26302C10.4965 5.75722 10.6177 5.24645 10.3602 4.62695C10.0763 3.94376 9.38866 3.50032 8.66744 3.5ZM8.67265 4.83333L8.72408 4.83594C8.97606 4.86169 9.17265 5.07456 9.17265 5.33333C9.17265 5.59211 8.97606 5.80498 8.72408 5.83073L8.67265 5.83333H8.66679C8.39065 5.83333 8.16679 5.60948 8.16679 5.33333C8.16679 5.05719 8.39065 4.83333 8.66679 4.83333H8.67265Z" fill="#CED1FD"/>
<path id="Vector (Stroke)_2" d="M12.8333 6.99996C12.8333 5.49295 12.8324 4.41301 12.722 3.59176C12.6135 2.78486 12.408 2.3025 12.0527 1.94723C11.6975 1.59198 11.2152 1.38643 10.4082 1.27795C9.58683 1.16756 8.50679 1.16663 6.99999 1.16663C5.49298 1.16663 4.41304 1.16758 3.59179 1.27795C2.78489 1.38642 2.30253 1.59195 1.94726 1.94723C1.63896 2.25552 1.4434 2.65956 1.32616 3.28837L1.35351 3.31311L10.6868 12.6464L10.7109 12.6731C11.34 12.5559 11.7443 12.3611 12.0527 12.0527C12.408 11.6975 12.6135 11.2152 12.722 10.4082C12.8324 9.5868 12.8333 8.50675 12.8333 6.99996ZM2.35025 12.3561C2.65858 12.5313 3.05193 12.6494 3.59179 12.722C4.41315 12.8324 5.49319 12.8333 6.99999 12.8333C7.97211 12.8333 8.76648 12.832 9.42838 12.802L5.66666 9.04032L2.35025 12.3561ZM1.16666 6.99996C1.16666 8.50697 1.16761 9.58691 1.27798 10.4082C1.35048 10.9475 1.46821 11.3409 1.64322 11.649L4.95963 8.33329L1.19791 4.57157C1.16795 5.23353 1.16666 6.02791 1.16666 6.99996ZM13.8333 6.99996C13.8333 8.4785 13.8343 9.63816 13.7129 10.5416C13.5895 11.4593 13.3318 12.1877 12.7598 12.7597C12.1877 13.3318 11.4594 13.5895 10.5417 13.7129C9.63827 13.8343 8.47886 13.8333 6.99999 13.8333C5.52145 13.8333 4.36179 13.8343 3.45832 13.7129C2.54066 13.5895 1.81224 13.3317 1.24022 12.7597C0.668175 12.1877 0.410471 11.4594 0.287099 10.5416C0.165664 9.63824 0.166657 8.47882 0.166657 6.99996C0.166657 5.52142 0.165665 4.36176 0.287099 3.45829C0.410478 2.54063 0.668206 1.81221 1.24022 1.24019C1.81227 0.668145 2.54059 0.41044 3.45832 0.287069C4.36171 0.165634 5.52112 0.166626 6.99999 0.166626C8.47853 0.166626 9.63819 0.165635 10.5417 0.287069C11.4593 0.410447 12.1877 0.668175 12.7598 1.24019C13.3318 1.81224 13.5895 2.54056 13.7129 3.45829C13.8343 4.36168 13.8333 5.52109 13.8333 6.99996Z" fill="#CED1FD"/>
</g>
</svg>
