<svg width="16" height="16" viewBox="0 0 16 16" fill="none" xmlns="http://www.w3.org/2000/svg">
<g id="iconoir:bright-star" clip-path="url(#clip0_622_4748)">
<path id="Vector" d="M14.6667 7.99996H15.3333M7.99999 1.33329V0.666626M7.99999 15.3333V14.6666M13.3333 13.3333L12.6667 12.6666M13.3333 2.66663L12.6667 3.33329M2.66666 13.3333L3.33332 12.6666M2.66666 2.66663L3.33332 3.33329M0.666656 7.99996H1.33332M6.63466 6.41529L7.67399 4.21196C7.70199 4.14887 7.7477 4.09526 7.80556 4.05764C7.86343 4.02001 7.93097 3.99998 7.99999 3.99998C8.06901 3.99998 8.13655 4.02001 8.19442 4.05764C8.25228 4.09526 8.29799 4.14887 8.32599 4.21196L9.36532 6.41529L11.6887 6.77063C11.9867 6.81596 12.1053 7.19996 11.89 7.41996L10.2087 9.13329L10.6053 11.554C10.6567 11.8653 10.3447 12.102 10.078 11.9553L7.99999 10.812L5.92199 11.9553C5.65532 12.102 5.34332 11.8653 5.39466 11.554L5.79132 9.13396L4.10999 7.41996C3.89466 7.19996 4.01332 6.81596 4.31132 6.77063L6.63466 6.41529Z" stroke="#9DA4FB" stroke-linecap="round" stroke-linejoin="round"/>
</g>
<defs>
<clipPath id="clip0_622_4748">
<rect width="16" height="16" fill="white"/>
</clipPath>
</defs>
</svg>
