<svg width="14" height="16" viewBox="0 0 14 16" fill="none" xmlns="http://www.w3.org/2000/svg">
<g id="Group">
<path id="Vector" d="M10.3333 8.66659H7.00001V5.33325M2.33334 2.33325L3.66668 1.33325M11.6667 2.33325L10.3333 1.33325" stroke="#AEAEB7" stroke-linecap="round" stroke-linejoin="round"/>
<path id="Vector_2" d="M7 14.6665C7.78793 14.6665 8.56815 14.5113 9.2961 14.2098C10.0241 13.9083 10.6855 13.4663 11.2426 12.9091C11.7998 12.352 12.2417 11.6906 12.5433 10.9626C12.8448 10.2347 13 9.45444 13 8.6665C13 7.87857 12.8448 7.09836 12.5433 6.3704C12.2417 5.64245 11.7998 4.98101 11.2426 4.42386C10.6855 3.86671 10.0241 3.42476 9.2961 3.12323C8.56815 2.8217 7.78793 2.6665 7 2.6665C5.4087 2.6665 3.88258 3.29864 2.75736 4.42386C1.63214 5.54908 1 7.07521 1 8.6665C1 10.2578 1.63214 11.7839 2.75736 12.9091C3.88258 14.0344 5.4087 14.6665 7 14.6665Z" stroke="#AEAEB7" stroke-linecap="round" stroke-linejoin="round"/>
</g>
</svg>
