<svg width="16" height="16" viewBox="0 0 16 16" fill="none" xmlns="http://www.w3.org/2000/svg">
<g id="iconoir:map-pin">
<g id="Group">
<path id="Vector (Stroke)" d="M12.8275 6.42712C12.7682 5.23247 12.2678 4.09853 11.418 3.24874C10.5682 2.39894 9.43423 1.89848 8.23957 1.83923L7.99999 1.83337C6.71811 1.83337 5.48845 2.34231 4.58202 3.24874C3.6756 4.15516 3.16666 5.38483 3.16666 6.66671C3.16666 7.1594 3.3536 7.77218 3.69726 8.46488C4.03694 9.14956 4.50897 9.87123 5.02929 10.5704C6.06954 11.9681 7.27188 13.2332 7.90689 13.8731C7.9609 13.9275 8.03908 13.9275 8.09309 13.8731C8.7281 13.2332 9.93044 11.9681 10.9707 10.5704C11.491 9.87123 11.963 9.14956 12.3027 8.46488C12.6464 7.77218 12.8333 7.1594 12.8333 6.66671L12.8275 6.42712ZM13.8333 6.66671C13.8333 7.38412 13.5702 8.15963 13.1986 8.90889C12.8228 9.66625 12.314 10.4411 11.7734 11.1674C10.6921 12.6203 9.4516 13.9237 8.80272 14.5775C8.35759 15.0261 7.6424 15.0261 7.19726 14.5775C6.54838 13.9237 5.30786 12.6203 4.22655 11.1674C3.68601 10.4411 3.17715 9.66625 2.80142 8.90889C2.42973 8.15963 2.16666 7.38412 2.16666 6.66671C2.16666 5.11961 2.78103 3.63567 3.87499 2.54171C4.96895 1.44775 6.45289 0.833374 7.99999 0.833374C9.54709 0.833374 11.031 1.44775 12.125 2.54171C13.219 3.63567 13.8333 5.11961 13.8333 6.66671Z" fill="#5863F8"/>
<path id="Vector" d="M7.99998 7.33333C8.17679 7.33333 8.34636 7.2631 8.47138 7.13807C8.59641 7.01305 8.66665 6.84348 8.66665 6.66667C8.66665 6.48986 8.59641 6.32029 8.47138 6.19526C8.34636 6.07024 8.17679 6 7.99998 6C7.82317 6 7.6536 6.07024 7.52858 6.19526C7.40355 6.32029 7.33331 6.48986 7.33331 6.66667C7.33331 6.84348 7.40355 7.01305 7.52858 7.13807C7.6536 7.2631 7.82317 7.33333 7.99998 7.33333Z" fill="#5863F8"/>
<circle id="Ellipse 919" cx="7.99998" cy="6.66667" r="1.16667" fill="#5863F8"/>
</g>
</g>
</svg>
