<svg width="24" height="23" viewBox="0 0 24 23" fill="none" xmlns="http://www.w3.org/2000/svg">
<path id="Vector" d="M8.24404 7.33973L11.1023 1.55699C11.1856 1.38964 11.3135 1.24888 11.4719 1.15049C11.6303 1.05211 11.8128 1 11.999 1C12.1852 1 12.3677 1.05211 12.5261 1.15049C12.6845 1.24888 12.8125 1.38964 12.8957 1.55699L15.754 7.33973L22.1439 8.27258C22.3282 8.29825 22.5016 8.37547 22.6444 8.49541C22.7871 8.61535 22.8934 8.77319 22.9511 8.95091C23.0088 9.12862 23.0156 9.31906 22.9707 9.50047C22.9258 9.68189 22.8311 9.84698 22.6973 9.9769L18.0743 14.4753L19.1657 20.8306C19.3054 21.6463 18.4473 22.2674 17.7134 21.8828L11.999 18.8809L6.28348 21.8828C5.55075 22.2685 4.6926 21.6463 4.83233 20.8295L5.92372 14.4742L1.30069 9.97579C1.16755 9.84578 1.07339 9.68086 1.0289 9.49977C0.984419 9.31868 0.991397 9.12868 1.04904 8.95137C1.10669 8.77406 1.2127 8.61656 1.35501 8.49676C1.49732 8.37696 1.67023 8.29967 1.85409 8.27368L8.24404 7.33973Z" fill="#9DA4FB" stroke="#9DA4FB" stroke-width="1.65" stroke-linecap="round" stroke-linejoin="round"/>
</svg>
