<svg width="375" height="812" viewBox="0 0 375 812" fill="none" xmlns="http://www.w3.org/2000/svg">
<g clip-path="url(#clip0_368_32283)">
<rect width="375" height="812" fill="url(#paint0_linear_368_32283)"/>
<g filter="url(#filter0_iif_368_32283)">
<path d="M-196.923 342.106L-182.934 376.129C-125.915 514.804 6.46486 607.729 156.264 614.231V614.231C286.373 619.879 404.796 690.953 470.978 803.115L472.941 806.442" stroke="#8C84FB" stroke-opacity="0.8" stroke-width="53.6275"/>
</g>
<g style="mix-blend-mode:color-dodge" opacity="0.2" filter="url(#filter1_f_368_32283)">
<path d="M-196.923 342.106L-182.934 376.129C-125.915 514.804 6.46486 607.729 156.264 614.231V614.231C286.373 619.879 404.796 690.953 470.978 803.115L472.941 806.442" stroke="#DACEFD" stroke-width="6"/>
</g>
<g opacity="0.62992" filter="url(#filter2_f_368_32283)">
<path d="M262.948 655.611L264.532 656.574L265.975 655.409L265.012 656.993L266.176 658.436L264.592 657.473L263.149 658.637L264.113 657.053L262.948 655.611Z" fill="white"/>
</g>
<g opacity="0.152704" filter="url(#filter3_f_368_32283)">
<path d="M305.856 599.256L307.591 599.91L308.794 598.499L308.139 600.234L309.551 601.437L307.816 600.783L306.613 602.194L307.267 600.459L305.856 599.256Z" fill="white"/>
</g>
<g opacity="0.556583" filter="url(#filter4_f_368_32283)">
<path d="M340.952 690.597L340.313 688.857L338.459 688.869L340.199 688.23L340.187 686.376L340.826 688.116L342.68 688.104L340.94 688.743L340.952 690.597Z" fill="white"/>
</g>
<path opacity="0.408674" d="M360.183 816.535L361.6 815.338L360.953 813.6L362.15 815.017L363.888 814.37L362.471 815.567L363.118 817.305L361.921 815.888L360.183 816.535Z" fill="white"/>
<g opacity="0.245719" filter="url(#filter6_f_368_32283)">
<path d="M201.498 523.06L200.73 524.748L202.058 526.041L200.37 525.274L199.077 526.602L199.844 524.914L198.516 523.621L200.204 524.388L201.498 523.06Z" fill="white"/>
</g>
<g opacity="0.510533" filter="url(#filter7_f_368_32283)">
<path d="M195.768 665.707L197.617 665.572L198.115 663.786L198.251 665.635L200.037 666.134L198.188 666.269L197.689 668.055L197.554 666.206L195.768 665.707Z" fill="white"/>
</g>
<g opacity="0.449485" filter="url(#filter8_f_368_32283)">
<path d="M292.532 566.075L290.854 565.285L289.543 566.596L290.333 564.919L289.022 563.607L290.7 564.397L292.011 563.086L291.221 564.764L292.532 566.075Z" fill="white"/>
</g>
<g opacity="0.670848" filter="url(#filter9_f_368_32283)">
<path d="M121.836 558.19L121.882 560.043L123.641 560.628L121.788 560.673L121.203 562.433L121.158 560.579L119.398 559.995L121.252 559.949L121.836 558.19Z" fill="white"/>
</g>
<g opacity="0.125897" filter="url(#filter10_f_368_32283)">
<path d="M318.029 701.05L316.286 701.681L316.29 703.535L315.659 701.792L313.804 701.796L315.548 701.165L315.544 699.311L316.175 701.054L318.029 701.05Z" fill="white"/>
</g>
<g opacity="0.452967" filter="url(#filter11_f_368_32283)">
<path d="M301.899 592.608L303.12 591.213L302.22 589.592L303.615 590.813L305.237 589.913L304.016 591.309L304.915 592.93L303.52 591.709L301.899 592.608Z" fill="white"/>
</g>
<g opacity="0.530854" filter="url(#filter12_f_368_32283)">
<path d="M309.978 761.577L308.176 761.143L307.157 762.692L307.591 760.889L306.043 759.87L307.845 760.305L308.864 758.756L308.429 760.558L309.978 761.577Z" fill="white"/>
</g>
<g opacity="0.988091" filter="url(#filter13_f_368_32283)">
<path d="M111.938 676.061L112.057 674.211L110.356 673.473L112.206 673.592L112.944 671.891L112.826 673.741L114.526 674.479L112.676 674.36L111.938 676.061Z" fill="white"/>
</g>
<g opacity="0.347097" filter="url(#filter14_f_368_32283)">
<path d="M360.877 776.56L362.7 776.898L363.635 775.297L363.297 777.12L364.898 778.056L363.075 777.717L362.139 779.318L362.478 777.495L360.877 776.56Z" fill="white"/>
</g>
<g opacity="0.0105304" filter="url(#filter15_f_368_32283)">
<path d="M3.349 668.691L1.7779 669.676L2.17261 671.488L1.18799 669.917L-0.623644 670.311L0.947454 669.327L0.552742 667.515L1.53736 669.086L3.349 668.691Z" fill="white"/>
</g>
<g opacity="0.453668" filter="url(#filter16_f_368_32283)">
<path d="M203.936 754.238L202.746 752.816L201.005 753.455L202.427 752.265L201.788 750.524L202.978 751.946L204.719 751.307L203.297 752.497L203.936 754.238Z" fill="white"/>
</g>
<g opacity="0.721295" filter="url(#filter17_f_368_32283)">
<path d="M1.49254 363.589L-0.319023 363.984L-0.56047 365.822L-0.955522 364.01L-2.79387 363.769L-0.982308 363.374L-0.740861 361.536L-0.345809 363.347L1.49254 363.589Z" fill="white"/>
</g>
<g opacity="0.629134" filter="url(#filter18_f_368_32283)">
<path d="M150.139 526.105L148.564 525.128L147.111 526.28L148.088 524.704L146.936 523.251L148.512 524.229L149.965 523.077L148.988 524.652L150.139 526.105Z" fill="white"/>
</g>
<g opacity="0.209919" filter="url(#filter19_f_368_32283)">
<path d="M1.58217 368.295L-0.194683 367.765L-1.29456 369.258L-0.76485 367.481L-2.25753 366.381L-0.480669 366.911L0.619212 365.418L0.0894978 367.195L1.58217 368.295Z" fill="white"/>
</g>
<g opacity="0.65706" filter="url(#filter20_f_368_32283)">
<path d="M57.4779 675.678L59.3066 675.984L60.2136 674.367L59.9075 676.195L61.5247 677.102L59.696 676.796L58.789 678.413L59.0951 676.585L57.4779 675.678Z" fill="white"/>
</g>
<g opacity="0.203056" filter="url(#filter21_f_368_32283)">
<path d="M39.0788 677.087L40.8579 676.565L40.9687 674.714L41.4909 676.493L43.3417 676.604L41.5626 677.126L41.4518 678.977L40.9296 677.198L39.0788 677.087Z" fill="white"/>
</g>
<g opacity="0.773962" filter="url(#filter22_f_368_32283)">
<path d="M40.2576 608.087L38.6323 607.195L37.2425 608.422L38.1349 606.797L36.9076 605.407L38.5328 606.299L39.9226 605.072L39.0303 606.697L40.2576 608.087Z" fill="white"/>
</g>
<g opacity="0.85875" filter="url(#filter23_f_368_32283)">
<path d="M234.618 497.71L236.445 497.396L236.768 495.57L237.082 497.397L238.908 497.72L237.081 498.034L236.758 499.86L236.444 498.033L234.618 497.71Z" fill="white"/>
</g>
<g opacity="0.195966" filter="url(#filter24_f_368_32283)">
<path d="M182.2 663.91L184.034 664.183L184.912 662.55L184.638 664.384L186.271 665.262L184.437 664.989L183.559 666.622L183.833 664.788L182.2 663.91Z" fill="white"/>
</g>
<g opacity="0.29676" filter="url(#filter25_f_368_32283)">
<path d="M329.187 804.174L331.036 804.317L331.796 802.626L331.653 804.474L333.344 805.235L331.495 805.092L330.735 806.783L330.878 804.934L329.187 804.174Z" fill="white"/>
</g>
<g opacity="0.0426653" filter="url(#filter26_f_368_32283)">
<path d="M75.0852 350.67L73.7918 351.998L74.6041 353.665L73.2756 352.372L71.6088 353.184L72.9022 351.855L72.0899 350.189L73.4185 351.482L75.0852 350.67Z" fill="white"/>
</g>
<g opacity="0.0669681" filter="url(#filter27_f_368_32283)">
<path d="M318.642 735.608L319.965 736.907L321.635 736.102L320.336 737.425L321.141 739.096L319.818 737.796L318.148 738.601L319.447 737.278L318.642 735.608Z" fill="white"/>
</g>
<g opacity="0.01" filter="url(#filter28_f_368_32283)">
<path d="M42.7818 616.697L44.2649 617.81L45.814 616.791L44.7012 618.274L45.7201 619.823L44.237 618.71L42.6879 619.729L43.8007 618.246L42.7818 616.697Z" fill="white"/>
</g>
<g opacity="0.0850951" filter="url(#filter29_f_368_32283)">
<path d="M34.0059 345.446L32.6218 346.679L33.3141 348.399L32.0804 347.015L30.3604 347.708L31.7446 346.474L31.0522 344.754L32.2859 346.138L34.0059 345.446Z" fill="white"/>
</g>
<g opacity="0.437286" filter="url(#filter30_f_368_32283)">
<path d="M36.7833 684.509L36.4529 686.333L38.0579 687.262L36.2334 686.931L35.3051 688.536L35.6354 686.712L34.0304 685.783L35.8549 686.114L36.7833 684.509Z" fill="white"/>
</g>
<g opacity="0.0579462" filter="url(#filter31_f_368_32283)">
<path d="M71.3379 635.038L70.0802 636.401L70.9364 638.045L69.574 636.787L67.9294 637.644L69.1871 636.281L68.3309 634.637L69.6933 635.894L71.3379 635.038Z" fill="white"/>
</g>
<g opacity="0.725187" filter="url(#filter32_f_368_32283)">
<path d="M209.492 636.138L211.345 636.068L211.906 634.301L211.976 636.154L213.743 636.715L211.89 636.785L211.329 638.552L211.259 636.699L209.492 636.138Z" fill="white"/>
</g>
<g opacity="0.500737" filter="url(#filter33_f_368_32283)">
<path d="M341.249 719.545L342.934 720.32L344.233 718.998L343.458 720.682L344.781 721.981L343.096 721.206L341.797 722.529L342.572 720.844L341.249 719.545Z" fill="white"/>
</g>
<g opacity="0.127039" filter="url(#filter34_f_368_32283)">
<path d="M337.632 796.05L337.946 794.223L336.333 793.309L338.161 793.623L339.075 792.01L338.76 793.837L340.374 794.751L338.546 794.437L337.632 796.05Z" fill="white"/>
</g>
<g opacity="0.0761755" filter="url(#filter35_f_368_32283)">
<path d="M335.948 652.76L334.372 651.782L332.919 652.934L333.897 651.359L332.745 649.906L334.32 650.883L335.773 649.731L334.796 651.307L335.948 652.76Z" fill="white"/>
</g>
<g opacity="0.260074" filter="url(#filter36_f_368_32283)">
<path d="M262.843 582.502L264.331 581.396L263.793 579.621L264.9 581.109L266.674 580.572L265.187 581.678L265.724 583.453L264.618 581.965L262.843 582.502Z" fill="white"/>
</g>
<g opacity="0.323219" filter="url(#filter37_f_368_32283)">
<path d="M23.2406 404.891L25.083 405.099L25.9029 403.436L25.6943 405.279L27.3573 406.099L25.5149 405.89L24.6951 407.553L24.9036 405.711L23.2406 404.891Z" fill="white"/>
</g>
<g opacity="0.721962" filter="url(#filter38_f_368_32283)">
<path d="M351.634 678.348L352.957 679.648L354.627 678.843L353.328 680.165L354.133 681.836L352.81 680.536L351.14 681.341L352.439 680.019L351.634 678.348Z" fill="white"/>
</g>
<g opacity="0.881065" filter="url(#filter39_f_368_32283)">
<path d="M320.4 738.779L321.837 737.608L321.222 735.859L322.393 737.297L324.142 736.681L322.705 737.852L323.32 739.601L322.149 738.164L320.4 738.779Z" fill="white"/>
</g>
<g opacity="0.974196" filter="url(#filter40_f_368_32283)">
<path d="M29.1507 549.354L27.4308 550.046L27.5004 551.899L26.8078 550.179L24.955 550.249L26.6749 549.556L26.6052 547.703L27.2979 549.423L29.1507 549.354Z" fill="white"/>
</g>
<g opacity="0.480992" filter="url(#filter41_f_368_32283)">
<path d="M267.748 635.996L265.98 635.435L264.854 636.908L265.415 635.141L263.942 634.015L265.71 634.576L266.836 633.103L266.275 634.87L267.748 635.996Z" fill="white"/>
</g>
<g opacity="0.250052" filter="url(#filter42_f_368_32283)">
<path d="M215.88 577.013L217.15 575.662L216.308 574.01L217.66 575.279L219.312 574.438L218.042 575.789L218.884 577.441L217.533 576.171L215.88 577.013Z" fill="white"/>
</g>
<g opacity="0.687632" filter="url(#filter43_f_368_32283)">
<path d="M140.592 668.284L141.987 667.063L141.31 665.337L142.532 666.732L144.258 666.055L142.863 667.276L143.54 669.002L142.318 667.607L140.592 668.284Z" fill="white"/>
</g>
<g opacity="0.924909" filter="url(#filter44_f_368_32283)">
<path d="M336.898 615.537L335.934 613.953L334.117 614.324L335.701 613.36L335.331 611.544L336.294 613.128L338.111 612.757L336.527 613.721L336.898 615.537Z" fill="white"/>
</g>
<g opacity="0.960968" filter="url(#filter45_f_368_32283)">
<path d="M306.074 681.854L307.561 680.747L307.024 678.973L308.13 680.461L309.905 679.923L308.417 681.03L308.955 682.804L307.848 681.316L306.074 681.854Z" fill="white"/>
</g>
<g opacity="0.82363" filter="url(#filter46_f_368_32283)">
<path d="M302.995 611.965L301.191 612.393L300.982 614.235L300.555 612.431L298.713 612.222L300.517 611.795L300.726 609.952L301.153 611.757L302.995 611.965Z" fill="white"/>
</g>
<g opacity="0.300281" filter="url(#filter47_f_368_32283)">
<path d="M103.714 683.141L105.529 682.762L105.787 680.926L106.166 682.741L108.002 682.999L106.187 683.378L105.929 685.214L105.55 683.399L103.714 683.141Z" fill="white"/>
</g>
<g opacity="0.830366" filter="url(#filter48_f_368_32283)">
<path d="M205.049 733.55L205.649 731.795L204.202 730.637L205.956 731.237L207.114 729.789L206.514 731.543L207.962 732.702L206.208 732.102L205.049 733.55Z" fill="white"/>
</g>
<g opacity="0.915025" filter="url(#filter49_f_368_32283)">
<path d="M175.284 545.161L173.643 544.298L172.275 545.55L173.138 543.909L171.887 542.541L173.527 543.404L174.895 542.153L174.032 543.794L175.284 545.161Z" fill="white"/>
</g>
<g opacity="0.215568" filter="url(#filter50_f_368_32283)">
<path d="M118.891 442.465L117.056 442.73L116.686 444.547L116.42 442.712L114.603 442.341L116.438 442.075L116.809 440.259L117.075 442.094L118.891 442.465Z" fill="white"/>
</g>
<g opacity="0.568229" filter="url(#filter51_f_368_32283)">
<path d="M45.4367 577.065L46.4966 578.586L48.2869 578.104L46.7656 579.164L47.248 580.954L46.1881 579.433L44.3978 579.915L45.9191 578.855L45.4367 577.065Z" fill="white"/>
</g>
<g opacity="0.885141" filter="url(#filter52_f_368_32283)">
<path d="M36.311 377.435L37.706 376.214L37.029 374.487L38.2503 375.882L39.9764 375.205L38.5814 376.427L39.2585 378.153L38.0371 376.758L36.311 377.435Z" fill="white"/>
</g>
<g opacity="0.405558" filter="url(#filter53_f_368_32283)">
<path d="M13.9106 607.005L12.0565 606.993L11.4175 608.734L11.4297 606.88L9.68912 606.241L11.5432 606.253L12.1822 604.512L12.1701 606.366L13.9106 607.005Z" fill="white"/>
</g>
<g opacity="0.523745" filter="url(#filter54_f_368_32283)">
<path d="M188.114 722.679L187.599 720.898L185.749 720.779L187.53 720.265L187.649 718.414L188.164 720.196L190.014 720.315L188.233 720.829L188.114 722.679Z" fill="white"/>
</g>
<g opacity="0.477541" filter="url(#filter55_f_368_32283)">
<path d="M70.6754 439.41L72.5138 439.651L73.363 438.003L73.1218 439.841L74.7701 440.69L72.9317 440.449L72.0825 442.097L72.3236 440.259L70.6754 439.41Z" fill="white"/>
</g>
</g>
<defs>
<filter id="filter0_iif_368_32283" x="-286.076" y="267.557" width="846.464" height="616.864" filterUnits="userSpaceOnUse" color-interpolation-filters="sRGB">
<feFlood flood-opacity="0" result="BackgroundImageFix"/>
<feBlend mode="normal" in="SourceGraphic" in2="BackgroundImageFix" result="shape"/>
<feColorMatrix in="SourceAlpha" type="matrix" values="0 0 0 0 0 0 0 0 0 0 0 0 0 0 0 0 0 0 127 0" result="hardAlpha"/>
<feOffset dy="2.1451"/>
<feGaussianBlur stdDeviation="22.7917"/>
<feComposite in2="hardAlpha" operator="arithmetic" k2="-1" k3="1"/>
<feColorMatrix type="matrix" values="0 0 0 0 0.208333 0 0 0 0 0 0 0 0 0 1 0 0 0 1 0"/>
<feBlend mode="color-burn" in2="shape" result="effect1_innerShadow_368_32283"/>
<feColorMatrix in="SourceAlpha" type="matrix" values="0 0 0 0 0 0 0 0 0 0 0 0 0 0 0 0 0 0 127 0" result="hardAlpha"/>
<feOffset/>
<feGaussianBlur stdDeviation="9.38482"/>
<feComposite in2="hardAlpha" operator="arithmetic" k2="-1" k3="1"/>
<feColorMatrix type="matrix" values="0 0 0 0 1 0 0 0 0 0 0 0 0 0 0.84 0 0 0 1 0"/>
<feBlend mode="color-dodge" in2="effect1_innerShadow_368_32283" result="effect2_innerShadow_368_32283"/>
<feGaussianBlur stdDeviation="32.1765" result="effect3_foregroundBlur_368_32283"/>
</filter>
<filter id="filter1_f_368_32283" x="-223.828" y="316.832" width="723.484" height="515.267" filterUnits="userSpaceOnUse" color-interpolation-filters="sRGB">
<feFlood flood-opacity="0" result="BackgroundImageFix"/>
<feBlend mode="normal" in="SourceGraphic" in2="BackgroundImageFix" result="shape"/>
<feGaussianBlur stdDeviation="12.0662" result="effect1_foregroundBlur_368_32283"/>
</filter>
<filter id="filter2_f_368_32283" x="262.413" y="654.874" width="4.29911" height="4.29911" filterUnits="userSpaceOnUse" color-interpolation-filters="sRGB">
<feFlood flood-opacity="0" result="BackgroundImageFix"/>
<feBlend mode="normal" in="SourceGraphic" in2="BackgroundImageFix" result="shape"/>
<feGaussianBlur stdDeviation="0.268138" result="effect1_foregroundBlur_368_32283"/>
</filter>
<filter id="filter3_f_368_32283" x="305.319" y="597.964" width="4.76786" height="4.76591" filterUnits="userSpaceOnUse" color-interpolation-filters="sRGB">
<feFlood flood-opacity="0" result="BackgroundImageFix"/>
<feBlend mode="normal" in="SourceGraphic" in2="BackgroundImageFix" result="shape"/>
<feGaussianBlur stdDeviation="0.268138" result="effect1_foregroundBlur_368_32283"/>
</filter>
<filter id="filter4_f_368_32283" x="337.921" y="685.839" width="5.29521" height="5.29521" filterUnits="userSpaceOnUse" color-interpolation-filters="sRGB">
<feFlood flood-opacity="0" result="BackgroundImageFix"/>
<feBlend mode="normal" in="SourceGraphic" in2="BackgroundImageFix" result="shape"/>
<feGaussianBlur stdDeviation="0.268138" result="effect1_foregroundBlur_368_32283"/>
</filter>
<filter id="filter6_f_368_32283" x="197.979" y="522.524" width="4.61552" height="4.61357" filterUnits="userSpaceOnUse" color-interpolation-filters="sRGB">
<feFlood flood-opacity="0" result="BackgroundImageFix"/>
<feBlend mode="normal" in="SourceGraphic" in2="BackgroundImageFix" result="shape"/>
<feGaussianBlur stdDeviation="0.268138" result="effect1_foregroundBlur_368_32283"/>
</filter>
<filter id="filter7_f_368_32283" x="195.233" y="663.249" width="5.33818" height="5.34208" filterUnits="userSpaceOnUse" color-interpolation-filters="sRGB">
<feFlood flood-opacity="0" result="BackgroundImageFix"/>
<feBlend mode="normal" in="SourceGraphic" in2="BackgroundImageFix" result="shape"/>
<feGaussianBlur stdDeviation="0.268138" result="effect1_foregroundBlur_368_32283"/>
</filter>
<filter id="filter8_f_368_32283" x="288.487" y="562.55" width="4.58036" height="4.58232" filterUnits="userSpaceOnUse" color-interpolation-filters="sRGB">
<feFlood flood-opacity="0" result="BackgroundImageFix"/>
<feBlend mode="normal" in="SourceGraphic" in2="BackgroundImageFix" result="shape"/>
<feGaussianBlur stdDeviation="0.268138" result="effect1_foregroundBlur_368_32283"/>
</filter>
<filter id="filter9_f_368_32283" x="118.862" y="557.653" width="5.31474" height="5.31669" filterUnits="userSpaceOnUse" color-interpolation-filters="sRGB">
<feFlood flood-opacity="0" result="BackgroundImageFix"/>
<feBlend mode="normal" in="SourceGraphic" in2="BackgroundImageFix" result="shape"/>
<feGaussianBlur stdDeviation="0.268138" result="effect1_foregroundBlur_368_32283"/>
</filter>
<filter id="filter10_f_368_32283" x="313.268" y="698.774" width="5.29911" height="5.29716" filterUnits="userSpaceOnUse" color-interpolation-filters="sRGB">
<feFlood flood-opacity="0" result="BackgroundImageFix"/>
<feBlend mode="normal" in="SourceGraphic" in2="BackgroundImageFix" result="shape"/>
<feGaussianBlur stdDeviation="0.268138" result="effect1_foregroundBlur_368_32283"/>
</filter>
<filter id="filter11_f_368_32283" x="301.362" y="589.056" width="4.41239" height="4.41044" filterUnits="userSpaceOnUse" color-interpolation-filters="sRGB">
<feFlood flood-opacity="0" result="BackgroundImageFix"/>
<feBlend mode="normal" in="SourceGraphic" in2="BackgroundImageFix" result="shape"/>
<feGaussianBlur stdDeviation="0.268138" result="effect1_foregroundBlur_368_32283"/>
</filter>
<filter id="filter12_f_368_32283" x="305.507" y="758.22" width="5.00614" height="5.0081" filterUnits="userSpaceOnUse" color-interpolation-filters="sRGB">
<feFlood flood-opacity="0" result="BackgroundImageFix"/>
<feBlend mode="normal" in="SourceGraphic" in2="BackgroundImageFix" result="shape"/>
<feGaussianBlur stdDeviation="0.268138" result="effect1_foregroundBlur_368_32283"/>
</filter>
<filter id="filter13_f_368_32283" x="109.819" y="671.354" width="5.24443" height="5.24247" filterUnits="userSpaceOnUse" color-interpolation-filters="sRGB">
<feFlood flood-opacity="0" result="BackgroundImageFix"/>
<feBlend mode="normal" in="SourceGraphic" in2="BackgroundImageFix" result="shape"/>
<feGaussianBlur stdDeviation="0.268138" result="effect1_foregroundBlur_368_32283"/>
</filter>
<filter id="filter14_f_368_32283" x="360.339" y="774.761" width="5.09599" height="5.09404" filterUnits="userSpaceOnUse" color-interpolation-filters="sRGB">
<feFlood flood-opacity="0" result="BackgroundImageFix"/>
<feBlend mode="normal" in="SourceGraphic" in2="BackgroundImageFix" result="shape"/>
<feGaussianBlur stdDeviation="0.268138" result="effect1_foregroundBlur_368_32283"/>
</filter>
<filter id="filter15_f_368_32283" x="-1.16128" y="666.979" width="5.04521" height="5.04521" filterUnits="userSpaceOnUse" color-interpolation-filters="sRGB">
<feFlood flood-opacity="0" result="BackgroundImageFix"/>
<feBlend mode="normal" in="SourceGraphic" in2="BackgroundImageFix" result="shape"/>
<feGaussianBlur stdDeviation="0.268138" result="effect1_foregroundBlur_368_32283"/>
</filter>
<filter id="filter16_f_368_32283" x="200.468" y="749.987" width="4.78739" height="4.78739" filterUnits="userSpaceOnUse" color-interpolation-filters="sRGB">
<feFlood flood-opacity="0" result="BackgroundImageFix"/>
<feBlend mode="normal" in="SourceGraphic" in2="BackgroundImageFix" result="shape"/>
<feGaussianBlur stdDeviation="0.268138" result="effect1_foregroundBlur_368_32283"/>
</filter>
<filter id="filter17_f_368_32283" x="-3.32924" y="360.999" width="5.35771" height="5.35966" filterUnits="userSpaceOnUse" color-interpolation-filters="sRGB">
<feFlood flood-opacity="0" result="BackgroundImageFix"/>
<feBlend mode="normal" in="SourceGraphic" in2="BackgroundImageFix" result="shape"/>
<feGaussianBlur stdDeviation="0.268138" result="effect1_foregroundBlur_368_32283"/>
</filter>
<filter id="filter18_f_368_32283" x="146.401" y="522.54" width="4.27568" height="4.27568" filterUnits="userSpaceOnUse" color-interpolation-filters="sRGB">
<feFlood flood-opacity="0" result="BackgroundImageFix"/>
<feBlend mode="normal" in="SourceGraphic" in2="BackgroundImageFix" result="shape"/>
<feGaussianBlur stdDeviation="0.268138" result="effect1_foregroundBlur_368_32283"/>
</filter>
<filter id="filter19_f_368_32283" x="-2.79409" y="364.882" width="4.91239" height="4.91239" filterUnits="userSpaceOnUse" color-interpolation-filters="sRGB">
<feFlood flood-opacity="0" result="BackgroundImageFix"/>
<feBlend mode="normal" in="SourceGraphic" in2="BackgroundImageFix" result="shape"/>
<feGaussianBlur stdDeviation="0.268138" result="effect1_foregroundBlur_368_32283"/>
</filter>
<filter id="filter20_f_368_32283" x="56.9403" y="673.831" width="5.11943" height="5.11943" filterUnits="userSpaceOnUse" color-interpolation-filters="sRGB">
<feFlood flood-opacity="0" result="BackgroundImageFix"/>
<feBlend mode="normal" in="SourceGraphic" in2="BackgroundImageFix" result="shape"/>
<feGaussianBlur stdDeviation="0.268138" result="effect1_foregroundBlur_368_32283"/>
</filter>
<filter id="filter21_f_368_32283" x="38.5418" y="674.179" width="5.33427" height="5.33427" filterUnits="userSpaceOnUse" color-interpolation-filters="sRGB">
<feFlood flood-opacity="0" result="BackgroundImageFix"/>
<feBlend mode="normal" in="SourceGraphic" in2="BackgroundImageFix" result="shape"/>
<feGaussianBlur stdDeviation="0.268138" result="effect1_foregroundBlur_368_32283"/>
</filter>
<filter id="filter22_f_368_32283" x="36.37" y="604.536" width="4.42411" height="4.42216" filterUnits="userSpaceOnUse" color-interpolation-filters="sRGB">
<feFlood flood-opacity="0" result="BackgroundImageFix"/>
<feBlend mode="normal" in="SourceGraphic" in2="BackgroundImageFix" result="shape"/>
<feGaussianBlur stdDeviation="0.268138" result="effect1_foregroundBlur_368_32283"/>
</filter>
<filter id="filter23_f_368_32283" x="234.081" y="495.034" width="5.36161" height="5.36161" filterUnits="userSpaceOnUse" color-interpolation-filters="sRGB">
<feFlood flood-opacity="0" result="BackgroundImageFix"/>
<feBlend mode="normal" in="SourceGraphic" in2="BackgroundImageFix" result="shape"/>
<feGaussianBlur stdDeviation="0.268138" result="effect1_foregroundBlur_368_32283"/>
</filter>
<filter id="filter24_f_368_32283" x="181.663" y="662.015" width="5.14286" height="5.14286" filterUnits="userSpaceOnUse" color-interpolation-filters="sRGB">
<feFlood flood-opacity="0" result="BackgroundImageFix"/>
<feBlend mode="normal" in="SourceGraphic" in2="BackgroundImageFix" result="shape"/>
<feGaussianBlur stdDeviation="0.268138" result="effect1_foregroundBlur_368_32283"/>
</filter>
<filter id="filter25_f_368_32283" x="328.651" y="802.089" width="5.2288" height="5.23075" filterUnits="userSpaceOnUse" color-interpolation-filters="sRGB">
<feFlood flood-opacity="0" result="BackgroundImageFix"/>
<feBlend mode="normal" in="SourceGraphic" in2="BackgroundImageFix" result="shape"/>
<feGaussianBlur stdDeviation="0.268138" result="effect1_foregroundBlur_368_32283"/>
</filter>
<filter id="filter26_f_368_32283" x="71.0731" y="349.653" width="4.54911" height="4.54911" filterUnits="userSpaceOnUse" color-interpolation-filters="sRGB">
<feFlood flood-opacity="0" result="BackgroundImageFix"/>
<feBlend mode="normal" in="SourceGraphic" in2="BackgroundImageFix" result="shape"/>
<feGaussianBlur stdDeviation="0.268138" result="effect1_foregroundBlur_368_32283"/>
</filter>
<filter id="filter27_f_368_32283" x="317.612" y="735.071" width="4.56083" height="4.56083" filterUnits="userSpaceOnUse" color-interpolation-filters="sRGB">
<feFlood flood-opacity="0" result="BackgroundImageFix"/>
<feBlend mode="normal" in="SourceGraphic" in2="BackgroundImageFix" result="shape"/>
<feGaussianBlur stdDeviation="0.268138" result="effect1_foregroundBlur_368_32283"/>
</filter>
<filter id="filter28_f_368_32283" x="42.1512" y="616.161" width="4.19755" height="4.19755" filterUnits="userSpaceOnUse" color-interpolation-filters="sRGB">
<feFlood flood-opacity="0" result="BackgroundImageFix"/>
<feBlend mode="normal" in="SourceGraphic" in2="BackgroundImageFix" result="shape"/>
<feGaussianBlur stdDeviation="0.268138" result="effect1_foregroundBlur_368_32283"/>
</filter>
<filter id="filter29_f_368_32283" x="29.8231" y="344.218" width="4.72099" height="4.71904" filterUnits="userSpaceOnUse" color-interpolation-filters="sRGB">
<feFlood flood-opacity="0" result="BackgroundImageFix"/>
<feBlend mode="normal" in="SourceGraphic" in2="BackgroundImageFix" result="shape"/>
<feGaussianBlur stdDeviation="0.268138" result="effect1_foregroundBlur_368_32283"/>
</filter>
<filter id="filter30_f_368_32283" x="33.495" y="683.972" width="5.09989" height="5.10185" filterUnits="userSpaceOnUse" color-interpolation-filters="sRGB">
<feFlood flood-opacity="0" result="BackgroundImageFix"/>
<feBlend mode="normal" in="SourceGraphic" in2="BackgroundImageFix" result="shape"/>
<feGaussianBlur stdDeviation="0.268138" result="effect1_foregroundBlur_368_32283"/>
</filter>
<filter id="filter31_f_368_32283" x="67.3934" y="634.1" width="4.4788" height="4.48075" filterUnits="userSpaceOnUse" color-interpolation-filters="sRGB">
<feFlood flood-opacity="0" result="BackgroundImageFix"/>
<feBlend mode="normal" in="SourceGraphic" in2="BackgroundImageFix" result="shape"/>
<feGaussianBlur stdDeviation="0.268138" result="effect1_foregroundBlur_368_32283"/>
</filter>
<filter id="filter32_f_368_32283" x="208.956" y="633.765" width="5.32255" height="5.3245" filterUnits="userSpaceOnUse" color-interpolation-filters="sRGB">
<feFlood flood-opacity="0" result="BackgroundImageFix"/>
<feBlend mode="normal" in="SourceGraphic" in2="BackgroundImageFix" result="shape"/>
<feGaussianBlur stdDeviation="0.268138" result="effect1_foregroundBlur_368_32283"/>
</filter>
<filter id="filter33_f_368_32283" x="340.714" y="718.462" width="4.6038" height="4.6038" filterUnits="userSpaceOnUse" color-interpolation-filters="sRGB">
<feFlood flood-opacity="0" result="BackgroundImageFix"/>
<feBlend mode="normal" in="SourceGraphic" in2="BackgroundImageFix" result="shape"/>
<feGaussianBlur stdDeviation="0.268138" result="effect1_foregroundBlur_368_32283"/>
</filter>
<filter id="filter34_f_368_32283" x="335.796" y="791.473" width="5.11552" height="5.11357" filterUnits="userSpaceOnUse" color-interpolation-filters="sRGB">
<feFlood flood-opacity="0" result="BackgroundImageFix"/>
<feBlend mode="normal" in="SourceGraphic" in2="BackgroundImageFix" result="shape"/>
<feGaussianBlur stdDeviation="0.268138" result="effect1_foregroundBlur_368_32283"/>
</filter>
<filter id="filter35_f_368_32283" x="332.21" y="649.194" width="4.27568" height="4.27568" filterUnits="userSpaceOnUse" color-interpolation-filters="sRGB">
<feFlood flood-opacity="0" result="BackgroundImageFix"/>
<feBlend mode="normal" in="SourceGraphic" in2="BackgroundImageFix" result="shape"/>
<feGaussianBlur stdDeviation="0.268138" result="effect1_foregroundBlur_368_32283"/>
</filter>
<filter id="filter36_f_368_32283" x="262.307" y="579.085" width="4.90458" height="4.90458" filterUnits="userSpaceOnUse" color-interpolation-filters="sRGB">
<feFlood flood-opacity="0" result="BackgroundImageFix"/>
<feBlend mode="normal" in="SourceGraphic" in2="BackgroundImageFix" result="shape"/>
<feGaussianBlur stdDeviation="0.268138" result="effect1_foregroundBlur_368_32283"/>
</filter>
<filter id="filter37_f_368_32283" x="22.7059" y="402.899" width="5.18583" height="5.18974" filterUnits="userSpaceOnUse" color-interpolation-filters="sRGB">
<feFlood flood-opacity="0" result="BackgroundImageFix"/>
<feBlend mode="normal" in="SourceGraphic" in2="BackgroundImageFix" result="shape"/>
<feGaussianBlur stdDeviation="0.268138" result="effect1_foregroundBlur_368_32283"/>
</filter>
<filter id="filter38_f_368_32283" x="350.604" y="677.811" width="4.56083" height="4.56083" filterUnits="userSpaceOnUse" color-interpolation-filters="sRGB">
<feFlood flood-opacity="0" result="BackgroundImageFix"/>
<feBlend mode="normal" in="SourceGraphic" in2="BackgroundImageFix" result="shape"/>
<feGaussianBlur stdDeviation="0.268138" result="effect1_foregroundBlur_368_32283"/>
</filter>
<filter id="filter39_f_368_32283" x="319.862" y="735.323" width="4.81474" height="4.81474" filterUnits="userSpaceOnUse" color-interpolation-filters="sRGB">
<feFlood flood-opacity="0" result="BackgroundImageFix"/>
<feBlend mode="normal" in="SourceGraphic" in2="BackgroundImageFix" result="shape"/>
<feGaussianBlur stdDeviation="0.268138" result="effect1_foregroundBlur_368_32283"/>
</filter>
<filter id="filter40_f_368_32283" x="24.4168" y="547.167" width="5.27177" height="5.26786" filterUnits="userSpaceOnUse" color-interpolation-filters="sRGB">
<feFlood flood-opacity="0" result="BackgroundImageFix"/>
<feBlend mode="normal" in="SourceGraphic" in2="BackgroundImageFix" result="shape"/>
<feGaussianBlur stdDeviation="0.268138" result="effect1_foregroundBlur_368_32283"/>
</filter>
<filter id="filter41_f_368_32283" x="263.405" y="632.567" width="4.87724" height="4.87724" filterUnits="userSpaceOnUse" color-interpolation-filters="sRGB">
<feFlood flood-opacity="0" result="BackgroundImageFix"/>
<feBlend mode="normal" in="SourceGraphic" in2="BackgroundImageFix" result="shape"/>
<feGaussianBlur stdDeviation="0.268138" result="effect1_foregroundBlur_368_32283"/>
</filter>
<filter id="filter42_f_368_32283" x="215.343" y="573.473" width="4.50614" height="4.50419" filterUnits="userSpaceOnUse" color-interpolation-filters="sRGB">
<feFlood flood-opacity="0" result="BackgroundImageFix"/>
<feBlend mode="normal" in="SourceGraphic" in2="BackgroundImageFix" result="shape"/>
<feGaussianBlur stdDeviation="0.268138" result="effect1_foregroundBlur_368_32283"/>
</filter>
<filter id="filter43_f_368_32283" x="140.057" y="664.802" width="4.73661" height="4.73661" filterUnits="userSpaceOnUse" color-interpolation-filters="sRGB">
<feFlood flood-opacity="0" result="BackgroundImageFix"/>
<feBlend mode="normal" in="SourceGraphic" in2="BackgroundImageFix" result="shape"/>
<feGaussianBlur stdDeviation="0.268138" result="effect1_foregroundBlur_368_32283"/>
</filter>
<filter id="filter44_f_368_32283" x="333.581" y="611.007" width="5.06474" height="5.06669" filterUnits="userSpaceOnUse" color-interpolation-filters="sRGB">
<feFlood flood-opacity="0" result="BackgroundImageFix"/>
<feBlend mode="normal" in="SourceGraphic" in2="BackgroundImageFix" result="shape"/>
<feGaussianBlur stdDeviation="0.268138" result="effect1_foregroundBlur_368_32283"/>
</filter>
<filter id="filter45_f_368_32283" x="305.538" y="678.436" width="4.90458" height="4.90458" filterUnits="userSpaceOnUse" color-interpolation-filters="sRGB">
<feFlood flood-opacity="0" result="BackgroundImageFix"/>
<feBlend mode="normal" in="SourceGraphic" in2="BackgroundImageFix" result="shape"/>
<feGaussianBlur stdDeviation="0.268138" result="effect1_foregroundBlur_368_32283"/>
</filter>
<filter id="filter46_f_368_32283" x="298.175" y="609.417" width="5.35771" height="5.3538" filterUnits="userSpaceOnUse" color-interpolation-filters="sRGB">
<feFlood flood-opacity="0" result="BackgroundImageFix"/>
<feBlend mode="normal" in="SourceGraphic" in2="BackgroundImageFix" result="shape"/>
<feGaussianBlur stdDeviation="0.268138" result="effect1_foregroundBlur_368_32283"/>
</filter>
<filter id="filter47_f_368_32283" x="103.179" y="680.39" width="5.35771" height="5.36161" filterUnits="userSpaceOnUse" color-interpolation-filters="sRGB">
<feFlood flood-opacity="0" result="BackgroundImageFix"/>
<feBlend mode="normal" in="SourceGraphic" in2="BackgroundImageFix" result="shape"/>
<feGaussianBlur stdDeviation="0.268138" result="effect1_foregroundBlur_368_32283"/>
</filter>
<filter id="filter48_f_368_32283" x="203.667" y="729.253" width="4.83036" height="4.83232" filterUnits="userSpaceOnUse" color-interpolation-filters="sRGB">
<feFlood flood-opacity="0" result="BackgroundImageFix"/>
<feBlend mode="normal" in="SourceGraphic" in2="BackgroundImageFix" result="shape"/>
<feGaussianBlur stdDeviation="0.268138" result="effect1_foregroundBlur_368_32283"/>
</filter>
<filter id="filter49_f_368_32283" x="171.35" y="541.616" width="4.47099" height="4.46904" filterUnits="userSpaceOnUse" color-interpolation-filters="sRGB">
<feFlood flood-opacity="0" result="BackgroundImageFix"/>
<feBlend mode="normal" in="SourceGraphic" in2="BackgroundImageFix" result="shape"/>
<feGaussianBlur stdDeviation="0.268138" result="effect1_foregroundBlur_368_32283"/>
</filter>
<filter id="filter50_f_368_32283" x="114.065" y="439.722" width="5.36161" height="5.36161" filterUnits="userSpaceOnUse" color-interpolation-filters="sRGB">
<feFlood flood-opacity="0" result="BackgroundImageFix"/>
<feBlend mode="normal" in="SourceGraphic" in2="BackgroundImageFix" result="shape"/>
<feGaussianBlur stdDeviation="0.268138" result="effect1_foregroundBlur_368_32283"/>
</filter>
<filter id="filter51_f_368_32283" x="43.8622" y="576.528" width="4.95927" height="4.96318" filterUnits="userSpaceOnUse" color-interpolation-filters="sRGB">
<feFlood flood-opacity="0" result="BackgroundImageFix"/>
<feBlend mode="normal" in="SourceGraphic" in2="BackgroundImageFix" result="shape"/>
<feGaussianBlur stdDeviation="0.268138" result="effect1_foregroundBlur_368_32283"/>
</filter>
<filter id="filter52_f_368_32283" x="35.7762" y="373.952" width="4.73661" height="4.73661" filterUnits="userSpaceOnUse" color-interpolation-filters="sRGB">
<feFlood flood-opacity="0" result="BackgroundImageFix"/>
<feBlend mode="normal" in="SourceGraphic" in2="BackgroundImageFix" result="shape"/>
<feGaussianBlur stdDeviation="0.268138" result="effect1_foregroundBlur_368_32283"/>
</filter>
<filter id="filter53_f_368_32283" x="9.15122" y="603.975" width="5.29521" height="5.29521" filterUnits="userSpaceOnUse" color-interpolation-filters="sRGB">
<feFlood flood-opacity="0" result="BackgroundImageFix"/>
<feBlend mode="normal" in="SourceGraphic" in2="BackgroundImageFix" result="shape"/>
<feGaussianBlur stdDeviation="0.268138" result="effect1_foregroundBlur_368_32283"/>
</filter>
<filter id="filter54_f_368_32283" x="185.214" y="717.878" width="5.33818" height="5.33818" filterUnits="userSpaceOnUse" color-interpolation-filters="sRGB">
<feFlood flood-opacity="0" result="BackgroundImageFix"/>
<feBlend mode="normal" in="SourceGraphic" in2="BackgroundImageFix" result="shape"/>
<feGaussianBlur stdDeviation="0.268138" result="effect1_foregroundBlur_368_32283"/>
</filter>
<filter id="filter55_f_368_32283" x="70.1395" y="437.466" width="5.1663" height="5.16825" filterUnits="userSpaceOnUse" color-interpolation-filters="sRGB">
<feFlood flood-opacity="0" result="BackgroundImageFix"/>
<feBlend mode="normal" in="SourceGraphic" in2="BackgroundImageFix" result="shape"/>
<feGaussianBlur stdDeviation="0.268138" result="effect1_foregroundBlur_368_32283"/>
</filter>
<linearGradient id="paint0_linear_368_32283" x1="187.5" y1="0" x2="187.5" y2="812" gradientUnits="userSpaceOnUse">
<stop stop-color="#0B0C1E"/>
<stop offset="0.908654" stop-color="#393084"/>
</linearGradient>
<clipPath id="clip0_368_32283">
<rect width="375" height="812" fill="white"/>
</clipPath>
</defs>
</svg>
