<svg width="80" height="80" viewBox="0 0 80 80" fill="none" xmlns="http://www.w3.org/2000/svg">
<g filter="url(#filter0_d_1466_14525)">
<rect x="10" y="9.99998" width="60" height="60" rx="30" fill="#774BFA" fill-opacity="0.3" shape-rendering="crispEdges"/>
<rect x="10.75" y="10.75" width="58.5" height="58.5" rx="29.25" stroke="url(#paint0_radial_1466_14525)" stroke-width="1.5" shape-rendering="crispEdges"/>
<path d="M44.2349 36.4961C44.6469 36.0848 45.2977 36.0596 45.7393 36.4199L45.8257 36.4975L46.5991 37.271C47.0379 37.7105 47.0371 38.4228 46.5977 38.8618C46.1582 39.3004 45.4459 39.3009 45.0068 38.8618L44.2334 38.0869L44.1558 38.0019C43.7958 37.56 43.8232 36.9077 44.2349 36.4961Z" fill="#FAFAFA"/>
<path d="M43.5024 34.1743C43.9417 34.6133 43.9426 35.3256 43.5039 35.7651C43.065 36.2041 42.3526 36.205 41.9131 35.7666L43.5024 34.1743Z" fill="#FAFAFA"/>
<path d="M41.1382 33.4023C41.5497 32.9905 42.2006 32.9636 42.6426 33.3232L42.729 33.4009L43.5024 34.1743L42.707 34.9697L41.9131 35.7666L41.1382 34.9931L41.0605 34.9067C40.7006 34.4652 40.7271 33.8142 41.1382 33.4023Z" fill="#FAFAFA"/>
<path d="M40.4087 31.0791C40.8478 31.5184 40.848 32.2321 40.4087 32.6714C39.9694 33.1103 39.2556 33.1104 38.8164 32.6714L40.4087 31.0791Z" fill="#FAFAFA"/>
<path fill-rule="evenodd" clip-rule="evenodd" d="M44.3945 23.1323C44.6686 23.1596 44.9285 23.267 45.1416 23.4414L45.2441 23.5337L48.3437 26.6377L48.4331 26.7344C48.6012 26.9357 48.7096 27.1805 48.7451 27.4404L48.7568 27.5708L48.7554 27.7026C48.7394 28.0083 48.6231 28.3014 48.4229 28.5361L48.4214 28.539C48.0676 28.9517 47.8822 29.4827 47.9028 30.0259C47.9235 30.5685 48.1478 31.0843 48.5312 31.4687L48.6821 31.605C49.0464 31.9054 49.5015 32.0798 49.977 32.0972C50.5204 32.1169 51.0517 31.9303 51.4639 31.5757L51.4668 31.5727L51.5708 31.4922C51.7855 31.3415 52.0384 31.254 52.3003 31.2402H52.4321L52.5625 31.2519C52.8643 31.2931 53.1455 31.4317 53.3623 31.6489L56.4648 34.7514L56.5586 34.854C56.7624 35.1028 56.875 35.4158 56.875 35.7402C56.875 36.0646 56.7623 36.3777 56.5586 36.6264L56.4648 36.729L51.5195 41.6743C51.2136 41.9804 50.8403 42.2099 50.4297 42.3467L50.4312 42.3481C50.3519 42.3747 50.2792 42.4193 50.2202 42.4785C50.1614 42.5377 50.1175 42.6102 50.0913 42.6894L50.0898 42.6909C49.9531 43.1013 49.723 43.4746 49.4175 43.7807L36.7334 56.4648C36.4712 56.7269 36.114 56.875 35.7432 56.875C35.3726 56.8748 35.0179 56.7268 34.7559 56.4648L31.6519 53.3623C31.4042 53.1146 31.2578 52.7821 31.2432 52.4321C31.2284 52.08 31.3471 51.7349 31.5757 51.4668L31.5786 51.4639L31.7031 51.3042C31.9759 50.9187 32.1165 50.4526 32.0986 49.977C32.078 49.4334 31.8519 48.9174 31.4673 48.5327C31.0826 48.148 30.5666 47.922 30.0229 47.9014C29.4795 47.8809 28.9487 48.0671 28.5361 48.4214L28.5332 48.4228C28.265 48.6516 27.92 48.7715 27.5679 48.7568C27.2157 48.7421 26.8814 48.5941 26.6333 48.3437L23.5352 45.2441C23.3062 45.0148 23.1642 44.7141 23.1323 44.3945L23.125 44.2554L23.1323 44.1177C23.1641 43.7977 23.3044 43.496 23.5337 43.2666L36.2178 30.5854L36.4609 30.3701C36.7139 30.1704 37.0003 30.0156 37.3076 29.9131L37.4204 29.8603C37.4555 29.8385 37.4877 29.8122 37.5171 29.7827C37.5762 29.7234 37.6212 29.6512 37.6475 29.5718L37.7676 29.27C37.9045 28.9773 38.0916 28.71 38.3213 28.4805L43.2666 23.5351L43.3691 23.4414C43.6179 23.2375 43.931 23.1251 44.2554 23.125L44.3945 23.1323ZM39.9121 30.0713C39.8534 30.13 39.8095 30.202 39.7832 30.2807C39.7692 30.3228 39.7493 30.3626 39.7334 30.4038L40.4087 31.0791L39.6118 31.8745L38.8164 32.6714L38.1426 31.9975C38.1018 32.0134 38.0626 32.0334 38.021 32.0473C37.9814 32.0606 37.9421 32.0783 37.9067 32.1001L37.8086 32.1777L25.7266 44.2554L27.7217 46.2505C28.4399 45.8317 29.2677 45.6209 30.1094 45.6528C31.2196 45.6951 32.2725 46.1563 33.0581 46.9419C33.8437 47.7275 34.3035 48.7804 34.3457 49.8906C34.3776 50.7321 34.1667 51.5587 33.748 52.2768L35.7432 54.2705L47.8267 42.1899C47.8851 42.1309 47.9292 42.0593 47.9556 41.9805C47.9695 41.9386 47.9881 41.8985 48.0039 41.8574L47.3286 41.1821L47.2524 41.0972C46.892 40.6554 46.917 40.0033 47.3286 39.5913C47.7406 39.1793 48.3926 39.1545 48.8345 39.5151L48.9194 39.5913L49.5918 40.2637C49.6338 40.2473 49.6749 40.2282 49.7178 40.2139L49.8306 40.1611C49.8658 40.1394 49.8992 40.1144 49.9287 40.0849L54.272 35.7402L52.2769 33.7451C51.56 34.1635 50.7354 34.3763 49.895 34.3457C48.785 34.3051 47.7302 33.8465 46.9434 33.0625L46.9419 33.061C46.1566 32.2755 45.6967 31.2222 45.6543 30.1123C45.6222 29.2711 45.8324 28.4442 46.2505 27.7261L44.2554 25.7265L39.9121 30.0713Z" fill="#FAFAFA"/>
</g>
<defs>
<filter id="filter0_d_1466_14525" x="0" y="-1.52588e-05" width="80" height="80" filterUnits="userSpaceOnUse" color-interpolation-filters="sRGB">
<feFlood flood-opacity="0" result="BackgroundImageFix"/>
<feColorMatrix in="SourceAlpha" type="matrix" values="0 0 0 0 0 0 0 0 0 0 0 0 0 0 0 0 0 0 127 0" result="hardAlpha"/>
<feOffset/>
<feGaussianBlur stdDeviation="5"/>
<feComposite in2="hardAlpha" operator="out"/>
<feColorMatrix type="matrix" values="0 0 0 0 1 0 0 0 0 0.357121 0 0 0 0 0.357121 0 0 0 0.15 0"/>
<feBlend mode="normal" in2="BackgroundImageFix" result="effect1_dropShadow_1466_14525"/>
<feBlend mode="normal" in="SourceGraphic" in2="effect1_dropShadow_1466_14525" result="shape"/>
</filter>
<radialGradient id="paint0_radial_1466_14525" cx="0" cy="0" r="1" gradientUnits="userSpaceOnUse" gradientTransform="translate(50.5 22) rotate(122.196) scale(47.8592)">
<stop stop-color="#5863F8"/>
<stop offset="0.49351" stop-color="#CED1FD"/>
<stop offset="0.755321" stop-color="#F1F1F3"/>
<stop offset="1" stop-color="#906CF9"/>
</radialGradient>
</defs>
</svg>
