<svg width="60" height="60" viewBox="0 0 60 60" fill="none" xmlns="http://www.w3.org/2000/svg">
<rect x="0.75" y="0.75" width="58.5" height="58.5" rx="29.25" fill="#774BFA" fill-opacity="0.3"/>
<rect x="0.75" y="0.75" width="58.5" height="58.5" rx="29.25" stroke="url(#paint0_radial_1440_13816)" stroke-width="1.5"/>
<path d="M15.3824 23.0212C19.1088 15.3468 28.2413 11.8631 36.1832 15.2341C44.3805 18.7139 48.2053 28.1801 44.7261 36.3776C43.7421 38.7059 42.2258 40.757 40.314 42.3762H45.0001C45.621 42.3766 46.1251 42.8801 46.1251 43.5012C46.1247 44.1219 45.6208 44.6258 45.0001 44.6262H38.3995C37.863 44.626 37.3479 44.4121 36.9683 44.0329C36.5889 43.6534 36.3754 43.1383 36.3751 42.6017V36.0012C36.3751 35.3798 36.8787 34.8762 37.5001 34.8762C38.121 34.8766 38.6251 35.3801 38.6251 36.0012V40.8513C40.3795 39.4305 41.7675 37.5965 42.6534 35.5002L42.6548 35.4987C45.6486 28.445 42.3576 20.2998 35.3043 17.3054C28.4708 14.4049 20.6135 17.4023 17.4068 24.0056L17.1109 24.6559C14.4783 30.8566 16.7034 37.9044 22.0738 41.55L22.6041 41.8928L22.6993 41.9572C23.1523 42.3032 23.2779 42.9434 22.9732 43.4396C22.6683 43.9357 22.0408 44.1122 21.5274 43.8644L21.4263 43.8088L20.8111 43.4118C14.5676 39.1742 11.9793 30.9855 15.0396 23.777L15.3824 23.0212Z" fill="#FAFAFA"/>
<defs>
<radialGradient id="paint0_radial_1440_13816" cx="0" cy="0" r="1" gradientUnits="userSpaceOnUse" gradientTransform="translate(40.5 12) rotate(122.196) scale(47.8592)">
<stop stop-color="#5863F8"/>
<stop offset="0.49351" stop-color="#CED1FD"/>
<stop offset="0.755321" stop-color="#F1F1F3"/>
<stop offset="1" stop-color="#906CF9"/>
</radialGradient>
</defs>
</svg>
