<svg width="80" height="80" viewBox="0 0 80 80" fill="none" xmlns="http://www.w3.org/2000/svg">
<g filter="url(#filter0_d_1337_13592)">
<rect x="10" y="9.99998" width="60" height="60" rx="30" fill="#774BFA" fill-opacity="0.3" shape-rendering="crispEdges"/>
<rect x="10.75" y="10.75" width="58.5" height="58.5" rx="29.25" stroke="url(#paint0_radial_1337_13592)" stroke-width="1.5" shape-rendering="crispEdges"/>
<path d="M47.7378 32.2655C47.1529 31.6804 46.8104 30.896 46.7788 30.0693C46.7473 29.2425 47.029 28.4343 47.5676 27.8063C47.6122 27.7541 47.6354 27.6869 47.6325 27.6183C47.6296 27.5498 47.6009 27.4848 47.5522 27.4365L44.4493 24.3301C44.398 24.2788 44.3284 24.25 44.2559 24.25C44.1834 24.25 44.1139 24.2788 44.0626 24.3301L39.1168 29.2758C38.9343 29.4582 38.7968 29.6807 38.7153 29.9255C38.6341 30.1709 38.4968 30.394 38.3143 30.577C38.1318 30.7601 37.9092 30.8982 37.6641 30.9802C37.4192 31.0618 37.1965 31.1993 37.0137 31.3817L24.3301 44.0625C24.2788 44.1138 24.25 44.1834 24.25 44.2559C24.25 44.3284 24.2788 44.398 24.3301 44.4493L27.433 47.5522C27.4813 47.6009 27.5463 47.6296 27.6148 47.6325C27.6834 47.6353 27.7506 47.6122 27.8028 47.5676C28.4307 47.0284 29.239 46.7462 30.0661 46.7776C30.8931 46.8089 31.6778 47.1515 32.263 47.7368C32.8483 48.322 33.1909 49.1067 33.2222 49.9337C33.2536 50.7608 32.9714 51.5691 32.4322 52.197C32.3876 52.2492 32.3645 52.3164 32.3673 52.385C32.3702 52.4535 32.3989 52.5185 32.4476 52.5668L35.5505 55.6697C35.6018 55.721 35.6714 55.7498 35.7439 55.7498C35.8164 55.7498 35.886 55.721 35.9373 55.6697L48.6216 42.9861C48.804 42.8033 48.9415 42.5806 49.0231 42.3357C49.1043 42.0903 49.2416 41.8672 49.4241 41.6842C49.6066 41.5011 49.8292 41.363 50.0743 41.281C50.3191 41.1995 50.5416 41.062 50.724 40.8795L55.6698 35.9337C55.721 35.8824 55.7498 35.8129 55.7498 35.7404C55.7498 35.6678 55.721 35.5983 55.6698 35.547L52.5669 32.4441C52.5185 32.3954 52.4536 32.3667 52.385 32.3638C52.3164 32.3609 52.2492 32.3841 52.197 32.4286C51.5699 32.9682 50.7622 33.2511 49.9354 33.2209C49.1087 33.1907 48.3238 32.8495 47.7378 32.2655Z" stroke="#FAFAFA" stroke-width="2.25" stroke-miterlimit="10"/>
<path d="M39.6125 31.8747L38.4517 30.7138M42.7077 34.9698L41.9335 34.1964M45.8028 38.0657L45.0294 37.2915M49.2854 41.5475L48.1245 40.3867" stroke="#FAFAFA" stroke-width="2.25" stroke-miterlimit="10" stroke-linecap="round"/>
</g>
<defs>
<filter id="filter0_d_1337_13592" x="0" y="-1.52588e-05" width="80" height="80" filterUnits="userSpaceOnUse" color-interpolation-filters="sRGB">
<feFlood flood-opacity="0" result="BackgroundImageFix"/>
<feColorMatrix in="SourceAlpha" type="matrix" values="0 0 0 0 0 0 0 0 0 0 0 0 0 0 0 0 0 0 127 0" result="hardAlpha"/>
<feOffset/>
<feGaussianBlur stdDeviation="5"/>
<feComposite in2="hardAlpha" operator="out"/>
<feColorMatrix type="matrix" values="0 0 0 0 1 0 0 0 0 0.357121 0 0 0 0 0.357121 0 0 0 0.15 0"/>
<feBlend mode="normal" in2="BackgroundImageFix" result="effect1_dropShadow_1337_13592"/>
<feBlend mode="normal" in="SourceGraphic" in2="effect1_dropShadow_1337_13592" result="shape"/>
</filter>
<radialGradient id="paint0_radial_1337_13592" cx="0" cy="0" r="1" gradientUnits="userSpaceOnUse" gradientTransform="translate(50.5 22) rotate(122.196) scale(47.8592)">
<stop stop-color="#5863F8"/>
<stop offset="0.49351" stop-color="#CED1FD"/>
<stop offset="0.755321" stop-color="#F1F1F3"/>
<stop offset="1" stop-color="#906CF9"/>
</radialGradient>
</defs>
</svg>
