<svg width="40" height="40" viewBox="0 0 40 40" fill="none" xmlns="http://www.w3.org/2000/svg">
<rect x="0.5" y="0.5" width="39" height="39" rx="19.5" fill="#774BFA" fill-opacity="0.3"/>
<rect x="0.5" y="0.5" width="39" height="39" rx="19.5" stroke="url(#paint0_radial_1466_14484)"/>
<path d="M16.9998 11.2595C17.3881 11.2595 17.7724 11.3416 18.1267 11.5007C18.4809 11.6598 18.7975 11.8922 19.0554 12.1824L19.9998 13.2449L20.9441 12.1833L21.0437 12.0779C21.2819 11.8368 21.5629 11.641 21.8728 11.5017C22.227 11.3426 22.6115 11.2606 22.9998 11.2605C23.388 11.2605 23.7725 11.3427 24.1267 11.5017C24.4808 11.6608 24.7975 11.8932 25.0554 12.1833L30.3796 18.1736L30.5378 18.3689C30.8848 18.8397 31.074 19.4115 31.074 20.0007C31.0739 20.5898 30.8846 21.1609 30.5378 21.6316L30.3796 21.8269L25.0554 27.8171C24.7975 28.1073 24.4808 28.3397 24.1267 28.4988C23.7725 28.6578 23.388 28.74 22.9998 28.74C22.6115 28.7399 22.227 28.6579 21.8728 28.4988C21.5631 28.3596 21.2818 28.1645 21.0437 27.9236L20.9441 27.8171L19.9998 26.7537L19.0554 27.8171C18.7975 28.1074 18.481 28.3397 18.1267 28.4988C17.7724 28.6579 17.3882 28.74 16.9998 28.74C16.6114 28.74 16.2271 28.6579 15.8728 28.4988C15.563 28.3596 15.2818 28.1646 15.0437 27.9236L14.9441 27.8171L9.62085 21.8269C9.17323 21.3235 8.92554 20.6734 8.92554 19.9998C8.9256 19.3262 9.17324 18.676 9.62085 18.1726L14.9441 12.1824L15.0437 12.0769C15.2819 11.8357 15.5628 11.64 15.8728 11.5007C16.2271 11.3416 16.6114 11.2596 16.9998 11.2595ZM16.9998 12.7595C16.8234 12.7596 16.6489 12.7967 16.488 12.8689C16.3671 12.9232 16.2556 12.9967 16.158 13.0857L16.0652 13.1794L10.7419 19.1697C10.5387 19.3984 10.4256 19.6938 10.4255 19.9998C10.4255 20.3059 10.5376 20.602 10.741 20.8308L16.0652 26.821L16.158 26.9148C16.2555 27.0037 16.3672 27.0763 16.488 27.1306C16.649 27.2029 16.8233 27.24 16.9998 27.24C17.1763 27.24 17.3514 27.203 17.5125 27.1306C17.6733 27.0583 17.8172 26.9529 17.9343 26.821L23.2585 20.8308L23.3308 20.7419C23.4886 20.5279 23.574 20.2677 23.574 19.9998L23.5691 19.8855C23.5482 19.6587 23.4659 19.4419 23.3308 19.2585L23.2585 19.1697L17.9343 13.1794C17.8171 13.0475 17.6734 12.9412 17.5125 12.8689C17.3514 12.7966 17.1763 12.7595 16.9998 12.7595ZM22.9998 12.7605C22.8235 12.7606 22.6488 12.7977 22.488 12.8699C22.3672 12.9242 22.2555 12.9978 22.158 13.0867L22.0652 13.1804L21.0027 14.3738L24.3796 18.1726L24.5378 18.3679C24.8851 18.8388 25.0739 19.4103 25.074 19.9998L25.0632 20.2517C25.0174 20.7509 24.8353 21.2281 24.5378 21.6316L24.3796 21.8269L21.0027 25.6248L22.0652 26.821L22.158 26.9148C22.2554 27.0035 22.3673 27.0764 22.488 27.1306C22.6489 27.2028 22.8235 27.2399 22.9998 27.24C23.1761 27.24 23.3506 27.2028 23.5115 27.1306C23.6724 27.0583 23.8171 26.9529 23.9343 26.821L29.2585 20.8308L29.3298 20.7419C29.4875 20.528 29.5739 20.2685 29.574 20.0007C29.574 19.6947 29.4619 19.3985 29.2585 19.1697L23.9343 13.1804C23.8171 13.0485 23.6724 12.9422 23.5115 12.8699C23.3506 12.7978 23.176 12.7605 22.9998 12.7605Z" fill="#F1F1F3"/>
<defs>
<radialGradient id="paint0_radial_1466_14484" cx="0" cy="0" r="1" gradientUnits="userSpaceOnUse" gradientTransform="translate(27 8) rotate(122.196) scale(31.9061)">
<stop stop-color="#5863F8"/>
<stop offset="0.49351" stop-color="#CED1FD"/>
<stop offset="0.755321" stop-color="#F1F1F3"/>
<stop offset="1" stop-color="#906CF9"/>
</radialGradient>
</defs>
</svg>
