<svg width="278" height="514" viewBox="0 0 278 514" fill="none" xmlns="http://www.w3.org/2000/svg">
<line x1="38.63" y1="287.76" x2="90.4857" y2="382.496" stroke="#5D78FF" stroke-opacity="0.7"/>
<line x1="138.132" y1="194.518" x2="211.132" y2="214.518" stroke="#5D78FF" stroke-opacity="0.7"/>
<line x1="130.462" y1="60.5798" x2="206.104" y2="109.349" stroke="#5D78FF" stroke-opacity="0.7"/>
<line x1="93.4715" y1="385.834" x2="135.471" y2="504.834" stroke="#5D78FF" stroke-opacity="0.7"/>
<line x1="213.386" y1="225.317" x2="93.3863" y2="371.317" stroke="#5D78FF" stroke-opacity="0.7"/>
<line x1="82.3303" y1="386.375" x2="7.33031" y2="452.375" stroke="#5D78FF" stroke-opacity="0.7"/>
<line x1="227.369" y1="224.662" x2="271.369" y2="272.662" stroke="#5D78FF" stroke-opacity="0.7"/>
<line x1="34.492" y1="303.089" x2="7.49199" y2="452.089" stroke="#5D78FF" stroke-opacity="0.7"/>
<line x1="123.37" y1="198.337" x2="42.3698" y2="287.337" stroke="#5D78FF" stroke-opacity="0.7"/>
<line x1="110.453" y1="148.788" x2="125.453" y2="180.788" stroke="#5D78FF" stroke-opacity="0.7"/>
<line x1="206.256" y1="121.933" x2="213.691" y2="215.961" stroke="#5D78FF" stroke-opacity="0.7"/>
<line x1="240.608" y1="64.2765" x2="207.416" y2="114.277" stroke="#5D78FF" stroke-opacity="0.7"/>
<line x1="217.641" y1="6.7802" x2="239.621" y2="51.6898" stroke="#5D78FF" stroke-opacity="0.7"/>
<line x1="130.66" y1="64.1732" x2="106.66" y2="129.173" stroke="#5D78FF" stroke-opacity="0.7"/>
<line x1="208.484" y1="1.40577" x2="133.822" y2="55.1618" stroke="#5D78FF" stroke-opacity="0.7"/>
</svg>
