<svg width="311" height="180" viewBox="0 0 311 180" fill="none" xmlns="http://www.w3.org/2000/svg">
<path d="M98 3.2C98 1.43269 99.4327 0 101.2 0H174.8C176.567 0 178 1.43269 178 3.2V35.2C178 36.9673 176.567 38.4 174.8 38.4H101.2C99.4327 38.4 98 36.9673 98 35.2V3.2Z" fill="#787887"/>
<path d="M125.832 15.28V24.03H124.943V15.28H125.832ZM124.055 15.4656V23.5906H123.176V19.1375H121.818V18.3757H123.176V15.4656H124.055ZM120.959 17.7214C120.959 19.2156 121.564 20.7097 122.795 21.4226L122.238 22.1062C121.403 21.6082 120.827 20.7244 120.529 19.6648C120.212 20.8074 119.616 21.7791 118.762 22.3113L118.195 21.6179C119.436 20.866 120.07 19.2742 120.07 17.7214V17.0183H118.459V16.2664H122.463V17.0183H120.959V17.7214ZM131.755 16.1296V23.2H130.671V17.2039H130.631L128.942 18.3074V17.282L130.7 16.1296H131.755ZM137.802 16.2175V16.7546C137.802 17.4871 137.802 18.6199 137.548 20.1824L136.63 20.114C136.85 18.7126 136.874 17.7019 136.884 16.9695H133.329V16.2175H137.802ZM135.556 18.7175V21.3347C136.488 21.3054 137.436 21.2419 138.31 21.1296L138.358 21.823C136.532 22.116 134.501 22.155 132.948 22.1453L132.841 21.3933C133.388 21.3884 133.998 21.3835 134.638 21.364V18.7175H135.556ZM139.745 15.28V18.8933H141.083V19.6843H139.745V24.03H138.808V15.28H139.745ZM146.476 16.1687V16.9109H141.261V16.1687H143.409V15.241H144.337V16.1687H146.476ZM143.868 17.3015C145.128 17.3113 145.988 17.9363 145.988 18.8933C145.988 19.8503 145.128 20.4851 143.868 20.4851C142.599 20.4851 141.74 19.8503 141.74 18.8933C141.74 17.9363 142.599 17.3113 143.868 17.3015ZM143.868 18.0144C143.126 18.0144 142.628 18.3562 142.638 18.8933C142.628 19.4402 143.126 19.7625 143.868 19.7625C144.611 19.7625 145.109 19.4402 145.118 18.8933C145.109 18.3562 144.611 18.0144 143.868 18.0144ZM148.126 15.28V17.6531H149.396V18.4246H148.126V20.7488H147.199V15.28H148.126ZM148.126 21.198V24.03H147.199V21.95H142.345V21.198H148.126ZM154.447 15.9441V16.4324C154.437 17.0183 154.437 17.8875 154.222 19.0203L153.304 18.9324C153.495 17.9607 153.524 17.2576 153.539 16.7058H150.033V15.9441H154.447ZM152.211 17.907V19.7136C153.148 19.6843 154.115 19.616 154.994 19.489L155.052 20.1628C153.226 20.4851 151.136 20.5144 149.593 20.5242L149.505 19.7722C150.043 19.7673 150.653 19.7625 151.293 19.7429V17.907H152.211ZM156.498 15.28V18.0632H157.699V18.8445H156.498V21.8523H155.55V15.28H156.498ZM156.781 23.0925V23.8445H150.834V21.2566H151.761V23.0925H156.781Z" fill="#FAFAFA"/>
<g filter="url(#filter0_d_994_9576)">
<path d="M54 27.2C54 25.4327 55.4327 24 57.2 24H90.8C92.5673 24 94 25.4327 94 27.2V100.8C94 102.567 92.5673 104 90.8 104H57.2C55.4327 104 54 102.567 54 100.8V27.2Z" fill="url(#paint0_linear_994_9576)" shape-rendering="crispEdges"/>
<path d="M73.8165 60.8281H64.9434V59.8291H68.7569V57.917H65.7061V56.9717H67.0704V54.0713H65.6739V53.1045H73.043V54.0713H71.6251V56.9717H73.0108V57.917H69.9385V59.8291H73.8165V60.8281ZM70.4434 56.9717V54.0713H68.2628V56.9717H70.4434ZM82.0898 58.0889H79.2216V59.8613H83.0673V60.8174H74.1943V59.8613H78.0185V58.0889H75.2792V52.9648H82.0038V53.9316H76.4931V55.0273H81.7783V55.9727H76.4931V57.1328H82.0898V58.0889ZM63.5881 71.2822H56.7776V66.0078H63.5022V66.9746H57.9914V68.1455H63.2766V69.0801H57.9914V70.3369H63.5881V71.2822ZM64.5656 73.7744H55.6926V72.7969H64.5656V73.7744ZM68.6817 69.8213H66.3829V71.6475C66.9594 71.6403 67.4857 71.6188 67.962 71.583C68.4382 71.5472 68.9288 71.4827 69.4337 71.3896L69.5303 72.3672C68.9324 72.4746 68.3559 72.5462 67.8009 72.582C67.2494 72.6178 66.6192 72.6357 65.9102 72.6357H65.2335V68.876H67.5323V67.2109H65.2227V66.2549H68.6817V69.8213ZM73.3009 74.9561H72.1622V65.2451H73.3009V74.9561ZM71.3028 74.4619H70.1749V69.5957H69.1114V68.6182H70.1749V65.4492H71.3028V74.4619ZM76.9443 65.5566C77.4312 65.5566 77.8699 65.6515 78.2602 65.8413C78.6505 66.0275 78.9566 66.2871 79.1786 66.6201C79.4042 66.9531 79.5188 67.3291 79.5224 67.748C79.5188 68.1706 79.4042 68.5483 79.1786 68.8813C78.9566 69.2144 78.6505 69.474 78.2602 69.6602C77.8699 69.8464 77.4312 69.9395 76.9443 69.9395C76.4537 69.9395 76.0115 69.8464 75.6176 69.6602C75.2273 69.474 74.9212 69.2144 74.6992 68.8813C74.4771 68.5483 74.3661 68.1706 74.3661 67.748C74.3661 67.3291 74.4771 66.9531 74.6992 66.6201C74.9212 66.2871 75.2291 66.0275 75.623 65.8413C76.0169 65.6515 76.4573 65.5566 76.9443 65.5566ZM76.9443 66.5449C76.6721 66.5449 76.4286 66.5951 76.2138 66.6953C75.999 66.792 75.8307 66.9316 75.7089 67.1143C75.5872 67.2933 75.5263 67.5046 75.5263 67.748C75.5263 67.9951 75.5872 68.2118 75.7089 68.3979C75.8307 68.5806 75.999 68.722 76.2138 68.8223C76.4286 68.9225 76.6721 68.9727 76.9443 68.9727C77.2164 68.9727 77.4599 68.9225 77.6747 68.8223C77.8896 68.722 78.0579 68.5806 78.1796 68.3979C78.3014 68.2118 78.3622 67.9951 78.3622 67.748C78.3622 67.5046 78.3014 67.2933 78.1796 67.1143C78.0579 66.9316 77.8896 66.792 77.6747 66.6953C77.4599 66.5951 77.2164 66.5449 76.9443 66.5449ZM82.2831 70.1543H81.08V65.2451H82.2831V70.1543ZM82.2831 73.1084H77.0302V73.8926H82.5732V74.8379H75.8593V72.2275H81.0908V71.5078H75.8378V70.5732H82.2831V73.1084ZM91.5769 74.9668H90.3846V69.7998H88.7195V68.8223H90.3846V65.2451H91.5769V74.9668ZM88.1609 69.6494H84.9812V71.6904C85.7797 71.6868 86.478 71.6654 87.076 71.626C87.6775 71.5866 88.2827 71.5114 88.8914 71.4004L88.9881 72.3779C88.3042 72.4997 87.6256 72.582 86.9524 72.625C86.2792 72.668 85.4861 72.6895 84.573 72.6895H83.7996V68.6826H86.99V67.0605H83.7674V66.0938H88.1609V69.6494Z" fill="#FAFAFA"/>
</g>
<path d="M0 3.2C0 1.43269 1.43269 0 3.2 0H35.2C36.9673 0 38.4 1.43269 38.4 3.2V76.8C38.4 78.5673 36.9673 80 35.2 80H3.2C1.43269 80 0 78.5673 0 76.8V3.2Z" fill="#787887"/>
<path d="M14.5007 41.0117V41.7637H10.946V44.8203H10.0378V41.7637H6.52222V41.0117H14.5007ZM13.7488 36.5977V37.3398H11.0437C11.0583 38.4238 12.406 39.3906 14.0613 39.6152L13.7195 40.3477C12.2839 40.123 11.0437 39.415 10.5164 38.4141C9.97437 39.415 8.73901 40.123 7.323 40.3477L6.97144 39.6152C8.60718 39.3906 9.95483 38.4238 9.98901 37.3398H7.2644V36.5977H13.7488ZM17.8428 38.8926C17.8428 40.2402 18.6632 41.666 19.9717 42.291L19.4444 42.9941C18.4923 42.5449 17.7745 41.6318 17.4034 40.5625C17.0176 41.7197 16.2559 42.6865 15.255 43.1504L14.7374 42.4375C16.0655 41.832 16.9346 40.3379 16.9346 38.8926V38.3164H15.001V37.5742H16.9249V36.2559H17.8624V37.5742H19.7667V38.3164H17.8428V38.8926ZM21.6612 36.0801V39.6055H23.0675V40.3867H21.6612V44.8301H20.7335V36.0801H21.6612ZM26.224 37.6914C26.224 38.8047 26.9955 39.8203 28.3236 40.2402L27.8842 40.9629C26.8881 40.6455 26.1605 39.9863 25.7748 39.1562C25.3939 40.1133 24.6273 40.8701 23.5775 41.2363L23.099 40.4941C24.4662 40.0449 25.2865 38.9121 25.2963 37.7012V37.457H23.3725V36.7051H28.1088V37.457H26.224V37.6914ZM30.0424 36.0801V38.248H31.3119V39.0098H30.0424V41.334H29.1146V36.0801H30.0424ZM27.2201 41.5488C29.0267 41.5488 30.1205 42.1445 30.1205 43.1699C30.1205 44.2051 29.0267 44.8203 27.2201 44.8105C25.3939 44.8203 24.2807 44.2051 24.2807 43.1699C24.2807 42.1445 25.3939 41.5488 27.2201 41.5488ZM27.2201 42.2812C25.9506 42.2812 25.1986 42.6035 25.2084 43.1699C25.1986 43.7559 25.9506 44.0781 27.2201 44.0781C28.4799 44.0781 29.2123 43.7559 29.2123 43.1699C29.2123 42.6035 28.4799 42.2812 27.2201 42.2812Z" fill="#FAFAFA"/>
<path d="M0 102.4C0 100.633 1.43269 99.2002 3.2 99.2002H35.2C36.9673 99.2002 38.4 100.633 38.4 102.4V176C38.4 177.768 36.9673 179.2 35.2 179.2H3.2C1.43269 179.2 0 177.768 0 176V102.4Z" fill="#787887"/>
<path d="M19.1646 128.345V129.097H17.9146V129.966H19.1646V130.698H17.9146V131.831H16.9869V127.28H17.9146V128.345H19.1646ZM14.067 128.228C14.067 129.37 14.8678 130.386 16.1861 130.786L15.7076 131.509C14.731 131.191 14.0084 130.547 13.6275 129.702C13.2467 130.664 12.4801 131.396 11.4303 131.763L10.9713 131.021C12.3287 130.571 13.149 129.487 13.149 128.228V127.583H14.067V128.228ZM17.9146 132.202V134.37H13.1881V135.2H18.2174V135.942H12.2799V133.687H16.9967V132.935H12.2603V132.202H17.9146ZM27.3603 131.841V132.583H19.3525V131.841H22.8974V131.099H20.3778V128.94H25.4267V128.188H20.3583V127.476H26.3544V129.614H21.2958V130.356H26.5302V131.099H23.8153V131.841H27.3603ZM26.3642 133.218V135.923H20.4169V133.218H26.3642ZM21.3349 133.96V135.171H25.4462V133.96H21.3349ZM13.6948 143.28V146.825H15.101V147.597H13.6948V152.03H12.7768V143.28H13.6948ZM12.0151 144.647V145.409H6.82952V144.647H8.98772V143.397H9.91546V144.647H12.0151ZM9.45647 146.054C10.7065 146.054 11.6244 146.894 11.6342 148.085C11.6244 149.286 10.7065 150.116 9.45647 150.126C8.19671 150.116 7.27874 149.286 7.27874 148.085C7.27874 146.894 8.19671 146.054 9.45647 146.054ZM9.45647 146.815C8.71429 146.815 8.15765 147.333 8.16741 148.085C8.15765 148.847 8.71429 149.354 9.45647 149.345C10.1987 149.354 10.7455 148.847 10.7455 148.085C10.7455 147.333 10.1987 146.815 9.45647 146.815ZM23.199 148.251V149.022H19.6248V152.03H18.7166V149.022H15.1912V148.251H23.199ZM19.1755 143.612C21.0212 143.612 22.2908 144.364 22.2908 145.556C22.2908 146.737 21.0212 147.479 19.1755 147.479C17.3201 147.479 16.0603 146.737 16.0603 145.556C16.0603 144.364 17.3201 143.612 19.1755 143.612ZM19.1755 144.354C17.8767 144.364 17.0076 144.813 17.0173 145.556C17.0076 146.288 17.8767 146.737 19.1755 146.737C20.4744 146.737 21.3435 146.288 21.3435 145.556C21.3435 144.813 20.4744 144.364 19.1755 144.354ZM27.9669 144.521C27.9669 145.946 29.4903 147.294 31.17 147.597L30.7403 148.368C29.3438 148.065 28.0548 147.147 27.4883 145.917C26.9122 147.138 25.628 148.056 24.2266 148.368L23.8165 147.597C25.4766 147.284 26.9903 145.946 26.9903 144.521V143.856H27.9669V144.521ZM31.5313 150.106V150.878H23.5235V150.106H31.5313Z" fill="#FAFAFA"/>
<path d="M193 2.56C193 1.14615 194.146 0 195.56 0H294.44C295.854 0 297 1.14615 297 2.56V35.84C297 37.2539 295.854 38.4 294.44 38.4H195.56C194.146 38.4 193 37.2539 193 35.84V2.56Z" fill="#787887"/>
<path d="M231.832 14.78V23.53H230.943V14.78H231.832ZM230.055 14.9656V23.0906H229.176V18.6375H227.818V17.8757H229.176V14.9656H230.055ZM226.959 17.2214C226.959 18.7156 227.564 20.2097 228.795 20.9226L228.238 21.6062C227.403 21.1082 226.827 20.2244 226.529 19.1648C226.212 20.3074 225.616 21.2791 224.762 21.8113L224.195 21.1179C225.436 20.366 226.07 18.7742 226.07 17.2214V16.5183H224.459V15.7664H228.463V16.5183H226.959V17.2214ZM235.197 22.7V21.9187L237.648 19.448C238.42 18.6375 238.81 18.1882 238.81 17.573C238.81 16.8796 238.244 16.4304 237.502 16.4304C236.72 16.4304 236.213 16.9285 236.213 17.6804H235.197C235.187 16.3914 236.174 15.532 237.521 15.532C238.888 15.532 239.826 16.3914 239.836 17.5437C239.826 18.3347 239.455 18.9597 238.127 20.2683L236.691 21.7234V21.782H239.953V22.7H235.197ZM245.459 15.7175V16.2546C245.459 16.9871 245.459 18.1199 245.205 19.6824L244.287 19.614C244.506 18.2126 244.531 17.2019 244.541 16.4695H240.986V15.7175H245.459ZM243.212 18.2175V20.8347C244.145 20.8054 245.092 20.7419 245.966 20.6296L246.015 21.323C244.189 21.616 242.158 21.655 240.605 21.6453L240.498 20.8933C241.045 20.8884 241.655 20.8835 242.295 20.864V18.2175H243.212ZM247.402 14.78V18.3933H248.74V19.1843H247.402V23.53H246.464V14.78H247.402ZM254.197 15.6687V16.4109H248.982V15.6687H251.13V14.741H252.058V15.6687H254.197ZM251.589 16.8015C252.849 16.8113 253.708 17.4363 253.708 18.3933C253.708 19.3503 252.849 19.9851 251.589 19.9851C250.32 19.9851 249.46 19.3503 249.46 18.3933C249.46 17.4363 250.32 16.8113 251.589 16.8015ZM251.589 17.5144C250.847 17.5144 250.349 17.8562 250.359 18.3933C250.349 18.9402 250.847 19.2625 251.589 19.2625C252.331 19.2625 252.83 18.9402 252.839 18.3933C252.83 17.8562 252.331 17.5144 251.589 17.5144ZM255.847 14.78V17.1531H257.117V17.9246H255.847V20.2488H254.919V14.78H255.847ZM255.847 20.698V23.53H254.919V21.45H250.066V20.698H255.847ZM262.232 15.4441V15.9324C262.222 16.5183 262.222 17.3875 262.007 18.5203L261.089 18.4324C261.28 17.4607 261.309 16.7576 261.324 16.2058H257.818V15.4441H262.232ZM259.995 17.407V19.2136C260.933 19.1843 261.9 19.116 262.779 18.989L262.837 19.6628C261.011 19.9851 258.921 20.0144 257.378 20.0242L257.29 19.2722C257.827 19.2673 258.438 19.2625 259.077 19.2429V17.407H259.995ZM264.283 14.78V17.5632H265.484V18.3445H264.283V21.3523H263.335V14.78H264.283ZM264.566 22.5925V23.3445H258.618V20.7566H259.546V22.5925H264.566Z" fill="#FAFAFA"/>
<g filter="url(#filter1_d_994_9576)">
<path d="M265 56.56C265 55.1461 266.146 54 267.56 54H302.44C303.854 54 305 55.1462 305 56.56V131.44C305 132.854 303.854 134 302.44 134H267.56C266.146 134 265 132.854 265 131.44V56.56Z" fill="url(#paint1_linear_994_9576)"/>
<path d="M284.695 90.8281H275.822V89.8291H279.636V87.917H276.585V86.9717H277.949V84.0713H276.553V83.1045H283.922V84.0713H282.504V86.9717H283.89V87.917H280.817V89.8291H284.695V90.8281ZM281.322 86.9717V84.0713H279.142V86.9717H281.322ZM293.02 88.0889H290.152V89.8613H293.997V90.8174H285.124V89.8613H288.949V88.0889H286.209V82.9648H292.934V83.9316H287.423V85.0273H292.708V85.9727H287.423V87.1328H293.02V88.0889ZM284.685 101.841H280.817V104.956H279.636V101.841H275.812V100.896H284.685V101.841ZM278.067 96.8242H282.407V95.6318H283.61V99.8857H276.886V95.6318H278.067V96.8242ZM282.407 98.9189V97.7695H278.067V98.9189H282.407ZM290.141 96.5771C290.141 97.0749 290.291 97.5601 290.592 98.0327C290.896 98.5054 291.315 98.9136 291.849 99.2573C292.382 99.5975 292.98 99.8249 293.643 99.9395L293.106 100.938C292.293 100.767 291.57 100.45 290.936 99.9878C290.306 99.5223 289.833 98.9619 289.518 98.3066C289.196 98.9583 288.718 99.5169 288.084 99.9824C287.45 100.444 286.728 100.763 285.919 100.938L285.393 99.9395C286.048 99.8213 286.639 99.5921 287.165 99.252C287.695 98.9082 288.111 98.5 288.411 98.0273C288.716 97.5547 288.87 97.0713 288.873 96.5771V95.8574H290.141V96.5771ZM293.997 103.721H285.124V102.732H293.997V103.721Z" fill="#FAFAFA"/>
</g>
<path d="M161 57.2C161 55.4327 162.433 54 164.2 54H196.2C197.967 54 199.4 55.4327 199.4 57.2V130.8C199.4 132.567 197.967 134 196.2 134H164.2C162.433 134 161 132.567 161 130.8V57.2Z" fill="#787887"/>
<path d="M175.501 94.5117V95.2637H171.946V98.3203H171.038V95.2637H167.522V94.5117H175.501ZM174.749 90.0977V90.8398H172.044C172.058 91.9238 173.406 92.8906 175.061 93.1152L174.719 93.8477C173.284 93.623 172.044 92.915 171.516 91.9141C170.974 92.915 169.739 93.623 168.323 93.8477L167.971 93.1152C169.607 92.8906 170.955 91.9238 170.989 90.8398H168.264V90.0977H174.749ZM178.843 92.3926C178.843 93.7402 179.663 95.166 180.972 95.791L180.444 96.4941C179.492 96.0449 178.774 95.1318 178.403 94.0625C178.018 95.2197 177.256 96.1865 176.255 96.6504L175.737 95.9375C177.065 95.332 177.935 93.8379 177.935 92.3926V91.8164H176.001V91.0742H177.925V89.7559H178.862V91.0742H180.767V91.8164H178.843V92.3926ZM182.661 89.5801V93.1055H184.067V93.8867H182.661V98.3301H181.733V89.5801H182.661ZM187.224 91.1914C187.224 92.3047 187.995 93.3203 189.324 93.7402L188.884 94.4629C187.888 94.1455 187.161 93.4863 186.775 92.6562C186.394 93.6133 185.627 94.3701 184.578 94.7363L184.099 93.9941C185.466 93.5449 186.287 92.4121 186.296 91.2012V90.957H184.372V90.2051H189.109V90.957H187.224V91.1914ZM191.042 89.5801V91.748H192.312V92.5098H191.042V94.834H190.115V89.5801H191.042ZM188.22 95.0488C190.027 95.0488 191.12 95.6445 191.12 96.6699C191.12 97.7051 190.027 98.3203 188.22 98.3105C186.394 98.3203 185.281 97.7051 185.281 96.6699C185.281 95.6445 186.394 95.0488 188.22 95.0488ZM188.22 95.7812C186.951 95.7812 186.199 96.1035 186.208 96.6699C186.199 97.2559 186.951 97.5781 188.22 97.5781C189.48 97.5781 190.212 97.2559 190.212 96.6699C190.212 96.1035 189.48 95.7812 188.22 95.7812Z" fill="#FAFAFA"/>
<path d="M256.172 35.8438C257.524 35.925 258.601 37.2506 258.601 38.873V131.367L258.597 131.523C258.53 133.074 257.481 134.318 256.172 134.396L256.04 134.4H208.04L207.908 134.396C206.599 134.318 205.55 133.074 205.483 131.523L205.48 131.367V38.873C205.48 37.2506 206.556 35.9251 207.908 35.8438L208.04 35.8398H256.04L256.172 35.8438ZM211.88 120.96H214.44V126.818H215.721V119.68H220.84V126.818H222.12V118.4H227.24V126.818H228.521V115.84H252.2V103.695H211.88V120.96Z" fill="#787887"/>
<path d="M218.589 70.9922V78.8672H217.79V70.9922H218.589ZM216.99 71.1592V78.4717H216.199V74.4639H214.977V73.7783H216.199V71.1592H216.99ZM214.204 73.1895C214.204 74.5342 214.749 75.8789 215.856 76.5205L215.355 77.1357C214.604 76.6875 214.085 75.8921 213.817 74.9385C213.531 75.9668 212.995 76.8413 212.226 77.3203L211.716 76.6963C212.833 76.0195 213.404 74.5869 213.404 73.1895V72.5566H211.954V71.8799H215.557V72.5566H214.204V73.1895ZM219.677 78.1201V77.417L221.883 75.1934C222.577 74.4639 222.929 74.0596 222.929 73.5059C222.929 72.8818 222.419 72.4775 221.751 72.4775C221.048 72.4775 220.591 72.9258 220.591 73.6025H219.677C219.668 72.4424 220.555 71.6689 221.768 71.6689C222.999 71.6689 223.843 72.4424 223.851 73.4795C223.843 74.1914 223.509 74.7539 222.313 75.9316L221.021 77.2412V77.2939H223.957V78.1201H219.677ZM228.938 71.8359V72.3193C228.938 72.9785 228.938 73.998 228.709 75.4043L227.883 75.3428C228.081 74.0815 228.103 73.1719 228.111 72.5127H224.912V71.8359H228.938ZM226.916 74.0859V76.4414C227.755 76.415 228.608 76.3579 229.395 76.2568L229.439 76.8809C227.795 77.1445 225.967 77.1797 224.569 77.1709L224.473 76.4941C224.965 76.4897 225.514 76.4854 226.09 76.4678V74.0859H226.916ZM230.687 70.9922V74.2441H231.891V74.9561H230.687V78.8672H229.843V70.9922H230.687ZM236.827 71.792V72.46H232.134V71.792H234.068V70.957H234.903V71.792H236.827ZM234.481 72.8115C235.615 72.8203 236.388 73.3828 236.388 74.2441C236.388 75.1055 235.615 75.6768 234.481 75.6768C233.338 75.6768 232.565 75.1055 232.565 74.2441C232.565 73.3828 233.338 72.8203 234.481 72.8115ZM234.481 73.4531C233.813 73.4531 233.365 73.7607 233.373 74.2441C233.365 74.7363 233.813 75.0264 234.481 75.0264C235.149 75.0264 235.597 74.7363 235.606 74.2441C235.597 73.7607 235.149 73.4531 234.481 73.4531ZM238.313 70.9922V73.1279H239.455V73.8223H238.313V75.9141H237.478V70.9922H238.313ZM238.313 76.3184V78.8672H237.478V76.9951H233.11V76.3184H238.313ZM244.085 71.5898V72.0293C244.076 72.5566 244.076 73.3389 243.882 74.3584L243.056 74.2793C243.228 73.4048 243.254 72.772 243.267 72.2754H240.112V71.5898H244.085ZM242.072 73.3564V74.9824C242.916 74.9561 243.786 74.8945 244.577 74.7803L244.63 75.3867C242.986 75.6768 241.105 75.7031 239.716 75.7119L239.637 75.0352C240.121 75.0308 240.67 75.0264 241.246 75.0088V73.3564H242.072ZM245.93 70.9922V73.4971H247.011V74.2002H245.93V76.9072H245.078V70.9922H245.93ZM246.185 78.0234V78.7002H240.833V76.3711H241.668V78.0234H246.185ZM214.731 83.3125C214.731 84.6309 215.592 85.9932 216.805 86.5117L216.348 87.1621C215.421 86.7534 214.683 85.8877 214.318 84.833C213.953 85.958 213.21 86.916 212.296 87.3643L211.813 86.7051C213 86.1514 213.878 84.666 213.887 83.3125V82.4775H212.085V81.7832H216.524V82.4775H214.731V83.3125ZM218.352 80.9922V88.8672H217.517V80.9922H218.352ZM225.539 80.9922V84.1826H226.804V84.877H225.539V88.8672H224.713V80.9922H225.539ZM224.027 82.2227V82.9082H219.36V82.2227H221.303V81.0977H222.137V82.2227H224.027ZM221.724 83.4883C222.849 83.4883 223.676 84.2441 223.684 85.3164C223.676 86.3975 222.849 87.1445 221.724 87.1533C220.591 87.1445 219.764 86.3975 219.764 85.3164C219.764 84.2441 220.591 83.4883 221.724 83.4883ZM221.724 84.1738C221.056 84.1738 220.555 84.6396 220.564 85.3164C220.555 86.002 221.056 86.459 221.724 86.4502C222.392 86.459 222.885 86.002 222.885 85.3164C222.885 84.6396 222.392 84.1738 221.724 84.1738ZM235.158 80.9922V82.9785H236.3V83.6553H235.158V85.668H234.323V80.9922H235.158ZM232.995 81.5547C232.995 83.5938 231.616 85.0615 229.304 85.7295L228.961 85.0527C230.803 84.5298 231.941 83.5059 232.09 82.2314H229.313V81.5547H232.995ZM232.644 85.7559C234.235 85.7559 235.245 86.3447 235.245 87.3027C235.245 88.2695 234.235 88.8584 232.644 88.8584C231.062 88.8584 230.025 88.2695 230.034 87.3027C230.025 86.3447 231.062 85.7559 232.644 85.7559ZM232.644 86.415C231.545 86.415 230.851 86.749 230.86 87.3027C230.851 87.8564 231.545 88.1992 232.644 88.1992C233.734 88.1992 234.428 87.8564 234.428 87.3027C234.428 86.749 233.734 86.415 232.644 86.415ZM239.11 81.5547C240.358 81.5459 241.246 82.3193 241.255 83.4268C241.246 84.5342 240.358 85.3076 239.11 85.3076C237.871 85.3076 236.957 84.5342 236.965 83.4268C236.957 82.3193 237.871 81.5459 239.11 81.5547ZM239.11 82.2754C238.345 82.2754 237.783 82.7324 237.792 83.4268C237.783 84.1211 238.345 84.5781 239.11 84.5781C239.875 84.5781 240.437 84.1211 240.437 83.4268C240.437 82.7324 239.875 82.2754 239.11 82.2754ZM243.056 80.9922V88.8848H242.221V80.9922H243.056ZM236.588 86.4941C238.02 86.4941 240.006 86.4766 241.729 86.2305L241.791 86.8369C240.006 87.1797 238.099 87.1885 236.693 87.1885L236.588 86.4941ZM250.639 80.9922V85.0439H249.812V80.9922H250.639ZM250.647 85.4219V87.3906H246.306V88.1201H250.911V88.7881H245.497V86.7578H249.821V86.0811H245.471V85.4219H250.647ZM246.982 81.8096C246.974 82.8643 247.738 83.8223 248.942 84.2002L248.529 84.8506C247.611 84.5518 246.921 83.9277 246.569 83.1279C246.209 83.9893 245.506 84.6748 244.565 85L244.143 84.3408C245.374 83.9277 246.13 82.8994 246.13 81.8096V81.2031H246.982V81.8096ZM217.965 90.9922V94.1299H219.187V94.8242H217.965V98.8584H217.13V90.9922H217.965ZM215.909 91.8184C215.9 94.0947 214.898 96.125 212.305 97.4082L211.839 96.7578C213.812 95.7734 214.885 94.3496 215.056 92.5127H212.235V91.8184H215.909ZM225.776 93.2949V93.9629H220.353V91.2734H221.179V93.2949H225.776ZM226.602 94.9561V95.624H219.395V94.9561H226.602ZM225.829 97.9971V98.6826H220.292V96.3711H221.127V97.9971H225.829ZM235.738 90.9922V98.8672H234.947V90.9922H235.738ZM234.129 91.1943V98.4805H233.338V95.7998H231.994V95.1143H233.338V93.8311H232.125C231.743 95.1538 230.904 96.3008 229.418 97.1885L228.926 96.5908C230.596 95.5977 231.4 94.2749 231.545 92.6533H229.313V91.9678H232.371C232.371 92.3721 232.341 92.7632 232.275 93.1455H233.338V91.1943H234.129ZM242.731 90.9834V93.2686H243.882V93.9629H242.731V96.6875H241.896V90.9834H242.731ZM240.411 91.6602V92.3369H237.721V94.6309C239.255 94.6353 240.121 94.5869 241.105 94.3848L241.202 95.0615C240.138 95.2725 239.207 95.3252 237.519 95.3252H236.895V91.6602H240.411ZM243.065 98.0234V98.7002H237.739V96.0986H238.574V98.0234H243.065Z" fill="#FAFAFA"/>
<defs>
<filter id="filter0_d_994_9576" x="48" y="18" width="52" height="92" filterUnits="userSpaceOnUse" color-interpolation-filters="sRGB">
<feFlood flood-opacity="0" result="BackgroundImageFix"/>
<feColorMatrix in="SourceAlpha" type="matrix" values="0 0 0 0 0 0 0 0 0 0 0 0 0 0 0 0 0 0 127 0" result="hardAlpha"/>
<feOffset/>
<feGaussianBlur stdDeviation="3"/>
<feComposite in2="hardAlpha" operator="out"/>
<feColorMatrix type="matrix" values="0 0 0 0 1 0 0 0 0 1 0 0 0 0 1 0 0 0 0.4 0"/>
<feBlend mode="normal" in2="BackgroundImageFix" result="effect1_dropShadow_994_9576"/>
<feBlend mode="normal" in="SourceGraphic" in2="effect1_dropShadow_994_9576" result="shape"/>
</filter>
<filter id="filter1_d_994_9576" x="259" y="48" width="52" height="92" filterUnits="userSpaceOnUse" color-interpolation-filters="sRGB">
<feFlood flood-opacity="0" result="BackgroundImageFix"/>
<feColorMatrix in="SourceAlpha" type="matrix" values="0 0 0 0 0 0 0 0 0 0 0 0 0 0 0 0 0 0 127 0" result="hardAlpha"/>
<feOffset/>
<feGaussianBlur stdDeviation="3"/>
<feComposite in2="hardAlpha" operator="out"/>
<feColorMatrix type="matrix" values="0 0 0 0 1 0 0 0 0 1 0 0 0 0 1 0 0 0 0.4 0"/>
<feBlend mode="normal" in2="BackgroundImageFix" result="effect1_dropShadow_994_9576"/>
<feBlend mode="normal" in="SourceGraphic" in2="effect1_dropShadow_994_9576" result="shape"/>
</filter>
<linearGradient id="paint0_linear_994_9576" x1="94" y1="27.5714" x2="36.5776" y2="51.8009" gradientUnits="userSpaceOnUse">
<stop stop-color="#25283D"/>
<stop offset="0.647344" stop-color="#3B3B98"/>
<stop offset="1" stop-color="#5863F8"/>
</linearGradient>
<linearGradient id="paint1_linear_994_9576" x1="305" y1="57.5714" x2="247.578" y2="81.8009" gradientUnits="userSpaceOnUse">
<stop stop-color="#25283D"/>
<stop offset="0.647344" stop-color="#3B3B98"/>
<stop offset="1" stop-color="#5863F8"/>
</linearGradient>
</defs>
</svg>
